<svg width="57" height="52" viewBox="0 0 57 52" fill="none" xmlns="http://www.w3.org/2000/svg">
<rect x="0.5" y="0.5" width="56" height="51" rx="14.5" fill="#151515" stroke="#D4830A"/>
<path d="M18.4091 26.1818C18.4091 23.3182 18.7803 20.6856 19.5227 18.2841C20.2727 15.875 21.3409 13.6591 22.7273 11.6364H25.0909C24.5455 12.3864 24.0341 13.3106 23.5568 14.4091C23.0871 15.5 22.6742 16.7008 22.3182 18.0114C21.9621 19.3144 21.6818 20.6629 21.4773 22.0568C21.2803 23.4508 21.1818 24.8258 21.1818 26.1818C21.1818 27.9848 21.3561 29.8144 21.7045 31.6705C22.053 33.5265 22.5227 35.25 23.1136 36.8409C23.7045 38.4318 24.3636 39.7273 25.0909 40.7273H22.7273C21.3409 38.7045 20.2727 36.4924 19.5227 34.0909C18.7803 31.6818 18.4091 29.0455 18.4091 26.1818ZM34.7756 26.1818C34.7756 29.0455 34.4006 31.6818 33.6506 34.0909C32.9081 36.4924 31.8438 38.7045 30.4574 40.7273H28.0938C28.6392 39.9773 29.1468 39.053 29.6165 37.9545C30.0938 36.8636 30.5104 35.6667 30.8665 34.3636C31.2225 33.053 31.4991 31.7008 31.696 30.3068C31.9006 28.9053 32.0028 27.5303 32.0028 26.1818C32.0028 24.3788 31.8286 22.5492 31.4801 20.6932C31.1316 18.8371 30.6619 17.1136 30.071 15.5227C29.4801 13.9318 28.821 12.6364 28.0938 11.6364H30.4574C31.8438 13.6591 32.9081 15.875 33.6506 18.2841C34.4006 20.6856 34.7756 23.3182 34.7756 26.1818Z" fill="white"/>
</svg>
