<svg width="70" height="77" viewBox="0 0 70 77" fill="none" xmlns="http://www.w3.org/2000/svg">
<rect x="1" y="1" width="68" height="68" rx="19" fill="#313131" stroke="black" stroke-width="2"/>
<path d="M36.2727 62.6364C34.3636 62.6061 32.4545 62.2424 30.5455 61.5455C28.6364 60.8485 26.8939 59.6742 25.3182 58.0227C23.7424 56.3561 22.4773 54.1061 21.5227 51.2727C20.5682 48.4242 20.0909 44.8485 20.0909 40.5455C20.0909 36.4242 20.4773 32.7727 21.25 29.5909C22.0227 26.3939 23.1439 23.7045 24.6136 21.5227C26.0833 19.3258 27.8561 17.6591 29.9318 16.5227C32.0227 15.3864 34.3788 14.8182 37 14.8182C39.6061 14.8182 41.9242 15.3409 43.9545 16.3864C46 17.4167 47.6667 18.8561 48.9545 20.7045C50.2424 22.553 51.0758 24.6818 51.4545 27.0909H45.9091C45.3939 25 44.3939 23.2652 42.9091 21.8864C41.4242 20.5076 39.4545 19.8182 37 19.8182C33.3939 19.8182 30.553 21.3864 28.4773 24.5227C26.4167 27.6591 25.3788 32.0606 25.3636 37.7273H25.7273C26.5758 36.4394 27.5833 35.3409 28.75 34.4318C29.9318 33.5076 31.2348 32.7955 32.6591 32.2955C34.0833 31.7955 35.5909 31.5455 37.1818 31.5455C39.8485 31.5455 42.2879 32.2121 44.5 33.5455C46.7121 34.8636 48.4848 36.6894 49.8182 39.0227C51.1515 41.3409 51.8182 44 51.8182 47C51.8182 49.8788 51.1742 52.5152 49.8864 54.9091C48.5985 57.2879 46.7879 59.1818 44.4545 60.5909C42.1364 61.9848 39.4091 62.6667 36.2727 62.6364ZM36.2727 57.6364C38.1818 57.6364 39.8939 57.1591 41.4091 56.2045C42.9394 55.25 44.1439 53.9697 45.0227 52.3636C45.9167 50.7576 46.3636 48.9697 46.3636 47C46.3636 45.0758 45.9318 43.3258 45.0682 41.75C44.2197 40.1591 43.0455 38.8939 41.5455 37.9545C40.0606 37.0152 38.3636 36.5455 36.4545 36.5455C35.0152 36.5455 33.6742 36.8333 32.4318 37.4091C31.1894 37.9697 30.0985 38.7424 29.1591 39.7273C28.2348 40.7121 27.5076 41.8409 26.9773 43.1136C26.447 44.3712 26.1818 45.697 26.1818 47.0909C26.1818 48.9394 26.6136 50.6667 27.4773 52.2727C28.3561 53.8788 29.553 55.1742 31.0682 56.1591C32.5985 57.1439 34.3333 57.6364 36.2727 57.6364Z" fill="#EDF2F5"/>
</svg>
