<svg width="70" height="77" viewBox="0 0 70 77" fill="none" xmlns="http://www.w3.org/2000/svg">
<rect x="1" y="2" width="68" height="68" rx="19" fill="#313131" stroke="black" stroke-width="2"/>
<path d="M20.8182 62V57.9091L36.1818 41.0909C37.9848 39.1212 39.4697 37.4091 40.6364 35.9545C41.803 34.4848 42.6667 33.1061 43.2273 31.8182C43.803 30.5152 44.0909 29.1515 44.0909 27.7273C44.0909 26.0909 43.697 24.6742 42.9091 23.4773C42.1364 22.2803 41.0758 21.3561 39.7273 20.7045C38.3788 20.053 36.8636 19.7273 35.1818 19.7273C33.3939 19.7273 31.8333 20.0985 30.5 20.8409C29.1818 21.5682 28.1591 22.5909 27.4318 23.9091C26.7197 25.2273 26.3636 26.7727 26.3636 28.5455H21C21 25.8182 21.6288 23.4242 22.8864 21.3636C24.1439 19.303 25.8561 17.697 28.0227 16.5455C30.2045 15.3939 32.6515 14.8182 35.3636 14.8182C38.0909 14.8182 40.5076 15.3939 42.6136 16.5455C44.7197 17.697 46.3712 19.25 47.5682 21.2045C48.7652 23.1591 49.3636 25.3333 49.3636 27.7273C49.3636 29.4394 49.053 31.1136 48.4318 32.75C47.8258 34.3712 46.7652 36.1818 45.25 38.1818C43.75 40.1667 41.6667 42.5909 39 45.4545L28.5455 56.6364V57H50.1818V62H20.8182Z" fill="#EDF2F5"/>
</svg>
