<svg width="70" height="77" viewBox="0 0 70 77" fill="none" xmlns="http://www.w3.org/2000/svg">
<rect x="1" y="2" width="68" height="68" rx="19" fill="#313131" stroke="black" stroke-width="2"/>
<path d="M35.6364 14.8182C37.5455 14.8333 39.4545 15.197 41.3636 15.9091C43.2727 16.6212 45.0152 17.803 46.5909 19.4545C48.1667 21.0909 49.4318 23.3258 50.3864 26.1591C51.3409 28.9924 51.8182 32.5455 51.8182 36.8182C51.8182 40.9545 51.4242 44.6288 50.6364 47.8409C49.8636 51.0379 48.7424 53.7348 47.2727 55.9318C45.8182 58.1288 44.0455 59.7955 41.9545 60.9318C39.8788 62.0682 37.5303 62.6364 34.9091 62.6364C32.303 62.6364 29.9773 62.1212 27.9318 61.0909C25.9015 60.0455 24.2348 58.5985 22.9318 56.75C21.6439 54.8864 20.8182 52.7273 20.4545 50.2727H26C26.5 52.4091 27.4924 54.1742 28.9773 55.5682C30.4773 56.947 32.4545 57.6364 34.9091 57.6364C38.5 57.6364 41.3333 56.0682 43.4091 52.9318C45.5 49.7955 46.5455 45.3636 46.5455 39.6364H46.1818C45.3333 40.9091 44.3258 42.0076 43.1591 42.9318C41.9924 43.8561 40.697 44.5682 39.2727 45.0682C37.8485 45.5682 36.3333 45.8182 34.7273 45.8182C32.0606 45.8182 29.6136 45.1591 27.3864 43.8409C25.1742 42.5076 23.4015 40.6818 22.0682 38.3636C20.75 36.0303 20.0909 33.3636 20.0909 30.3636C20.0909 27.5152 20.7273 24.9091 22 22.5455C23.2879 20.1667 25.0909 18.2727 27.4091 16.8636C29.7424 15.4545 32.4848 14.7727 35.6364 14.8182ZM35.6364 19.8182C33.7273 19.8182 32.0076 20.2955 30.4773 21.25C28.9621 22.1894 27.7576 23.4621 26.8636 25.0682C25.9848 26.6591 25.5455 28.4242 25.5455 30.3636C25.5455 32.303 25.9697 34.0682 26.8182 35.6591C27.6818 37.2348 28.8561 38.4924 30.3409 39.4318C31.8409 40.3561 33.5455 40.8182 35.4545 40.8182C36.8939 40.8182 38.2348 40.5379 39.4773 39.9773C40.7197 39.4015 41.803 38.6212 42.7273 37.6364C43.6667 36.6364 44.4015 35.5076 44.9318 34.25C45.4621 32.9773 45.7273 31.6515 45.7273 30.2727C45.7273 28.4545 45.2879 26.75 44.4091 25.1591C43.5455 23.5682 42.3485 22.2803 40.8182 21.2955C39.303 20.3106 37.5758 19.8182 35.6364 19.8182Z" fill="#EDF2F5"/>
</svg>
