<svg width="77" height="70" viewBox="0 0 77 70" fill="none" xmlns="http://www.w3.org/2000/svg">
<rect x="1" y="1" width="68" height="68" rx="19" fill="#9A9B96" stroke="black" stroke-width="2"/>
<path d="M8.65909 55H4.22727L17.0455 20.0909H21.4091L34.2273 55H29.7955L19.3636 25.6136H19.0909L8.65909 55ZM10.2955 41.3636H28.1591V45.1136H10.2955V41.3636ZM66.1151 31H61.8878C61.6378 29.7841 61.2003 28.7159 60.5753 27.7955C59.9616 26.875 59.2116 26.1023 58.3253 25.4773C57.4503 24.8409 56.4787 24.3636 55.4105 24.0455C54.3423 23.7273 53.2287 23.5682 52.0696 23.5682C49.956 23.5682 48.0412 24.1023 46.3253 25.1705C44.6207 26.2386 43.2628 27.8125 42.2514 29.892C41.2514 31.9716 40.7514 34.5227 40.7514 37.5455C40.7514 40.5682 41.2514 43.1193 42.2514 45.1989C43.2628 47.2784 44.6207 48.8523 46.3253 49.9205C48.0412 50.9886 49.956 51.5227 52.0696 51.5227C53.2287 51.5227 54.3423 51.3636 55.4105 51.0455C56.4787 50.7273 57.4503 50.2557 58.3253 49.6307C59.2116 48.9943 59.9616 48.2159 60.5753 47.2955C61.2003 46.3636 61.6378 45.2955 61.8878 44.0909H66.1151C65.7969 45.875 65.2173 47.4716 64.3764 48.8807C63.5355 50.2898 62.4901 51.4886 61.2401 52.4773C59.9901 53.4545 58.5866 54.1989 57.0298 54.7102C55.4844 55.2216 53.831 55.4773 52.0696 55.4773C49.0923 55.4773 46.4446 54.75 44.1264 53.2955C41.8082 51.8409 39.9844 49.7727 38.6548 47.0909C37.3253 44.4091 36.6605 41.2273 36.6605 37.5455C36.6605 33.8636 37.3253 30.6818 38.6548 28C39.9844 25.3182 41.8082 23.25 44.1264 21.7955C46.4446 20.3409 49.0923 19.6136 52.0696 19.6136C53.831 19.6136 55.4844 19.8693 57.0298 20.3807C58.5866 20.892 59.9901 21.642 61.2401 22.6307C62.4901 23.608 63.5355 24.8011 64.3764 26.2102C65.2173 27.608 65.7969 29.2045 66.1151 31Z" fill="black"/>
</svg>
