<svg width="70" height="77" viewBox="0 0 70 77" fill="none" xmlns="http://www.w3.org/2000/svg">
<rect x="1" y="5" width="68" height="68" rx="19" fill="#313131" stroke="black" stroke-width="2"/>
<path d="M35 62.6364C31.5758 62.6364 28.6591 61.7045 26.25 59.8409C23.8409 57.9621 22 55.2424 20.7273 51.6818C19.4545 48.1061 18.8182 43.7879 18.8182 38.7273C18.8182 33.697 19.4545 29.4015 20.7273 25.8409C22.0152 22.2652 23.8636 19.5379 26.2727 17.6591C28.697 15.7651 31.6061 14.8182 35 14.8182C38.3939 14.8182 41.2955 15.7651 43.7045 17.6591C46.1288 19.5379 47.9773 22.2652 49.25 25.8409C50.5379 29.4015 51.1818 33.697 51.1818 38.7273C51.1818 43.7879 50.5455 48.1061 49.2727 51.6818C48 55.2424 46.1591 57.9621 43.75 59.8409C41.3409 61.7045 38.4242 62.6364 35 62.6364ZM35 57.6364C38.3939 57.6364 41.0303 56 42.9091 52.7273C44.7879 49.4545 45.7273 44.7879 45.7273 38.7273C45.7273 34.697 45.2955 31.2652 44.4318 28.4318C43.5833 25.5985 42.3561 23.4394 40.75 21.9545C39.1591 20.4697 37.2424 19.7273 35 19.7273C31.6364 19.7273 29.0076 21.3864 27.1136 24.7045C25.2197 28.0076 24.2727 32.6818 24.2727 38.7273C24.2727 42.7576 24.697 46.1818 25.5455 49C26.3939 51.8182 27.6136 53.9621 29.2045 55.4318C30.8106 56.9015 32.7424 57.6364 35 57.6364Z" fill="#EDF2F5"/>
</svg>
