<svg width="70" height="77" viewBox="0 0 70 77" fill="none" xmlns="http://www.w3.org/2000/svg">
<path d="M20 4H50C60.4934 4 69 12.5066 69 23V53C69 63.4934 60.4934 72 50 72H20C9.50659 72 1 63.4934 1 53V23C1 12.5066 9.50659 4 20 4Z" fill="#9A9B96" stroke="black" stroke-width="2"/>
<path d="M37.5455 53.2727V50.8182C37.5455 49.1212 37.8939 47.5682 38.5909 46.1591C39.303 44.7348 40.3333 43.5985 41.6818 42.75C43.0455 41.8864 44.697 41.4545 46.6364 41.4545C48.6061 41.4545 50.2576 41.8864 51.5909 42.75C52.9242 43.5985 53.9318 44.7348 54.6136 46.1591C55.2955 47.5682 55.6364 49.1212 55.6364 50.8182V53.2727C55.6364 54.9697 55.2879 56.5303 54.5909 57.9545C53.9091 59.3636 52.8939 60.5 51.5455 61.3636C50.2121 62.2121 48.5758 62.6364 46.6364 62.6364C44.6667 62.6364 43.0076 62.2121 41.6591 61.3636C40.3106 60.5 39.2879 59.3636 38.5909 57.9545C37.8939 56.5303 37.5455 54.9697 37.5455 53.2727ZM42.1818 50.8182V53.2727C42.1818 54.6818 42.5152 55.947 43.1818 57.0682C43.8485 58.1742 45 58.7273 46.6364 58.7273C48.2273 58.7273 49.3485 58.1742 50 57.0682C50.6667 55.947 51 54.6818 51 53.2727V50.8182C51 49.4091 50.6818 48.1515 50.0455 47.0455C49.4091 45.9242 48.2727 45.3636 46.6364 45.3636C45.0455 45.3636 43.9015 45.9242 43.2045 47.0455C42.5227 48.1515 42.1818 49.4091 42.1818 50.8182ZM14.3636 26.6364V24.1818C14.3636 22.4848 14.7121 20.9318 15.4091 19.5227C16.1212 18.0985 17.1515 16.9621 18.5 16.1136C19.8636 15.25 21.5152 14.8182 23.4545 14.8182C25.4242 14.8182 27.0758 15.25 28.4091 16.1136C29.7424 16.9621 30.75 18.0985 31.4318 19.5227C32.1136 20.9318 32.4545 22.4848 32.4545 24.1818V26.6364C32.4545 28.3333 32.1061 29.8939 31.4091 31.3182C30.7273 32.7273 29.7121 33.8636 28.3636 34.7273C27.0303 35.5758 25.3939 36 23.4545 36C21.4848 36 19.8258 35.5758 18.4773 34.7273C17.1288 33.8636 16.1061 32.7273 15.4091 31.3182C14.7121 29.8939 14.3636 28.3333 14.3636 26.6364ZM19 24.1818V26.6364C19 28.0455 19.3333 29.3106 20 30.4318C20.6667 31.5379 21.8182 32.0909 23.4545 32.0909C25.0455 32.0909 26.1667 31.5379 26.8182 30.4318C27.4848 29.3106 27.8182 28.0455 27.8182 26.6364V24.1818C27.8182 22.7727 27.5 21.5151 26.8636 20.4091C26.2273 19.2879 25.0909 18.7273 23.4545 18.7273C21.8636 18.7273 20.7197 19.2879 20.0227 20.4091C19.3409 21.5151 19 22.7727 19 24.1818ZM16.0909 62L48.0909 15.4545H53.2727L21.2727 62H16.0909Z" fill="black"/>
</svg>
