<svg width="70" height="70" viewBox="0 0 70 70" fill="none" xmlns="http://www.w3.org/2000/svg">
<rect x="1" y="1" width="68" height="68" rx="19" fill="#9A9B96" stroke="black" stroke-width="2"/>
<path fill-rule="evenodd" clip-rule="evenodd" d="M28.1204 49.0841C27.5578 49.6465 26.7949 49.9625 25.9994 49.9625C25.2039 49.9625 24.4409 49.6465 23.8784 49.0841L11.8784 37.0841C11.3159 36.5216 11 35.7586 11 34.9631C11 34.1676 11.3159 33.4047 11.8784 32.8421L23.8784 20.8421C24.4442 20.2957 25.202 19.9933 25.9886 20.0001C26.7752 20.0069 27.5276 20.3225 28.0838 20.8787C28.64 21.4349 28.9555 22.1873 28.9624 22.9739C28.9692 23.7605 28.6668 24.5183 28.1204 25.0841L21.2414 31.9631H55.9994C56.795 31.9631 57.5581 32.2792 58.1207 32.8418C58.6833 33.4044 58.9994 34.1675 58.9994 34.9631C58.9994 35.7588 58.6833 36.5218 58.1207 37.0845C57.5581 37.6471 56.795 37.9631 55.9994 37.9631H21.2414L28.1204 44.8421C28.6828 45.4047 28.9987 46.1676 28.9987 46.9631C28.9987 47.7586 28.6828 48.5216 28.1204 49.0841Z" fill="black"/>
</svg>
