<svg width="70" height="77" viewBox="0 0 70 77" fill="none" xmlns="http://www.w3.org/2000/svg">
<rect x="1" y="1" width="68" height="68" rx="19" fill="#313131" stroke="black" stroke-width="2"/>
<path d="M35.7273 62.6364C32.6061 62.6364 29.8485 62.0833 27.4545 60.9773C25.0758 59.8561 23.2197 58.3182 21.8864 56.3636C20.553 54.3939 19.8939 52.1515 19.9091 49.6364C19.8939 47.6667 20.2803 45.8485 21.0682 44.1818C21.8561 42.5 22.9318 41.0985 24.2955 39.9773C25.6742 38.8409 27.2121 38.1212 28.9091 37.8182V37.5455C26.6818 36.9697 24.9091 35.7197 23.5909 33.7955C22.2727 31.8561 21.6212 29.6515 21.6364 27.1818C21.6212 24.8182 22.2197 22.7045 23.4318 20.8409C24.6439 18.9773 26.3106 17.5076 28.4318 16.4318C30.5682 15.3561 33 14.8182 35.7273 14.8182C38.4242 14.8182 40.8333 15.3561 42.9545 16.4318C45.0758 17.5076 46.7424 18.9773 47.9545 20.8409C49.1818 22.7045 49.803 24.8182 49.8182 27.1818C49.803 29.6515 49.1288 31.8561 47.7955 33.7955C46.4773 35.7197 44.7273 36.9697 42.5455 37.5455V37.8182C44.2273 38.1212 45.7424 38.8409 47.0909 39.9773C48.4394 41.0985 49.5152 42.5 50.3182 44.1818C51.1212 45.8485 51.5303 47.6667 51.5455 49.6364C51.5303 52.1515 50.8485 54.3939 49.5 56.3636C48.1667 58.3182 46.3106 59.8561 43.9318 60.9773C41.5682 62.0833 38.8333 62.6364 35.7273 62.6364ZM35.7273 57.6364C37.8333 57.6364 39.6515 57.2955 41.1818 56.6136C42.7121 55.9318 43.8939 54.9697 44.7273 53.7273C45.5606 52.4848 45.9848 51.0303 46 49.3636C45.9848 47.6061 45.5303 46.053 44.6364 44.7045C43.7424 43.3561 42.5227 42.2955 40.9773 41.5227C39.447 40.75 37.697 40.3636 35.7273 40.3636C33.7424 40.3636 31.9697 40.75 30.4091 41.5227C28.8636 42.2955 27.6439 43.3561 26.75 44.7045C25.8712 46.053 25.4394 47.6061 25.4545 49.3636C25.4394 51.0303 25.8409 52.4848 26.6591 53.7273C27.4924 54.9697 28.6818 55.9318 30.2273 56.6136C31.7727 57.2955 33.6061 57.6364 35.7273 57.6364ZM35.7273 35.5455C37.3939 35.5455 38.8712 35.2121 40.1591 34.5455C41.4621 33.8788 42.4848 32.947 43.2273 31.75C43.9697 30.553 44.3485 29.1515 44.3636 27.5455C44.3485 25.9697 43.9773 24.5985 43.25 23.4318C42.5227 22.25 41.5152 21.3409 40.2273 20.7045C38.9394 20.053 37.4394 19.7273 35.7273 19.7273C33.9848 19.7273 32.4621 20.053 31.1591 20.7045C29.8561 21.3409 28.8485 22.25 28.1364 23.4318C27.4242 24.5985 27.0758 25.9697 27.0909 27.5455C27.0758 29.1515 27.4318 30.553 28.1591 31.75C28.9015 32.947 29.9242 33.8788 31.2273 34.5455C32.5303 35.2121 34.0303 35.5455 35.7273 35.5455Z" fill="#EDF2F5"/>
</svg>
