<svg width="70" height="77" viewBox="0 0 70 77" fill="none" xmlns="http://www.w3.org/2000/svg">
<rect x="1" y="1" width="68" height="68" rx="19" fill="#313131" stroke="black" stroke-width="2"/>
<path d="M35.3636 62.6364C32.697 62.6364 30.2955 62.1061 28.1591 61.0455C26.0227 59.9848 24.3106 58.5303 23.0227 56.6818C21.7348 54.8333 21.0303 52.7273 20.9091 50.3636H26.3636C26.5758 52.4697 27.5303 54.2121 29.2273 55.5909C30.9394 56.9545 32.9848 57.6364 35.3636 57.6364C37.2727 57.6364 38.9697 57.1894 40.4545 56.2955C41.9545 55.4015 43.1288 54.1742 43.9773 52.6136C44.8409 51.0379 45.2727 49.2576 45.2727 47.2727C45.2727 45.2424 44.8258 43.4318 43.9318 41.8409C43.053 40.2348 41.8409 38.9697 40.2955 38.0455C38.75 37.1212 36.9848 36.6515 35 36.6364C33.5758 36.6212 32.1136 36.8409 30.6136 37.2955C29.1136 37.7348 27.8788 38.303 26.9091 39L21.6364 38.3636L24.4545 15.4545H48.6364V20.4545H29.1818L27.5455 34.1818H27.8182C28.7727 33.4242 29.9697 32.7955 31.4091 32.2955C32.8485 31.7955 34.3485 31.5455 35.9091 31.5455C38.7576 31.5455 41.2955 32.2273 43.5227 33.5909C45.7652 34.9394 47.5227 36.7879 48.7955 39.1364C50.0833 41.4848 50.7273 44.1667 50.7273 47.1818C50.7273 50.1515 50.0606 52.803 48.7273 55.1364C47.4091 57.4545 45.5909 59.2879 43.2727 60.6364C40.9545 61.9697 38.3182 62.6364 35.3636 62.6364Z" fill="#EDF2F5"/>
</svg>
