<svg width="70" height="77" viewBox="0 0 70 77" fill="none" xmlns="http://www.w3.org/2000/svg">
<rect x="1" y="2" width="68" height="68" rx="19" fill="#313131" stroke="black" stroke-width="2"/>
<path d="M35.5455 62.6364C32.5455 62.6364 29.8712 62.1212 27.5227 61.0909C25.1894 60.0606 23.3333 58.6288 21.9545 56.7955C20.5909 54.947 19.8485 52.803 19.7273 50.3636H25.4545C25.5758 51.8636 26.0909 53.1591 27 54.25C27.9091 55.3258 29.0985 56.1591 30.5682 56.75C32.0379 57.3409 33.6667 57.6364 35.4545 57.6364C37.4545 57.6364 39.2273 57.2879 40.7727 56.5909C42.3182 55.8939 43.5303 54.9242 44.4091 53.6818C45.2879 52.4394 45.7273 51 45.7273 49.3636C45.7273 47.6515 45.303 46.1439 44.4545 44.8409C43.6061 43.5227 42.3636 42.4924 40.7273 41.75C39.0909 41.0076 37.0909 40.6364 34.7273 40.6364H31V35.6364H34.7273C36.5758 35.6364 38.197 35.303 39.5909 34.6364C41 33.9697 42.0985 33.0303 42.8864 31.8182C43.6894 30.6061 44.0909 29.1818 44.0909 27.5455C44.0909 25.9697 43.7424 24.5985 43.0455 23.4318C42.3485 22.2651 41.3636 21.3561 40.0909 20.7045C38.8333 20.053 37.3485 19.7273 35.6364 19.7273C34.0303 19.7273 32.5152 20.0227 31.0909 20.6136C29.6818 21.1894 28.5303 22.0303 27.6364 23.1364C26.7424 24.2273 26.2576 25.5455 26.1818 27.0909H20.7273C20.8182 24.6515 21.553 22.5151 22.9318 20.6818C24.3106 18.8333 26.1136 17.3939 28.3409 16.3636C30.5833 15.3333 33.0455 14.8182 35.7273 14.8182C38.6061 14.8182 41.0758 15.4015 43.1364 16.5682C45.197 17.7197 46.7803 19.2424 47.8864 21.1364C48.9924 23.0303 49.5455 25.0758 49.5455 27.2727C49.5455 29.8939 48.8561 32.1288 47.4773 33.9773C46.1136 35.8258 44.2576 37.1061 41.9091 37.8182V38.1818C44.8485 38.6667 47.1439 39.9167 48.7955 41.9318C50.447 43.9318 51.2727 46.4091 51.2727 49.3636C51.2727 51.8939 50.5833 54.1667 49.2045 56.1818C47.8409 58.1818 45.9773 59.7576 43.6136 60.9091C41.25 62.0606 38.5606 62.6364 35.5455 62.6364Z" fill="#EDF2F5"/>
</svg>
