<svg width="304" height="79" viewBox="0 0 304 79" fill="none" xmlns="http://www.w3.org/2000/svg">
<path d="M2 39.5C2 18.7893 18.7893 2 39.5 2H264.5C285.211 2 302 18.7893 302 39.5V39.5C302 60.2107 285.211 77 264.5 77H39.5C18.7893 77 2 60.2107 2 39.5V39.5Z" fill="#B2FF0F" fill-opacity="0.74" stroke="black" stroke-width="3"/>
<path d="M77.5455 35H74.7273C74.5606 34.1894 74.2689 33.4773 73.8523 32.8636C73.4432 32.25 72.9432 31.7348 72.3523 31.3182C71.7689 30.8939 71.1212 30.5758 70.4091 30.3636C69.697 30.1515 68.9545 30.0455 68.1818 30.0455C66.7727 30.0455 65.4962 30.4015 64.3523 31.1136C63.2159 31.8258 62.3106 32.875 61.6364 34.2614C60.9697 35.6477 60.6364 37.3485 60.6364 39.3636C60.6364 41.3788 60.9697 43.0795 61.6364 44.4659C62.3106 45.8523 63.2159 46.9015 64.3523 47.6136C65.4962 48.3258 66.7727 48.6818 68.1818 48.6818C68.9545 48.6818 69.697 48.5758 70.4091 48.3636C71.1212 48.1515 71.7689 47.8371 72.3523 47.4205C72.9432 46.9962 73.4432 46.4773 73.8523 45.8636C74.2689 45.2424 74.5606 44.5303 74.7273 43.7273H77.5455C77.3333 44.9167 76.947 45.9811 76.3864 46.9205C75.8258 47.8598 75.1288 48.6591 74.2955 49.3182C73.4621 49.9697 72.5265 50.4659 71.4886 50.8068C70.4583 51.1477 69.3561 51.3182 68.1818 51.3182C66.197 51.3182 64.4318 50.8333 62.8864 49.8636C61.3409 48.8939 60.125 47.5152 59.2386 45.7273C58.3523 43.9394 57.9091 41.8182 57.9091 39.3636C57.9091 36.9091 58.3523 34.7879 59.2386 33C60.125 31.2121 61.3409 29.8333 62.8864 28.8636C64.4318 27.8939 66.197 27.4091 68.1818 27.4091C69.3561 27.4091 70.4583 27.5795 71.4886 27.9205C72.5265 28.2614 73.4621 28.7614 74.2955 29.4205C75.1288 30.072 75.8258 30.8674 76.3864 31.8068C76.947 32.7386 77.3333 33.803 77.5455 35ZM83.054 51H80.0994L88.6449 27.7273H91.554L100.099 51H97.1449L90.1903 31.4091H90.0085L83.054 51ZM84.1449 41.9091H96.054V44.4091H84.1449V41.9091ZM103.724 51V27.7273H106.543V48.5H117.361V51H103.724ZM139.545 35H136.727C136.561 34.1894 136.269 33.4773 135.852 32.8636C135.443 32.25 134.943 31.7348 134.352 31.3182C133.769 30.8939 133.121 30.5758 132.409 30.3636C131.697 30.1515 130.955 30.0455 130.182 30.0455C128.773 30.0455 127.496 30.4015 126.352 31.1136C125.216 31.8258 124.311 32.875 123.636 34.2614C122.97 35.6477 122.636 37.3485 122.636 39.3636C122.636 41.3788 122.97 43.0795 123.636 44.4659C124.311 45.8523 125.216 46.9015 126.352 47.6136C127.496 48.3258 128.773 48.6818 130.182 48.6818C130.955 48.6818 131.697 48.5758 132.409 48.3636C133.121 48.1515 133.769 47.8371 134.352 47.4205C134.943 46.9962 135.443 46.4773 135.852 45.8636C136.269 45.2424 136.561 44.5303 136.727 43.7273H139.545C139.333 44.9167 138.947 45.9811 138.386 46.9205C137.826 47.8598 137.129 48.6591 136.295 49.3182C135.462 49.9697 134.527 50.4659 133.489 50.8068C132.458 51.1477 131.356 51.3182 130.182 51.3182C128.197 51.3182 126.432 50.8333 124.886 49.8636C123.341 48.8939 122.125 47.5152 121.239 45.7273C120.352 43.9394 119.909 41.8182 119.909 39.3636C119.909 36.9091 120.352 34.7879 121.239 33C122.125 31.2121 123.341 29.8333 124.886 28.8636C126.432 27.8939 128.197 27.4091 130.182 27.4091C131.356 27.4091 132.458 27.5795 133.489 27.9205C134.527 28.2614 135.462 28.7614 136.295 29.4205C137.129 30.072 137.826 30.8674 138.386 31.8068C138.947 32.7386 139.333 33.803 139.545 35ZM159.372 27.7273H162.19V43.1364C162.19 44.7273 161.815 46.1477 161.065 47.3977C160.323 48.6402 159.274 49.6212 157.918 50.3409C156.562 51.053 154.971 51.4091 153.145 51.4091C151.319 51.4091 149.728 51.053 148.372 50.3409C147.016 49.6212 145.963 48.6402 145.213 47.3977C144.471 46.1477 144.099 44.7273 144.099 43.1364V27.7273H146.918V42.9091C146.918 44.0455 147.168 45.0568 147.668 45.9432C148.168 46.822 148.88 47.5152 149.804 48.0227C150.736 48.5227 151.849 48.7727 153.145 48.7727C154.44 48.7727 155.554 48.5227 156.486 48.0227C157.418 47.5152 158.13 46.822 158.622 45.9432C159.122 45.0568 159.372 44.0455 159.372 42.9091V27.7273ZM167.818 51V27.7273H170.636V48.5H181.455V51H167.818ZM188.241 51H185.287L193.832 27.7273H196.741L205.287 51H202.332L195.378 31.4091H195.196L188.241 51ZM189.332 41.9091H201.241V44.4091H189.332V41.9091ZM204.92 30.2273V27.7273H222.375V30.2273H215.057V51H212.239V30.2273H204.92ZM226.724 51V27.7273H240.77V30.2273H229.543V38.0909H240.043V40.5909H229.543V48.5H240.952V51H226.724Z" fill="black"/>
</svg>
