<svg width="216" height="52" viewBox="0 0 216 52" fill="none" xmlns="http://www.w3.org/2000/svg">
<g filter="url(#filter0_d_46_2)">
<path d="M4 20C4 8.9543 12.9543 0 24 0H192C203.046 0 212 8.95431 212 20V24C212 35.0457 203.046 44 192 44H24C12.9543 44 4 35.0457 4 24V20Z" fill="#F8F8F8"/>
</g>
<g filter="url(#filter1_d_46_2)">
<path d="M76.392 30H73.5966L79.8778 12.5455H82.9205L89.2017 30H86.4062L81.4716 15.7159H81.3352L76.392 30ZM76.8608 23.1648H85.929V25.3807H76.8608V23.1648ZM91.7223 30V12.5455H98.1143C99.353 12.5455 100.379 12.75 101.191 13.1591C102.004 13.5625 102.612 14.1108 103.015 14.804C103.418 15.4915 103.62 16.267 103.62 17.1307C103.62 17.858 103.487 18.4716 103.219 18.9716C102.952 19.4659 102.594 19.8636 102.146 20.1648C101.702 20.4602 101.214 20.6761 100.68 20.8125V20.983C101.259 21.0114 101.825 21.1989 102.376 21.5455C102.933 21.8864 103.393 22.3722 103.756 23.0028C104.12 23.6335 104.302 24.4006 104.302 25.304C104.302 26.196 104.092 26.9972 103.671 27.7074C103.256 28.4119 102.614 28.9716 101.745 29.3864C100.876 29.7955 99.7649 30 98.4126 30H91.7223ZM94.3558 27.7415H98.157C99.4183 27.7415 100.322 27.4972 100.867 27.0085C101.413 26.5199 101.685 25.9091 101.685 25.1761C101.685 24.625 101.546 24.1193 101.268 23.6591C100.989 23.1989 100.592 22.8324 100.075 22.5597C99.5632 22.2869 98.9553 22.1506 98.2507 22.1506H94.3558V27.7415ZM94.3558 20.0966H97.8842C98.4751 20.0966 99.0064 19.983 99.478 19.7557C99.9553 19.5284 100.333 19.2102 100.612 18.8011C100.896 18.3864 101.038 17.8977 101.038 17.3352C101.038 16.6136 100.785 16.0085 100.279 15.5199C99.7734 15.0312 98.9979 14.7869 97.9524 14.7869H94.3558V20.0966ZM107.425 30V12.5455H113.647C114.999 12.5455 116.121 12.7784 117.013 13.2443C117.911 13.7102 118.582 14.3551 119.025 15.179C119.468 15.9972 119.69 16.9432 119.69 18.017C119.69 19.0852 119.465 20.0256 119.016 20.8381C118.573 21.6449 117.903 22.2727 117.005 22.7216C116.113 23.1705 114.991 23.3949 113.638 23.3949H108.925V21.1278H113.4C114.252 21.1278 114.945 21.0057 115.479 20.7614C116.019 20.517 116.414 20.1619 116.664 19.696C116.914 19.2301 117.039 18.6705 117.039 18.017C117.039 17.358 116.911 16.7869 116.656 16.304C116.406 15.821 116.011 15.4517 115.471 15.196C114.937 14.9347 114.235 14.804 113.366 14.804H110.059V30H107.425ZM116.042 22.125L120.354 30H117.354L113.127 22.125H116.042ZM125.528 12.5455V30H122.894V12.5455H125.528ZM129.363 30V12.5455H135.585C136.937 12.5455 138.059 12.7784 138.951 13.2443C139.849 13.7102 140.519 14.3551 140.962 15.179C141.406 15.9972 141.627 16.9432 141.627 18.017C141.627 19.0852 141.403 20.0256 140.954 20.8381C140.511 21.6449 139.84 22.2727 138.942 22.7216C138.05 23.1705 136.928 23.3949 135.576 23.3949H130.863V21.1278H135.337C136.19 21.1278 136.883 21.0057 137.417 20.7614C137.957 20.517 138.352 20.1619 138.602 19.696C138.852 19.2301 138.977 18.6705 138.977 18.017C138.977 17.358 138.849 16.7869 138.593 16.304C138.343 15.821 137.948 15.4517 137.408 15.196C136.874 14.9347 136.173 14.804 135.303 14.804H131.996V30H129.363ZM137.979 22.125L142.292 30H139.292L135.065 22.125H137.979Z" fill="black"/>
</g>
<defs>
<filter id="filter0_d_46_2" x="0" y="0" width="216" height="52" filterUnits="userSpaceOnUse" color-interpolation-filters="sRGB">
<feFlood flood-opacity="0" result="BackgroundImageFix"/>
<feColorMatrix in="SourceAlpha" type="matrix" values="0 0 0 0 0 0 0 0 0 0 0 0 0 0 0 0 0 0 127 0" result="hardAlpha"/>
<feOffset dy="4"/>
<feGaussianBlur stdDeviation="2"/>
<feComposite in2="hardAlpha" operator="out"/>
<feColorMatrix type="matrix" values="0 0 0 0 0 0 0 0 0 0 0 0 0 0 0 0 0 0 0.25 0"/>
<feBlend mode="normal" in2="BackgroundImageFix" result="effect1_dropShadow_46_2"/>
<feBlend mode="normal" in="SourceGraphic" in2="effect1_dropShadow_46_2" result="shape"/>
</filter>
<filter id="filter1_d_46_2" x="69.5966" y="12.5455" width="76.6953" height="25.4545" filterUnits="userSpaceOnUse" color-interpolation-filters="sRGB">
<feFlood flood-opacity="0" result="BackgroundImageFix"/>
<feColorMatrix in="SourceAlpha" type="matrix" values="0 0 0 0 0 0 0 0 0 0 0 0 0 0 0 0 0 0 127 0" result="hardAlpha"/>
<feOffset dy="4"/>
<feGaussianBlur stdDeviation="2"/>
<feComposite in2="hardAlpha" operator="out"/>
<feColorMatrix type="matrix" values="0 0 0 0 0 0 0 0 0 0 0 0 0 0 0 0 0 0 0.25 0"/>
<feBlend mode="normal" in2="BackgroundImageFix" result="effect1_dropShadow_46_2"/>
<feBlend mode="normal" in="SourceGraphic" in2="effect1_dropShadow_46_2" result="shape"/>
</filter>
</defs>
</svg>
