<svg width="420" height="700" viewBox="0 0 420 700" fill="none" xmlns="http://www.w3.org/2000/svg">
<rect width="420" height="700" fill="#E5E5E5"/>
<rect width="420" height="700" rx="20" fill="black"/>
<path d="M131.438 42C131.438 43.6875 131.133 45.1458 130.523 46.375C129.914 47.6042 129.078 48.5521 128.016 49.2188C126.953 49.8854 125.74 50.2187 124.375 50.2187C123.01 50.2187 121.797 49.8854 120.734 49.2188C119.672 48.5521 118.836 47.6042 118.227 46.375C117.617 45.1458 117.313 43.6875 117.313 42C117.313 40.3125 117.617 38.8542 118.227 37.625C118.836 36.3958 119.672 35.4479 120.734 34.7812C121.797 34.1146 123.01 33.7812 124.375 33.7812C125.74 33.7812 126.953 34.1146 128.016 34.7812C129.078 35.4479 129.914 36.3958 130.523 37.625C131.133 38.8542 131.438 40.3125 131.438 42ZM129.563 42C129.563 40.6146 129.331 39.4453 128.867 38.4922C128.409 37.5391 127.786 36.8177 127 36.3281C126.219 35.8385 125.344 35.5937 124.375 35.5937C123.406 35.5937 122.529 35.8385 121.742 36.3281C120.961 36.8177 120.339 37.5391 119.875 38.4922C119.417 39.4453 119.188 40.6146 119.188 42C119.188 43.3854 119.417 44.5547 119.875 45.5078C120.339 46.4609 120.961 47.1823 121.742 47.6719C122.529 48.1615 123.406 48.4062 124.375 48.4062C125.344 48.4062 126.219 48.1615 127 47.6719C127.786 47.1823 128.409 46.4609 128.867 45.5078C129.331 44.5547 129.563 43.3854 129.563 42ZM134.695 50V34H140.289C141.404 34 142.323 34.1927 143.047 34.5781C143.771 34.9583 144.31 35.4714 144.664 36.1172C145.018 36.7578 145.195 37.4687 145.195 38.25C145.195 38.9375 145.073 39.5052 144.828 39.9531C144.589 40.401 144.271 40.7552 143.875 41.0156C143.484 41.276 143.06 41.4687 142.602 41.5937V41.75C143.091 41.7812 143.583 41.9531 144.078 42.2656C144.573 42.5781 144.987 43.026 145.32 43.6094C145.654 44.1927 145.82 44.9062 145.82 45.75C145.82 46.5521 145.638 47.2734 145.273 47.9141C144.909 48.5547 144.333 49.0625 143.547 49.4375C142.76 49.8125 141.737 50 140.477 50H134.695ZM136.633 48.2812H140.477C141.742 48.2812 142.641 48.0365 143.172 47.5469C143.708 47.0521 143.977 46.4531 143.977 45.75C143.977 45.2083 143.839 44.7083 143.563 44.25C143.286 43.7865 142.893 43.4167 142.383 43.1406C141.872 42.8594 141.268 42.7188 140.57 42.7188H136.633V48.2812ZM136.633 41.0312H140.227C140.81 41.0312 141.336 40.9167 141.805 40.6875C142.279 40.4583 142.654 40.1354 142.93 39.7187C143.211 39.3021 143.352 38.8125 143.352 38.25C143.352 37.5469 143.107 36.9505 142.617 36.4609C142.128 35.9661 141.352 35.7187 140.289 35.7187H136.633V41.0312ZM155.129 34H157.066V45.4375C157.066 46.4583 156.879 47.3255 156.504 48.0391C156.129 48.7526 155.6 49.2943 154.918 49.6641C154.236 50.0339 153.431 50.2187 152.504 50.2187C151.629 50.2187 150.85 50.0599 150.168 49.7422C149.486 49.4193 148.949 48.9609 148.559 48.3672C148.168 47.7734 147.973 47.0677 147.973 46.25H149.879C149.879 46.7031 149.991 47.099 150.215 47.4375C150.444 47.7708 150.757 48.0312 151.152 48.2187C151.548 48.4062 151.999 48.5 152.504 48.5C153.061 48.5 153.535 48.3828 153.926 48.1484C154.316 47.9141 154.613 47.5703 154.816 47.1172C155.025 46.6589 155.129 46.099 155.129 45.4375V34ZM160.949 50V34H170.605V35.7187H162.887V41.125H170.105V42.8437H162.887V48.2812H170.73V50H160.949ZM186.973 39H185.035C184.921 38.4427 184.72 37.9531 184.434 37.5312C184.152 37.1094 183.809 36.7552 183.402 36.4688C183.001 36.1771 182.556 35.9583 182.066 35.8125C181.577 35.6667 181.066 35.5937 180.535 35.5937C179.566 35.5937 178.689 35.8385 177.902 36.3281C177.121 36.8177 176.499 37.5391 176.035 38.4922C175.577 39.4453 175.348 40.6146 175.348 42C175.348 43.3854 175.577 44.5547 176.035 45.5078C176.499 46.4609 177.121 47.1823 177.902 47.6719C178.689 48.1615 179.566 48.4062 180.535 48.4062C181.066 48.4062 181.577 48.3333 182.066 48.1875C182.556 48.0417 183.001 47.8255 183.402 47.5391C183.809 47.2474 184.152 46.8906 184.434 46.4687C184.72 46.0417 184.921 45.5521 185.035 45H186.973C186.827 45.8177 186.561 46.5495 186.176 47.1953C185.79 47.8411 185.311 48.3906 184.738 48.8437C184.165 49.2917 183.522 49.6328 182.809 49.8672C182.1 50.1016 181.342 50.2187 180.535 50.2187C179.171 50.2187 177.957 49.8854 176.895 49.2188C175.832 48.5521 174.996 47.6042 174.387 46.375C173.777 45.1458 173.473 43.6875 173.473 42C173.473 40.3125 173.777 38.8542 174.387 37.625C174.996 36.3958 175.832 35.4479 176.895 34.7812C177.957 34.1146 179.171 33.7812 180.535 33.7812C181.342 33.7812 182.1 33.8984 182.809 34.1328C183.522 34.3672 184.165 34.7109 184.738 35.1641C185.311 35.612 185.79 36.1589 186.176 36.8047C186.561 37.4453 186.827 38.1771 186.973 39ZM189.229 35.7187V34H201.229V35.7187H196.197V50H194.26V35.7187H189.229Z" fill="black"/>
<path d="M211.063 34L215.813 47.4687H216L220.75 34H222.781L216.906 50H214.906L209.031 34H211.063ZM225.273 50V34H234.93V35.7187H227.211V41.125H234.43V42.8437H227.211V48.2812H235.055V50H225.273ZM238.422 50V34H240.359V41.125H248.891V34H250.828V50H248.891V42.8437H240.359V50H238.422ZM256.645 34V50H254.707V34H256.645ZM273.404 39H271.467C271.352 38.4427 271.152 37.9531 270.865 37.5312C270.584 37.1094 270.24 36.7552 269.834 36.4688C269.433 36.1771 268.988 35.9583 268.498 35.8125C268.008 35.6667 267.498 35.5937 266.967 35.5937C265.998 35.5937 265.12 35.8385 264.334 36.3281C263.553 36.8177 262.93 37.5391 262.467 38.4922C262.008 39.4453 261.779 40.6146 261.779 42C261.779 43.3854 262.008 44.5547 262.467 45.5078C262.93 46.4609 263.553 47.1823 264.334 47.6719C265.12 48.1615 265.998 48.4062 266.967 48.4062C267.498 48.4062 268.008 48.3333 268.498 48.1875C268.988 48.0417 269.433 47.8255 269.834 47.5391C270.24 47.2474 270.584 46.8906 270.865 46.4687C271.152 46.0417 271.352 45.5521 271.467 45H273.404C273.258 45.8177 272.993 46.5495 272.607 47.1953C272.222 47.8411 271.743 48.3906 271.17 48.8437C270.597 49.2917 269.954 49.6328 269.24 49.8672C268.532 50.1016 267.774 50.2187 266.967 50.2187C265.602 50.2187 264.389 49.8854 263.326 49.2188C262.264 48.5521 261.428 47.6042 260.818 46.375C260.209 45.1458 259.904 43.6875 259.904 42C259.904 40.3125 260.209 38.8542 260.818 37.625C261.428 36.3958 262.264 35.4479 263.326 34.7812C264.389 34.1146 265.602 33.7812 266.967 33.7812C267.774 33.7812 268.532 33.8984 269.24 34.1328C269.954 34.3672 270.597 34.7109 271.17 35.1641C271.743 35.612 272.222 36.1589 272.607 36.8047C272.993 37.4453 273.258 38.1771 273.404 39ZM276.535 50V34H278.473V48.2812H285.91V50H276.535ZM288.91 50V34H298.566V35.7187H290.848V41.125H298.066V42.8437H290.848V48.2812H298.691V50H288.91Z" fill="#F9CE3B"/>
<path d="M130.523 46.375L129.627 45.9308L130.523 46.375ZM128.016 49.2188L128.547 50.0658L128.547 50.0658L128.016 49.2188ZM120.734 49.2188L120.203 50.0658L120.734 49.2188ZM118.227 46.375L119.123 45.9308H119.123L118.227 46.375ZM128.016 34.7812L128.547 33.9342L128.016 34.7812ZM130.523 37.625L129.627 38.0692L130.523 37.625ZM128.867 38.4922L127.966 38.9256L127.968 38.9295L128.867 38.4922ZM127 36.3281L126.469 37.1755L126.472 37.1771L127 36.3281ZM121.742 36.3281L121.214 35.4792L121.211 35.4808L121.742 36.3281ZM119.875 38.4922L118.976 38.0548L118.974 38.0588L119.875 38.4922ZM119.875 45.5078L118.974 45.9412L118.976 45.9452L119.875 45.5078ZM121.742 47.6719L121.211 48.5192L121.214 48.5208L121.742 47.6719ZM127 47.6719L126.472 46.8229L126.469 46.8245L127 47.6719ZM128.867 45.5078L127.968 45.0704L127.966 45.0744L128.867 45.5078ZM130.438 42C130.438 43.5682 130.154 44.8678 129.627 45.9308L131.419 46.8192C132.111 45.4238 132.438 43.8068 132.438 42H130.438ZM129.627 45.9308C129.092 47.0107 128.376 47.8122 127.484 48.3717L128.547 50.0658C129.78 49.292 130.736 48.1977 131.419 46.8192L129.627 45.9308ZM127.484 48.3717C126.595 48.9297 125.569 49.2188 124.375 49.2188V51.2188C125.91 51.2188 127.311 50.8412 128.547 50.0658L127.484 48.3717ZM124.375 49.2188C123.181 49.2188 122.155 48.9297 121.266 48.3717L120.203 50.0658C121.439 50.8412 122.84 51.2188 124.375 51.2188V49.2188ZM121.266 48.3717C120.374 47.8122 119.658 47.0107 119.123 45.9308L117.331 46.8192C118.014 48.1977 118.97 49.292 120.203 50.0658L121.266 48.3717ZM119.123 45.9308C118.596 44.8678 118.312 43.5682 118.312 42H116.313C116.313 43.8068 116.639 45.4238 117.331 46.8192L119.123 45.9308ZM118.312 42C118.312 40.4318 118.596 39.1322 119.123 38.0692L117.331 37.1808C116.639 38.5762 116.313 40.1932 116.313 42H118.312ZM119.123 38.0692C119.658 36.9893 120.374 36.1878 121.266 35.6283L120.203 33.9342C118.97 34.708 118.014 35.8023 117.331 37.1808L119.123 38.0692ZM121.266 35.6283C122.155 35.0703 123.181 34.7812 124.375 34.7812V32.7812C122.84 32.7812 121.439 33.1588 120.203 33.9342L121.266 35.6283ZM124.375 34.7812C125.569 34.7812 126.595 35.0703 127.484 35.6283L128.547 33.9342C127.311 33.1588 125.91 32.7812 124.375 32.7812V34.7812ZM127.484 35.6283C128.376 36.1878 129.092 36.9893 129.627 38.0692L131.419 37.1808C130.736 35.8023 129.78 34.708 128.547 33.9342L127.484 35.6283ZM129.627 38.0692C130.154 39.1322 130.438 40.4318 130.438 42H132.438C132.438 40.1932 132.111 38.5762 131.419 37.1808L129.627 38.0692ZM130.563 42C130.563 40.5078 130.313 39.1794 129.766 38.0548L127.968 38.9295C128.348 39.7112 128.563 40.7214 128.563 42H130.563ZM129.768 38.0588C129.24 36.9594 128.498 36.0827 127.528 35.4792L126.472 37.1771C127.075 37.5527 127.578 38.1187 127.966 38.9256L129.768 38.0588ZM127.531 35.4808C126.582 34.8863 125.522 34.5937 124.375 34.5937V36.5938C125.166 36.5938 125.855 36.7908 126.469 37.1755L127.531 35.4808ZM124.375 34.5937C123.228 34.5937 122.166 34.8862 121.214 35.4792L122.271 37.1771C122.891 36.7908 123.584 36.5938 124.375 36.5938V34.5937ZM121.211 35.4808C120.249 36.084 119.509 36.959 118.976 38.0548L120.774 38.9295C121.168 38.1191 121.673 37.5514 122.273 37.1755L121.211 35.4808ZM118.974 38.0588C118.434 39.1823 118.188 40.5092 118.188 42H120.188C120.188 40.72 120.4 39.7083 120.776 38.9256L118.974 38.0588ZM118.188 42C118.188 43.4908 118.434 44.8177 118.974 45.9412L120.776 45.0744C120.4 44.2917 120.188 43.28 120.188 42H118.188ZM118.976 45.9452C119.509 47.041 120.249 47.916 121.211 48.5192L122.273 46.8245C121.673 46.4486 121.168 45.8809 120.774 45.0705L118.976 45.9452ZM121.214 48.5208C122.166 49.1138 123.228 49.4062 124.375 49.4062V47.4062C123.584 47.4062 122.891 47.2092 122.271 46.8229L121.214 48.5208ZM124.375 49.4062C125.522 49.4062 126.582 49.1137 127.531 48.5192L126.469 46.8245C125.855 47.2092 125.166 47.4062 124.375 47.4062V49.4062ZM127.528 48.5208C128.498 47.9173 129.24 47.0406 129.768 45.9412L127.966 45.0744C127.578 45.8813 127.075 46.4473 126.472 46.8229L127.528 48.5208ZM129.766 45.9452C130.313 44.8206 130.563 43.4922 130.563 42H128.563C128.563 43.2786 128.348 44.2888 127.968 45.0705L129.766 45.9452ZM134.695 50H133.695V51H134.695V50ZM134.695 34V33H133.695V34H134.695ZM143.047 34.5781L142.577 35.4608L142.582 35.4635L143.047 34.5781ZM144.664 36.1172L143.787 36.598L143.789 36.601L144.664 36.1172ZM144.828 39.9531L143.951 39.4735L143.946 39.4815L144.828 39.9531ZM143.875 41.0156L143.325 40.1802L143.32 40.1836L143.875 41.0156ZM142.602 41.5938L142.338 40.629L141.602 40.83V41.5938H142.602ZM142.602 41.75H141.602V42.6882L142.538 42.748L142.602 41.75ZM144.078 42.2656L143.544 43.1111V43.1111L144.078 42.2656ZM145.273 47.9141L146.143 48.4087L145.273 47.9141ZM143.547 49.4375L143.116 48.5349L143.547 49.4375ZM136.633 48.2812H135.633V49.2812H136.633V48.2812ZM143.172 47.5469L143.85 48.2822L143.85 48.282L143.172 47.5469ZM143.562 44.25L142.703 44.7617L142.706 44.7659L143.562 44.25ZM142.383 43.1406L141.9 44.0165L141.907 44.0202L142.383 43.1406ZM136.633 42.7188V41.7188H135.633V42.7188H136.633ZM136.633 41.0312H135.633V42.0312H136.633V41.0312ZM141.805 40.6875L141.369 39.7872L141.365 39.7891L141.805 40.6875ZM142.93 39.7188L142.101 39.1593L142.096 39.1665L142.93 39.7188ZM142.617 36.4609L141.906 37.1643L141.91 37.168L142.617 36.4609ZM136.633 35.7187V34.7187H135.633V35.7187H136.633ZM135.695 50V34H133.695V50H135.695ZM134.695 35H140.289V33H134.695V35ZM140.289 35C141.296 35 142.04 35.1751 142.577 35.4608L143.517 33.6954C142.606 33.2103 141.511 33 140.289 33V35ZM142.582 35.4635C143.152 35.7627 143.538 36.1433 143.787 36.598L145.541 35.6364C145.082 34.7994 144.39 34.154 143.512 33.6928L142.582 35.4635ZM143.789 36.601C144.056 37.0836 144.195 37.6262 144.195 38.25H146.195C146.195 37.3113 145.981 36.432 145.539 35.6334L143.789 36.601ZM144.195 38.25C144.195 38.8257 144.092 39.2149 143.951 39.4736L145.706 40.4327C146.054 39.7955 146.195 39.0493 146.195 38.25H144.195ZM143.946 39.4815C143.78 39.7932 143.572 40.018 143.325 40.1802L144.425 41.851C144.97 41.4924 145.398 41.0088 145.71 40.4248L143.946 39.4815ZM143.32 40.1836C143.02 40.3837 142.694 40.5319 142.338 40.629L142.865 42.5585C143.425 42.4056 143.949 42.1684 144.43 41.8477L143.32 40.1836ZM141.602 41.5938V41.75H143.602V41.5938H141.602ZM142.538 42.748C142.831 42.7667 143.164 42.8708 143.544 43.1111L144.612 41.4201C144.003 41.0355 143.351 40.7958 142.665 40.752L142.538 42.748ZM143.544 43.1111C143.881 43.3241 144.188 43.643 144.452 44.1055L146.189 43.1132C145.786 42.4091 145.264 41.8322 144.612 41.4201L143.544 43.1111ZM144.452 44.1055C144.68 44.5037 144.82 45.0364 144.82 45.75H146.82C146.82 44.7761 146.628 43.8817 146.189 43.1132L144.452 44.1055ZM144.82 45.75C144.82 46.3944 144.676 46.9427 144.404 47.4194L146.143 48.4087C146.6 47.6042 146.82 46.7098 146.82 45.75H144.82ZM144.404 47.4194C144.158 47.8519 143.753 48.2314 143.116 48.5349L143.977 50.3401C144.914 49.8936 145.66 49.2574 146.143 48.4087L144.404 47.4194ZM143.116 48.5349C142.511 48.8237 141.65 49 140.477 49V51C141.824 51 143.01 50.8013 143.977 50.3401L143.116 48.5349ZM140.477 49H134.695V51H140.477V49ZM136.633 49.2812H140.477V47.2812H136.633V49.2812ZM140.477 49.2812C141.821 49.2812 143.037 49.0309 143.85 48.2822L142.494 46.8115C142.244 47.042 141.664 47.2812 140.477 47.2812V49.2812ZM143.85 48.282C144.583 47.606 144.977 46.7441 144.977 45.75H142.977C142.977 46.1621 142.834 46.4982 142.494 46.8118L143.85 48.282ZM144.977 45.75C144.977 45.0289 144.79 44.3502 144.419 43.7341L142.706 44.7659C142.887 45.0665 142.977 45.3878 142.977 45.75H144.977ZM144.422 43.7383C144.046 43.1081 143.515 42.6162 142.859 42.261L141.907 44.0202C142.271 44.2172 142.527 44.4648 142.703 44.7617L144.422 43.7383ZM142.865 42.2648C142.181 41.8874 141.404 41.7188 140.57 41.7188V43.7188C141.133 43.7188 141.564 43.8313 141.9 44.0165L142.865 42.2648ZM140.57 41.7188H136.633V43.7188H140.57V41.7188ZM135.633 42.7188V48.2812H137.633V42.7188H135.633ZM136.633 42.0312H140.227V40.0312H136.633V42.0312ZM140.227 42.0312C140.944 42.0312 141.623 41.8894 142.244 41.5859L141.365 39.7891C141.049 39.9439 140.676 40.0312 140.227 40.0312V42.0312ZM142.24 41.5878C142.867 41.2848 143.383 40.8455 143.763 40.271L142.096 39.1665C141.925 39.4254 141.691 39.6318 141.369 39.7872L142.24 41.5878ZM143.759 40.2782C144.164 39.677 144.352 38.9873 144.352 38.25H142.352C142.352 38.6377 142.258 38.9272 142.101 39.1593L143.759 40.2782ZM144.352 38.25C144.352 37.2863 144.005 36.4342 143.324 35.7538L141.91 37.168C142.209 37.4668 142.352 37.8075 142.352 38.25H144.352ZM143.328 35.7576C142.572 34.9932 141.48 34.7187 140.289 34.7187V36.7188C141.223 36.7188 141.683 36.939 141.906 37.1643L143.328 35.7576ZM140.289 34.7187H136.633V36.7188H140.289V34.7187ZM135.633 35.7187V41.0312H137.633V35.7187H135.633ZM155.129 34V33H154.129V34H155.129ZM157.066 34H158.066V33H157.066V34ZM156.504 48.0391L157.389 48.5043L156.504 48.0391ZM154.918 49.6641L155.394 50.5432H155.394L154.918 49.6641ZM150.168 49.7422L149.74 50.6461L149.746 50.6487L150.168 49.7422ZM148.559 48.3672L147.723 48.9168L148.559 48.3672ZM147.973 46.25V45.25H146.973V46.25H147.973ZM149.879 46.25H150.879V45.25H149.879V46.25ZM150.215 47.4375L149.381 47.9892L149.386 47.9967L149.391 48.004L150.215 47.4375ZM151.152 48.2188L151.58 47.315L151.152 48.2188ZM153.926 48.1484L153.411 47.2909L153.926 48.1484ZM154.816 47.1172L153.906 46.7034L153.904 46.7081L154.816 47.1172ZM155.129 35H157.066V33H155.129V35ZM156.066 34V45.4375H158.066V34H156.066ZM156.066 45.4375C156.066 46.3384 155.901 47.037 155.619 47.5738L157.389 48.5043C157.857 47.6141 158.066 46.5783 158.066 45.4375H156.066ZM155.619 47.5738C155.332 48.1191 154.943 48.5133 154.441 48.7849L155.394 50.5432C156.258 50.0752 156.926 49.3861 157.389 48.5043L155.619 47.5738ZM154.441 48.7849C153.931 49.0613 153.297 49.2188 152.504 49.2188V51.2188C153.565 51.2188 154.54 51.0064 155.394 50.5432L154.441 48.7849ZM152.504 49.2188C151.751 49.2188 151.12 49.0826 150.59 48.8357L149.746 50.6487C150.58 51.0372 151.507 51.2188 152.504 51.2188V49.2188ZM150.596 48.8383C150.069 48.5888 149.677 48.2485 149.394 47.8176L147.723 48.9168C148.221 49.6734 148.903 50.2498 149.74 50.6461L150.596 48.8383ZM149.394 47.8176C149.126 47.4105 148.973 46.9025 148.973 46.25H146.973C146.973 47.2329 147.21 48.1363 147.723 48.9168L149.394 47.8176ZM147.973 47.25H149.879V45.25H147.973V47.25ZM148.879 46.25C148.879 46.8757 149.036 47.4684 149.381 47.9892L151.049 46.8858C150.946 46.7295 150.879 46.5306 150.879 46.25H148.879ZM149.391 48.004C149.728 48.4947 150.183 48.8659 150.724 49.1225L151.58 47.315C151.33 47.1966 151.16 47.047 151.039 46.871L149.391 48.004ZM150.724 49.1225C151.273 49.3824 151.873 49.5 152.504 49.5V47.5C152.124 47.5 151.823 47.4301 151.58 47.315L150.724 49.1225ZM152.504 49.5C153.202 49.5 153.863 49.3524 154.44 49.0059L153.411 47.2909C153.207 47.4133 152.92 47.5 152.504 47.5V49.5ZM154.44 49.0059C155.022 48.6568 155.45 48.1484 155.729 47.5262L153.904 46.7081C153.777 46.9922 153.611 47.1713 153.411 47.2909L154.44 49.0059ZM155.727 47.531C156.01 46.9087 156.129 46.1989 156.129 45.4375H154.129C154.129 45.999 154.04 46.409 153.906 46.7034L155.727 47.531ZM156.129 45.4375V34H154.129V45.4375H156.129ZM160.949 50H159.949V51H160.949V50ZM160.949 34V33H159.949V34H160.949ZM170.605 34H171.605V33H170.605V34ZM170.605 35.7187V36.7188H171.605V35.7187H170.605ZM162.887 35.7187V34.7187H161.887V35.7187H162.887ZM162.887 41.125H161.887V42.125H162.887V41.125ZM170.105 41.125H171.105V40.125H170.105V41.125ZM170.105 42.8438V43.8438H171.105V42.8438H170.105ZM162.887 42.8438V41.8438H161.887V42.8438H162.887ZM162.887 48.2812H161.887V49.2812H162.887V48.2812ZM170.73 48.2812H171.73V47.2812H170.73V48.2812ZM170.73 50V51H171.73V50H170.73ZM161.949 50V34H159.949V50H161.949ZM160.949 35H170.605V33H160.949V35ZM169.605 34V35.7187H171.605V34H169.605ZM170.605 34.7187H162.887V36.7188H170.605V34.7187ZM161.887 35.7187V41.125H163.887V35.7187H161.887ZM162.887 42.125H170.105V40.125H162.887V42.125ZM169.105 41.125V42.8438H171.105V41.125H169.105ZM170.105 41.8438H162.887V43.8438H170.105V41.8438ZM161.887 42.8438V48.2812H163.887V42.8438H161.887ZM162.887 49.2812H170.73V47.2812H162.887V49.2812ZM169.73 48.2812V50H171.73V48.2812H169.73ZM170.73 49H160.949V51H170.73V49ZM186.973 39V40H188.165L187.957 38.8255L186.973 39ZM185.035 39L184.056 39.2014L184.22 40H185.035V39ZM184.434 37.5312L183.602 38.086L183.606 38.093L184.434 37.5312ZM183.402 36.4688L182.814 37.2775L182.82 37.2818L182.826 37.286L183.402 36.4688ZM182.066 35.8125L181.781 36.7709L182.066 35.8125ZM177.902 36.3281L177.374 35.4792L177.371 35.4808L177.902 36.3281ZM176.035 38.4922L175.136 38.0548L175.134 38.0588L176.035 38.4922ZM176.035 45.5078L175.134 45.9412L175.136 45.9452L176.035 45.5078ZM177.902 47.6719L177.371 48.5192L177.374 48.5208L177.902 47.6719ZM182.066 48.1875L181.781 47.2291L182.066 48.1875ZM183.402 47.5391L183.984 48.3528L183.986 48.3514L183.402 47.5391ZM184.434 46.4688L183.603 45.9117L183.602 45.914L184.434 46.4688ZM185.035 45V44H184.221L184.056 44.7968L185.035 45ZM186.973 45L187.957 45.1756L188.167 44H186.973V45ZM186.176 47.1953L185.317 46.6829V46.6829L186.176 47.1953ZM184.738 48.8438L185.354 49.6316L185.359 49.6281L184.738 48.8438ZM182.809 49.8672L182.497 48.9171L182.494 48.9178L182.809 49.8672ZM176.895 49.2188L176.363 50.0658L176.895 49.2188ZM174.387 46.375L175.283 45.9308L174.387 46.375ZM182.809 34.1328L182.494 35.0822L182.497 35.0829L182.809 34.1328ZM184.738 35.1641L184.118 35.9484L184.122 35.9519L184.738 35.1641ZM186.176 36.8047L185.317 37.3171L185.319 37.3202L186.176 36.8047ZM186.973 38H185.035V40H186.973V38ZM186.015 38.7986C185.877 38.1273 185.629 37.5122 185.261 36.9695L183.606 38.093C183.811 38.394 183.965 38.7581 184.056 39.2014L186.015 38.7986ZM185.266 36.9765C184.917 36.4542 184.488 36.0104 183.979 35.6515L182.826 37.286C183.13 37.5 183.387 37.7645 183.602 38.086L185.266 36.9765ZM183.991 35.66C183.495 35.2997 182.947 35.0313 182.352 34.8541L181.781 36.7709C182.165 36.8853 182.508 37.0545 182.814 37.2775L183.991 35.66ZM182.352 34.8541C181.766 34.6796 181.159 34.5937 180.535 34.5937V36.5938C180.974 36.5938 181.388 36.6537 181.781 36.7709L182.352 34.8541ZM180.535 34.5937C179.389 34.5937 178.326 34.8862 177.374 35.4792L178.431 37.1771C179.051 36.7908 179.744 36.5938 180.535 36.5938V34.5937ZM177.371 35.4808C176.409 36.084 175.669 36.959 175.136 38.0548L176.934 38.9295C177.329 38.1191 177.833 37.5514 178.433 37.1755L177.371 35.4808ZM175.134 38.0588C174.594 39.1823 174.348 40.5092 174.348 42H176.348C176.348 40.72 176.56 39.7083 176.936 38.9256L175.134 38.0588ZM174.348 42C174.348 43.4908 174.594 44.8177 175.134 45.9412L176.936 45.0744C176.56 44.2917 176.348 43.28 176.348 42H174.348ZM175.136 45.9452C175.669 47.041 176.409 47.916 177.371 48.5192L178.433 46.8245C177.833 46.4486 177.329 45.8809 176.934 45.0705L175.136 45.9452ZM177.374 48.5208C178.326 49.1138 179.389 49.4062 180.535 49.4062V47.4062C179.744 47.4062 179.051 47.2092 178.431 46.8229L177.374 48.5208ZM180.535 49.4062C181.159 49.4062 181.766 49.3204 182.352 49.1459L181.781 47.2291C181.388 47.3463 180.974 47.4062 180.535 47.4062V49.4062ZM182.352 49.1459C182.943 48.9697 183.489 48.7058 183.984 48.3528L182.821 46.7253C182.513 46.9452 182.169 47.1137 181.781 47.2291L182.352 49.1459ZM183.986 48.3514C184.491 47.9885 184.919 47.5441 185.266 47.0235L183.602 45.914C183.386 46.2372 183.126 46.5063 182.819 46.7267L183.986 48.3514ZM185.264 47.0258C185.629 46.4816 185.876 45.8695 186.014 45.2032L184.056 44.7968C183.965 45.2347 183.811 45.6018 183.603 45.9117L185.264 47.0258ZM185.035 46H186.973V44H185.035V46ZM185.988 44.8244C185.861 45.5356 185.634 46.1511 185.317 46.6829L187.034 47.7078C187.488 46.9479 187.792 46.0999 187.957 45.1756L185.988 44.8244ZM185.317 46.6829C184.992 47.2275 184.593 47.6839 184.118 48.0594L185.359 49.6281C186.03 49.0973 186.589 48.4548 187.034 47.7078L185.317 46.6829ZM184.122 48.0559C183.644 48.4303 183.104 48.7177 182.497 48.9171L183.121 50.8172C183.94 50.548 184.687 50.1531 185.354 49.6316L184.122 48.0559ZM182.494 48.9178C181.895 49.116 181.244 49.2188 180.535 49.2188V51.2188C181.44 51.2188 182.305 51.0871 183.123 50.8166L182.494 48.9178ZM180.535 49.2188C179.341 49.2188 178.315 48.9297 177.426 48.3717L176.363 50.0658C177.599 50.8412 179 51.2188 180.535 51.2188V49.2188ZM177.426 48.3717C176.534 47.8122 175.818 47.0107 175.283 45.9308L173.491 46.8192C174.174 48.1977 175.13 49.292 176.363 50.0658L177.426 48.3717ZM175.283 45.9308C174.756 44.8678 174.473 43.5682 174.473 42H172.473C172.473 43.8068 172.799 45.4238 173.491 46.8192L175.283 45.9308ZM174.473 42C174.473 40.4318 174.756 39.1322 175.283 38.0692L173.491 37.1808C172.799 38.5762 172.473 40.1932 172.473 42H174.473ZM175.283 38.0692C175.818 36.9893 176.534 36.1878 177.426 35.6283L176.363 33.9342C175.13 34.708 174.174 35.8023 173.491 37.1808L175.283 38.0692ZM177.426 35.6283C178.315 35.0703 179.341 34.7812 180.535 34.7812V32.7812C179 32.7812 177.599 33.1588 176.363 33.9342L177.426 35.6283ZM180.535 34.7812C181.244 34.7812 181.895 34.884 182.494 35.0822L183.123 33.1834C182.305 32.9129 181.44 32.7812 180.535 32.7812V34.7812ZM182.497 35.0829C183.102 35.2816 183.64 35.5703 184.118 35.9484L185.359 34.3797C184.691 33.8516 183.943 33.4528 183.121 33.1828L182.497 35.0829ZM184.122 35.9519C184.595 36.3212 184.993 36.7736 185.317 37.3171L187.034 36.2922C186.588 35.5441 186.028 34.9028 185.354 34.3763L184.122 35.9519ZM185.319 37.3202C185.634 37.8443 185.861 38.458 185.988 39.1745L187.957 38.8255C187.793 37.8962 187.488 37.0463 187.033 36.2892L185.319 37.3202ZM189.229 35.7187H188.229V36.7188H189.229V35.7187ZM189.229 34V33H188.229V34H189.229ZM201.229 34H202.229V33H201.229V34ZM201.229 35.7187V36.7188H202.229V35.7187H201.229ZM196.197 35.7187V34.7187H195.197V35.7187H196.197ZM196.197 50V51H197.197V50H196.197ZM194.26 50H193.26V51H194.26V50ZM194.26 35.7187H195.26V34.7187H194.26V35.7187ZM190.229 35.7187V34H188.229V35.7187H190.229ZM189.229 35H201.229V33H189.229V35ZM200.229 34V35.7187H202.229V34H200.229ZM201.229 34.7187H196.197V36.7188H201.229V34.7187ZM195.197 35.7187V50H197.197V35.7187H195.197ZM196.197 49H194.26V51H196.197V49ZM195.26 50V35.7187H193.26V50H195.26ZM194.26 34.7187H189.229V36.7188H194.26V34.7187ZM211.062 34L212.006 33.6674L211.77 33H211.062V34ZM215.812 47.4688L214.869 47.8013L215.105 48.4688H215.812V47.4688ZM216 47.4688V48.4688H216.708L216.943 47.8013L216 47.4688ZM220.75 34V33H220.042L219.807 33.6674L220.75 34ZM222.781 34L223.72 34.3447L224.214 33H222.781V34ZM216.906 50V51H217.604L217.845 50.3447L216.906 50ZM214.906 50L213.968 50.3447L214.208 51H214.906V50ZM209.031 34V33H207.599L208.093 34.3447L209.031 34ZM210.119 34.3326L214.869 47.8013L216.756 47.1362L212.006 33.6674L210.119 34.3326ZM215.812 48.4688H216V46.4688H215.812V48.4688ZM216.943 47.8013L221.693 34.3326L219.807 33.6674L215.057 47.1362L216.943 47.8013ZM220.75 35H222.781V33H220.75V35ZM221.843 33.6553L215.968 49.6553L217.845 50.3447L223.72 34.3447L221.843 33.6553ZM216.906 49H214.906V51H216.906V49ZM215.845 49.6553L209.97 33.6553L208.093 34.3447L213.968 50.3447L215.845 49.6553ZM209.031 35H211.062V33H209.031V35ZM225.273 50H224.273V51H225.273V50ZM225.273 34V33H224.273V34H225.273ZM234.93 34H235.93V33H234.93V34ZM234.93 35.7187V36.7188H235.93V35.7187H234.93ZM227.211 35.7187V34.7187H226.211V35.7187H227.211ZM227.211 41.125H226.211V42.125H227.211V41.125ZM234.43 41.125H235.43V40.125H234.43V41.125ZM234.43 42.8438V43.8438H235.43V42.8438H234.43ZM227.211 42.8438V41.8438H226.211V42.8438H227.211ZM227.211 48.2812H226.211V49.2812H227.211V48.2812ZM235.055 48.2812H236.055V47.2812H235.055V48.2812ZM235.055 50V51H236.055V50H235.055ZM226.273 50V34H224.273V50H226.273ZM225.273 35H234.93V33H225.273V35ZM233.93 34V35.7187H235.93V34H233.93ZM234.93 34.7187H227.211V36.7188H234.93V34.7187ZM226.211 35.7187V41.125H228.211V35.7187H226.211ZM227.211 42.125H234.43V40.125H227.211V42.125ZM233.43 41.125V42.8438H235.43V41.125H233.43ZM234.43 41.8438H227.211V43.8438H234.43V41.8438ZM226.211 42.8438V48.2812H228.211V42.8438H226.211ZM227.211 49.2812H235.055V47.2812H227.211V49.2812ZM234.055 48.2812V50H236.055V48.2812H234.055ZM235.055 49H225.273V51H235.055V49ZM238.422 50H237.422V51H238.422V50ZM238.422 34V33H237.422V34H238.422ZM240.359 34H241.359V33H240.359V34ZM240.359 41.125H239.359V42.125H240.359V41.125ZM248.891 41.125V42.125H249.891V41.125H248.891ZM248.891 34V33H247.891V34H248.891ZM250.828 34H251.828V33H250.828V34ZM250.828 50V51H251.828V50H250.828ZM248.891 50H247.891V51H248.891V50ZM248.891 42.8438H249.891V41.8438H248.891V42.8438ZM240.359 42.8438V41.8438H239.359V42.8438H240.359ZM240.359 50V51H241.359V50H240.359ZM239.422 50V34H237.422V50H239.422ZM238.422 35H240.359V33H238.422V35ZM239.359 34V41.125H241.359V34H239.359ZM240.359 42.125H248.891V40.125H240.359V42.125ZM249.891 41.125V34H247.891V41.125H249.891ZM248.891 35H250.828V33H248.891V35ZM249.828 34V50H251.828V34H249.828ZM250.828 49H248.891V51H250.828V49ZM249.891 50V42.8438H247.891V50H249.891ZM248.891 41.8438H240.359V43.8438H248.891V41.8438ZM239.359 42.8438V50H241.359V42.8438H239.359ZM240.359 49H238.422V51H240.359V49ZM256.645 34H257.645V33H256.645V34ZM256.645 50V51H257.645V50H256.645ZM254.707 50H253.707V51H254.707V50ZM254.707 34V33H253.707V34H254.707ZM255.645 34V50H257.645V34H255.645ZM256.645 49H254.707V51H256.645V49ZM255.707 50V34H253.707V50H255.707ZM254.707 35H256.645V33H254.707V35ZM273.404 39V40H274.597L274.389 38.8255L273.404 39ZM271.467 39L270.487 39.2014L270.651 40H271.467V39ZM270.865 37.5312L270.033 38.086L270.038 38.093L270.865 37.5312ZM269.834 36.4688L269.246 37.2775L269.252 37.2818L269.258 37.286L269.834 36.4688ZM268.498 35.8125L268.213 36.7709L268.498 35.8125ZM264.334 36.3281L263.805 35.4792L263.803 35.4808L264.334 36.3281ZM262.467 38.4922L261.568 38.0548L261.566 38.0588L262.467 38.4922ZM262.467 45.5078L261.566 45.9412L261.568 45.9452L262.467 45.5078ZM264.334 47.6719L263.803 48.5192L263.805 48.5208L264.334 47.6719ZM268.498 48.1875L268.213 47.2291L268.498 48.1875ZM269.834 47.5391L270.415 48.3528L270.417 48.3514L269.834 47.5391ZM270.865 46.4688L270.035 45.9117L270.033 45.914L270.865 46.4688ZM271.467 45V44H270.653L270.488 44.7968L271.467 45ZM273.404 45L274.389 45.1756L274.598 44H273.404V45ZM272.607 47.1953L271.749 46.6829V46.6829L272.607 47.1953ZM271.17 48.8438L271.786 49.6316L271.79 49.6281L271.17 48.8438ZM269.24 49.8672L268.928 48.9171L268.926 48.9178L269.24 49.8672ZM263.326 49.2188L262.795 50.0658L263.326 49.2188ZM260.818 46.375L261.714 45.9308L260.818 46.375ZM269.24 34.1328L268.926 35.0822L268.928 35.0829L269.24 34.1328ZM271.17 35.1641L270.55 35.9484L270.554 35.9519L271.17 35.1641ZM272.607 36.8047L271.749 37.3171L271.751 37.3202L272.607 36.8047ZM273.404 38H271.467V40H273.404V38ZM272.446 38.7986C272.308 38.1273 272.061 37.5122 271.693 36.9695L270.038 38.093C270.242 38.394 270.396 38.7581 270.487 39.2014L272.446 38.7986ZM271.697 36.9765C271.349 36.4542 270.919 36.0104 270.41 35.6515L269.258 37.286C269.561 37.5 269.819 37.7645 270.033 38.086L271.697 36.9765ZM270.422 35.66C269.927 35.2997 269.378 35.0313 268.784 34.8541L268.213 36.7709C268.597 36.8853 268.939 37.0545 269.246 37.2775L270.422 35.66ZM268.784 34.8541C268.198 34.6796 267.591 34.5937 266.967 34.5937V36.5938C267.405 36.5938 267.819 36.6537 268.213 36.7709L268.784 34.8541ZM266.967 34.5937C265.82 34.5937 264.758 34.8862 263.805 35.4792L264.862 37.1771C265.483 36.7908 266.176 36.5938 266.967 36.5938V34.5937ZM263.803 35.4808C262.84 36.084 262.1 36.959 261.568 38.0548L263.366 38.9295C263.76 38.1191 264.265 37.5514 264.865 37.1755L263.803 35.4808ZM261.566 38.0588C261.025 39.1823 260.779 40.5092 260.779 42H262.779C262.779 40.72 262.992 39.7083 263.368 38.9256L261.566 38.0588ZM260.779 42C260.779 43.4908 261.025 44.8177 261.566 45.9412L263.368 45.0744C262.992 44.2917 262.779 43.28 262.779 42H260.779ZM261.568 45.9452C262.1 47.041 262.84 47.916 263.803 48.5192L264.865 46.8245C264.265 46.4486 263.76 45.8809 263.366 45.0705L261.568 45.9452ZM263.805 48.5208C264.758 49.1138 265.82 49.4062 266.967 49.4062V47.4062C266.176 47.4062 265.483 47.2092 264.862 46.8229L263.805 48.5208ZM266.967 49.4062C267.591 49.4062 268.198 49.3204 268.784 49.1459L268.213 47.2291C267.819 47.3463 267.405 47.4062 266.967 47.4062V49.4062ZM268.784 49.1459C269.375 48.9697 269.921 48.7058 270.415 48.3528L269.253 46.7253C268.945 46.9452 268.6 47.1137 268.213 47.2291L268.784 49.1459ZM270.417 48.3514C270.923 47.9885 271.35 47.5441 271.697 47.0235L270.033 45.914C269.818 46.2372 269.558 46.5063 269.251 46.7267L270.417 48.3514ZM271.696 47.0258C272.061 46.4816 272.308 45.8695 272.446 45.2032L270.488 44.7968C270.397 45.2347 270.243 45.6018 270.035 45.9117L271.696 47.0258ZM271.467 46H273.404V44H271.467V46ZM272.42 44.8244C272.293 45.5356 272.066 46.1511 271.749 46.6829L273.466 47.7078C273.92 46.9479 274.224 46.0999 274.389 45.1756L272.42 44.8244ZM271.749 46.6829C271.424 47.2275 271.024 47.6839 270.55 48.0594L271.79 49.6281C272.461 49.0973 273.02 48.4548 273.466 47.7078L271.749 46.6829ZM270.554 48.0559C270.075 48.4303 269.535 48.7177 268.928 48.9171L269.552 50.8172C270.372 50.548 271.119 50.1531 271.786 49.6316L270.554 48.0559ZM268.926 48.9178C268.327 49.116 267.676 49.2188 266.967 49.2188V51.2188C267.872 51.2188 268.737 51.0871 269.554 50.8166L268.926 48.9178ZM266.967 49.2188C265.773 49.2188 264.747 48.9297 263.858 48.3717L262.795 50.0658C264.03 50.8412 265.431 51.2188 266.967 51.2188V49.2188ZM263.858 48.3717C262.966 47.8122 262.25 47.0107 261.714 45.9308L259.922 46.8192C260.606 48.1977 261.561 49.292 262.795 50.0658L263.858 48.3717ZM261.714 45.9308C261.187 44.8678 260.904 43.5682 260.904 42H258.904C258.904 43.8068 259.231 45.4238 259.922 46.8192L261.714 45.9308ZM260.904 42C260.904 40.4318 261.187 39.1322 261.714 38.0692L259.922 37.1808C259.231 38.5762 258.904 40.1932 258.904 42H260.904ZM261.714 38.0692C262.25 36.9893 262.966 36.1878 263.858 35.6283L262.795 33.9342C261.561 34.708 260.606 35.8023 259.922 37.1808L261.714 38.0692ZM263.858 35.6283C264.747 35.0703 265.773 34.7812 266.967 34.7812V32.7812C265.431 32.7812 264.03 33.1588 262.795 33.9342L263.858 35.6283ZM266.967 34.7812C267.676 34.7812 268.327 34.884 268.926 35.0822L269.554 33.1834C268.737 32.9129 267.872 32.7812 266.967 32.7812V34.7812ZM268.928 35.0829C269.533 35.2816 270.071 35.5703 270.55 35.9484L271.79 34.3797C271.123 33.8516 270.374 33.4528 269.552 33.1828L268.928 35.0829ZM270.554 35.9519C271.026 36.3212 271.424 36.7736 271.749 37.3171L273.466 36.2922C273.02 35.5441 272.459 34.9028 271.786 34.3763L270.554 35.9519ZM271.751 37.3202C272.066 37.8443 272.293 38.458 272.42 39.1745L274.389 38.8255C274.224 37.8962 273.92 37.0463 273.464 36.2892L271.751 37.3202ZM276.535 50H275.535V51H276.535V50ZM276.535 34V33H275.535V34H276.535ZM278.473 34H279.473V33H278.473V34ZM278.473 48.2812H277.473V49.2812H278.473V48.2812ZM285.91 48.2812H286.91V47.2812H285.91V48.2812ZM285.91 50V51H286.91V50H285.91ZM277.535 50V34H275.535V50H277.535ZM276.535 35H278.473V33H276.535V35ZM277.473 34V48.2812H279.473V34H277.473ZM278.473 49.2812H285.91V47.2812H278.473V49.2812ZM284.91 48.2812V50H286.91V48.2812H284.91ZM285.91 49H276.535V51H285.91V49ZM288.91 50H287.91V51H288.91V50ZM288.91 34V33H287.91V34H288.91ZM298.566 34H299.566V33H298.566V34ZM298.566 35.7187V36.7188H299.566V35.7187H298.566ZM290.848 35.7187V34.7187H289.848V35.7187H290.848ZM290.848 41.125H289.848V42.125H290.848V41.125ZM298.066 41.125H299.066V40.125H298.066V41.125ZM298.066 42.8438V43.8438H299.066V42.8438H298.066ZM290.848 42.8438V41.8438H289.848V42.8438H290.848ZM290.848 48.2812H289.848V49.2812H290.848V48.2812ZM298.691 48.2812H299.691V47.2812H298.691V48.2812ZM298.691 50V51H299.691V50H298.691ZM289.91 50V34H287.91V50H289.91ZM288.91 35H298.566V33H288.91V35ZM297.566 34V35.7187H299.566V34H297.566ZM298.566 34.7187H290.848V36.7188H298.566V34.7187ZM289.848 35.7187V41.125H291.848V35.7187H289.848ZM290.848 42.125H298.066V40.125H290.848V42.125ZM297.066 41.125V42.8438H299.066V41.125H297.066ZM298.066 41.8438H290.848V43.8438H298.066V41.8438ZM289.848 42.8438V48.2812H291.848V42.8438H289.848ZM290.848 49.2812H298.691V47.2812H290.848V49.2812ZM297.691 48.2812V50H299.691V48.2812H297.691ZM298.691 49H288.91V51H298.691V49Z" fill="white" fill-opacity="0.5"/>
<rect x="17" y="114" width="178" height="58" rx="19" fill="#514D4D" stroke="#F9CE3B" stroke-width="2"/>
<path d="M21.4972 135V122.636H25.8196C26.6809 122.636 27.3912 122.785 27.9506 123.083C28.5101 123.377 28.9266 123.773 29.2003 124.272C29.474 124.767 29.6108 125.317 29.6108 125.92C29.6108 126.452 29.5162 126.89 29.3271 127.237C29.1419 127.583 28.8964 127.856 28.5906 128.058C28.2887 128.259 27.9607 128.408 27.6065 128.504V128.625C27.9848 128.649 28.3652 128.782 28.7475 129.023C29.1299 129.265 29.4498 129.611 29.7074 130.062C29.965 130.513 30.0938 131.064 30.0938 131.716C30.0938 132.336 29.9529 132.893 29.6712 133.388C29.3894 133.883 28.9447 134.276 28.337 134.565C27.7293 134.855 26.9384 135 25.9645 135H21.4972ZM22.9943 133.672H25.9645C26.9425 133.672 27.6367 133.483 28.0472 133.104C28.4618 132.722 28.669 132.259 28.669 131.716C28.669 131.297 28.5624 130.911 28.3491 130.557C28.1358 130.199 27.8319 129.913 27.4375 129.7C27.0431 129.482 26.5762 129.374 26.0369 129.374H22.9943V133.672ZM22.9943 128.07H25.7713C26.2221 128.07 26.6286 127.981 26.9908 127.804C27.357 127.627 27.6468 127.377 27.8601 127.055C28.0774 126.733 28.1861 126.355 28.1861 125.92C28.1861 125.377 27.9969 124.916 27.6186 124.538C27.2403 124.156 26.6406 123.964 25.8196 123.964H22.9943V128.07ZM32.5538 135V122.636H36.7314C37.6973 122.636 38.4901 122.801 39.1099 123.131C39.7297 123.457 40.1885 123.906 40.4863 124.478C40.7842 125.049 40.9331 125.699 40.9331 126.428C40.9331 127.156 40.7842 127.802 40.4863 128.365C40.1885 128.929 39.7317 129.372 39.1159 129.694C38.5002 130.011 37.7134 130.17 36.7555 130.17H33.3748V128.818H36.7072C37.3672 128.818 37.8985 128.722 38.301 128.528C38.7074 128.335 39.0012 128.062 39.1824 127.707C39.3675 127.349 39.46 126.923 39.46 126.428C39.46 125.933 39.3675 125.5 39.1824 125.13C38.9972 124.759 38.7014 124.474 38.2949 124.272C37.8884 124.067 37.3511 123.964 36.6831 123.964H34.051V135H32.5538ZM38.3734 129.446L41.416 135H39.6774L36.6831 129.446H38.3734ZM43.9349 135H42.3653L46.9051 122.636H48.4506L52.9903 135H51.4207L47.7261 124.592H47.6295L43.9349 135ZM44.5145 130.17H50.8412V131.499H44.5145V130.17ZM64.7201 122.636V135H63.2712L56.534 125.293H56.4133V135H54.9161V122.636H56.365L63.1263 132.368H63.2471V122.636H64.7201ZM71.5312 135H67.7159V122.636H71.7003C72.8996 122.636 73.9259 122.884 74.7791 123.379C75.6323 123.87 76.2863 124.576 76.7411 125.498C77.1959 126.415 77.4233 127.514 77.4233 128.794C77.4233 130.082 77.1939 131.191 76.7351 132.12C76.2763 133.046 75.6082 133.758 74.7308 134.257C73.8535 134.752 72.7869 135 71.5312 135ZM69.2131 133.672H71.4347C72.4569 133.672 73.3041 133.475 73.9762 133.08C74.6483 132.686 75.1494 132.124 75.4794 131.396C75.8094 130.667 75.9744 129.8 75.9744 128.794C75.9744 127.796 75.8114 126.937 75.4854 126.216C75.1594 125.492 74.6725 124.936 74.0245 124.55C73.3765 124.16 72.5696 123.964 71.6037 123.964H69.2131V133.672ZM80.7798 133.418C80.482 133.418 80.2264 133.312 80.0131 133.098C79.7998 132.885 79.6932 132.629 79.6932 132.332C79.6932 132.034 79.7998 131.778 80.0131 131.565C80.2264 131.352 80.482 131.245 80.7798 131.245C81.0777 131.245 81.3332 131.352 81.5465 131.565C81.7598 131.778 81.8665 132.034 81.8665 132.332C81.8665 132.529 81.8162 132.71 81.7156 132.875C81.619 133.04 81.4882 133.173 81.3232 133.273C81.1622 133.37 80.9811 133.418 80.7798 133.418ZM80.7798 127.164C80.482 127.164 80.2264 127.057 80.0131 126.844C79.7998 126.631 79.6932 126.375 79.6932 126.077C79.6932 125.78 79.7998 125.524 80.0131 125.311C80.2264 125.097 80.482 124.991 80.7798 124.991C81.0777 124.991 81.3332 125.097 81.5465 125.311C81.7598 125.524 81.8665 125.78 81.8665 126.077C81.8665 126.275 81.8162 126.456 81.7156 126.621C81.619 126.786 81.4882 126.919 81.3232 127.019C81.1622 127.116 80.9811 127.164 80.7798 127.164Z" fill="white"/>
<rect x="225" y="114" width="178" height="58" rx="19" fill="#514D4D" stroke="#F9CE3B" stroke-width="2"/>
<rect x="18" y="191" width="178" height="58" rx="19" fill="#514D4D" stroke="#F9CE3B" stroke-width="2"/>
<rect x="225" y="191" width="178" height="58" rx="19" fill="#514D4D" stroke="#F9CE3B" stroke-width="2"/>
<path d="M241.446 203.5H239.949C239.86 203.069 239.705 202.691 239.484 202.365C239.267 202.039 239.001 201.765 238.687 201.544C238.377 201.319 238.033 201.15 237.655 201.037C237.277 200.924 236.882 200.868 236.472 200.868C235.723 200.868 235.045 201.057 234.437 201.435C233.833 201.814 233.353 202.371 232.994 203.108C232.64 203.844 232.463 204.748 232.463 205.818C232.463 206.889 232.64 207.792 232.994 208.529C233.353 209.265 233.833 209.823 234.437 210.201C235.045 210.579 235.723 210.768 236.472 210.768C236.882 210.768 237.277 210.712 237.655 210.599C238.033 210.487 238.377 210.32 238.687 210.098C239.001 209.873 239.267 209.597 239.484 209.271C239.705 208.941 239.86 208.563 239.949 208.136H241.446C241.333 208.768 241.128 209.334 240.83 209.833C240.532 210.332 240.162 210.756 239.719 211.107C239.277 211.453 238.78 211.716 238.228 211.897C237.681 212.078 237.095 212.169 236.472 212.169C235.417 212.169 234.479 211.911 233.658 211.396C232.837 210.881 232.191 210.149 231.721 209.199C231.25 208.249 231.014 207.122 231.014 205.818C231.014 204.514 231.25 203.387 231.721 202.438C232.191 201.488 232.837 200.755 233.658 200.24C234.479 199.725 235.417 199.467 236.472 199.467C237.095 199.467 237.681 199.558 238.228 199.739C238.78 199.92 239.277 200.186 239.719 200.536C240.162 200.882 240.532 201.305 240.83 201.804C241.128 202.299 241.333 202.864 241.446 203.5ZM254.297 205.818C254.297 207.122 254.062 208.249 253.591 209.199C253.12 210.149 252.474 210.881 251.653 211.396C250.832 211.911 249.894 212.169 248.84 212.169C247.785 212.169 246.848 211.911 246.027 211.396C245.206 210.881 244.56 210.149 244.089 209.199C243.618 208.249 243.382 207.122 243.382 205.818C243.382 204.514 243.618 203.387 244.089 202.438C244.56 201.488 245.206 200.755 246.027 200.24C246.848 199.725 247.785 199.467 248.84 199.467C249.894 199.467 250.832 199.725 251.653 200.24C252.474 200.755 253.12 201.488 253.591 202.438C254.062 203.387 254.297 204.514 254.297 205.818ZM252.848 205.818C252.848 204.748 252.669 203.844 252.311 203.108C251.957 202.371 251.476 201.814 250.868 201.435C250.264 201.057 249.588 200.868 248.84 200.868C248.091 200.868 247.413 201.057 246.805 201.435C246.202 201.814 245.721 202.371 245.362 203.108C245.008 203.844 244.831 204.748 244.831 205.818C244.831 206.889 245.008 207.792 245.362 208.529C245.721 209.265 246.202 209.823 246.805 210.201C247.413 210.579 248.091 210.768 248.84 210.768C249.588 210.768 250.264 210.579 250.868 210.201C251.476 209.823 251.957 209.265 252.311 208.529C252.669 207.792 252.848 206.889 252.848 205.818ZM256.815 212V199.636H258.312V210.672H264.059V212H256.815ZM276.327 205.818C276.327 207.122 276.092 208.249 275.621 209.199C275.15 210.149 274.504 210.881 273.683 211.396C272.862 211.911 271.924 212.169 270.87 212.169C269.816 212.169 268.878 211.911 268.057 211.396C267.236 210.881 266.59 210.149 266.119 209.199C265.648 208.249 265.413 207.122 265.413 205.818C265.413 204.514 265.648 203.387 266.119 202.438C266.59 201.488 267.236 200.755 268.057 200.24C268.878 199.725 269.816 199.467 270.87 199.467C271.924 199.467 272.862 199.725 273.683 200.24C274.504 200.755 275.15 201.488 275.621 202.438C276.092 203.387 276.327 204.514 276.327 205.818ZM274.879 205.818C274.879 204.748 274.699 203.844 274.341 203.108C273.987 202.371 273.506 201.814 272.898 201.435C272.295 201.057 271.619 200.868 270.87 200.868C270.121 200.868 269.443 201.057 268.836 201.435C268.232 201.814 267.751 202.371 267.393 203.108C267.039 203.844 266.862 204.748 266.862 205.818C266.862 206.889 267.039 207.792 267.393 208.529C267.751 209.265 268.232 209.823 268.836 210.201C269.443 210.579 270.121 210.768 270.87 210.768C271.619 210.768 272.295 210.579 272.898 210.201C273.506 209.823 273.987 209.265 274.341 208.529C274.699 207.792 274.879 206.889 274.879 205.818ZM278.845 212V199.636H283.022C283.988 199.636 284.781 199.801 285.401 200.131C286.021 200.457 286.48 200.906 286.777 201.478C287.075 202.049 287.224 202.699 287.224 203.428C287.224 204.156 287.075 204.802 286.777 205.365C286.48 205.929 286.023 206.372 285.407 206.694C284.791 207.011 284.004 207.17 283.047 207.17H279.666V205.818H282.998C283.658 205.818 284.19 205.722 284.592 205.528C284.998 205.335 285.292 205.062 285.473 204.707C285.658 204.349 285.751 203.923 285.751 203.428C285.751 202.933 285.658 202.5 285.473 202.13C285.288 201.759 284.992 201.474 284.586 201.272C284.179 201.067 283.642 200.964 282.974 200.964H280.342V212H278.845ZM284.664 206.446L287.707 212H285.968L282.974 206.446H284.664ZM290.564 210.418C290.266 210.418 290.011 210.312 289.797 210.098C289.584 209.885 289.477 209.629 289.477 209.332C289.477 209.034 289.584 208.778 289.797 208.565C290.011 208.352 290.266 208.245 290.564 208.245C290.862 208.245 291.117 208.352 291.331 208.565C291.544 208.778 291.651 209.034 291.651 209.332C291.651 209.529 291.6 209.71 291.5 209.875C291.403 210.04 291.272 210.173 291.107 210.273C290.946 210.37 290.765 210.418 290.564 210.418ZM290.564 204.164C290.266 204.164 290.011 204.057 289.797 203.844C289.584 203.631 289.477 203.375 289.477 203.077C289.477 202.78 289.584 202.524 289.797 202.311C290.011 202.097 290.266 201.991 290.564 201.991C290.862 201.991 291.117 202.097 291.331 202.311C291.544 202.524 291.651 202.78 291.651 203.077C291.651 203.275 291.6 203.456 291.5 203.621C291.403 203.786 291.272 203.919 291.107 204.019C290.946 204.116 290.765 204.164 290.564 204.164Z" fill="white"/>
<path d="M45 258.5H376C386.217 258.5 394.5 266.783 394.5 277V497C394.5 507.217 386.217 515.5 376 515.5H45C34.7827 515.5 26.5 507.217 26.5 497V277C26.5 266.783 34.7827 258.5 45 258.5Z" fill="white" fill-opacity="0.2" stroke="white" stroke-width="3"/>
<circle cx="64" cy="614" r="34" fill="#F9CE3B"/>
<circle cx="210" cy="614" r="34" fill="#F9CE3B"/>
<circle cx="137" cy="614" r="34" fill="#F9CE3B"/>
<circle cx="356" cy="614" r="34" fill="#F9CE3B"/>
<circle cx="283" cy="614" r="34" fill="#F9CE3B"/>
<circle cx="376" cy="40" r="24" fill="#514D4D" stroke="#F9CE3B" stroke-width="2"/>
<rect x="14.5" y="524.5" width="17" height="17" fill="black" stroke="white"/>
<rect x="14.5" y="88.5" width="17" height="17" fill="black" stroke="white"/>
<path d="M232.497 135V122.636H236.675C237.641 122.636 238.433 122.801 239.053 123.131C239.673 123.457 240.132 123.906 240.43 124.478C240.728 125.049 240.876 125.699 240.876 126.428C240.876 127.156 240.728 127.802 240.43 128.365C240.132 128.929 239.675 129.372 239.059 129.694C238.444 130.011 237.657 130.17 236.699 130.17H233.318V128.818H236.651C237.311 128.818 237.842 128.722 238.244 128.528C238.651 128.335 238.945 128.062 239.126 127.707C239.311 127.349 239.403 126.923 239.403 126.428C239.403 125.933 239.311 125.5 239.126 125.13C238.941 124.759 238.645 124.474 238.238 124.272C237.832 124.067 237.295 123.964 236.626 123.964H233.994V135H232.497ZM238.317 129.446L241.359 135H239.621L236.626 129.446H238.317ZM243.371 135V122.636H250.833V123.964H244.868V128.142H250.446V129.47H244.868V133.672H250.929V135H243.371ZM253.531 135V122.636H260.945V123.964H255.028V128.142H260.389V129.47H255.028V135H253.531ZM263.509 135V122.636H270.971V123.964H265.006V128.142H270.584V129.47H265.006V133.672H271.067V135H263.509ZM273.669 135V122.636H277.847C278.813 122.636 279.605 122.801 280.225 123.131C280.845 123.457 281.304 123.906 281.602 124.478C281.899 125.049 282.048 125.699 282.048 126.428C282.048 127.156 281.899 127.802 281.602 128.365C281.304 128.929 280.847 129.372 280.231 129.694C279.615 130.011 278.829 130.17 277.871 130.17H274.49V128.818H277.822C278.482 128.818 279.014 128.722 279.416 128.528C279.823 128.335 280.116 128.062 280.298 127.707C280.483 127.349 280.575 126.923 280.575 126.428C280.575 125.933 280.483 125.5 280.298 125.13C280.112 124.759 279.817 124.474 279.41 124.272C279.004 124.067 278.466 123.964 277.798 123.964H275.166V135H273.669ZM279.489 129.446L282.531 135H280.793L277.798 129.446H279.489ZM284.543 135V122.636H292.005V123.964H286.04V128.142H291.618V129.47H286.04V133.672H292.101V135H284.543ZM304.507 122.636V135H303.058L296.321 125.293H296.2V135H294.703V122.636H296.152L302.913 132.368H303.034V122.636H304.507ZM317.452 126.5H315.955C315.866 126.069 315.711 125.691 315.49 125.365C315.273 125.039 315.007 124.765 314.693 124.544C314.383 124.319 314.039 124.15 313.661 124.037C313.282 123.924 312.888 123.868 312.477 123.868C311.729 123.868 311.051 124.057 310.443 124.435C309.839 124.814 309.358 125.371 309 126.108C308.646 126.844 308.469 127.748 308.469 128.818C308.469 129.889 308.646 130.792 309 131.529C309.358 132.265 309.839 132.823 310.443 133.201C311.051 133.579 311.729 133.768 312.477 133.768C312.888 133.768 313.282 133.712 313.661 133.599C314.039 133.487 314.383 133.32 314.693 133.098C315.007 132.873 315.273 132.597 315.49 132.271C315.711 131.941 315.866 131.563 315.955 131.136H317.452C317.339 131.768 317.134 132.334 316.836 132.833C316.538 133.332 316.168 133.756 315.725 134.107C315.283 134.453 314.786 134.716 314.234 134.897C313.687 135.078 313.101 135.169 312.477 135.169C311.423 135.169 310.485 134.911 309.664 134.396C308.843 133.881 308.197 133.149 307.726 132.199C307.256 131.249 307.02 130.122 307.02 128.818C307.02 127.514 307.256 126.387 307.726 125.438C308.197 124.488 308.843 123.755 309.664 123.24C310.485 122.725 311.423 122.467 312.477 122.467C313.101 122.467 313.687 122.558 314.234 122.739C314.786 122.92 315.283 123.186 315.725 123.536C316.168 123.882 316.538 124.305 316.836 124.804C317.134 125.299 317.339 125.864 317.452 126.5ZM319.871 135V122.636H327.333V123.964H321.368V128.142H326.946V129.47H321.368V133.672H327.429V135H319.871ZM330.877 133.418C330.579 133.418 330.323 133.312 330.11 133.098C329.897 132.885 329.79 132.629 329.79 132.332C329.79 132.034 329.897 131.778 330.11 131.565C330.323 131.352 330.579 131.245 330.877 131.245C331.174 131.245 331.43 131.352 331.643 131.565C331.857 131.778 331.963 132.034 331.963 132.332C331.963 132.529 331.913 132.71 331.812 132.875C331.716 133.04 331.585 133.173 331.42 133.273C331.259 133.37 331.078 133.418 330.877 133.418ZM330.877 127.164C330.579 127.164 330.323 127.057 330.11 126.844C329.897 126.631 329.79 126.375 329.79 126.077C329.79 125.78 329.897 125.524 330.11 125.311C330.323 125.097 330.579 124.991 330.877 124.991C331.174 124.991 331.43 125.097 331.643 125.311C331.857 125.524 331.963 125.78 331.963 126.077C331.963 126.275 331.913 126.456 331.812 126.621C331.716 126.786 331.585 126.919 331.42 127.019C331.259 127.116 331.078 127.164 330.877 127.164Z" fill="white"/>
<path d="M20.4972 203.636H22.2841L26.4858 213.899H26.6307L30.8324 203.636H32.6193V216H31.2188V206.607H31.098L27.2344 216H25.8821L22.0185 206.607H21.8977V216H20.4972V203.636ZM46.053 209.818C46.053 211.122 45.8176 212.249 45.3467 213.199C44.8758 214.149 44.2298 214.881 43.4088 215.396C42.5878 215.911 41.6501 216.169 40.5956 216.169C39.5412 216.169 38.6034 215.911 37.7824 215.396C36.9614 214.881 36.3154 214.149 35.8445 213.199C35.3737 212.249 35.1382 211.122 35.1382 209.818C35.1382 208.514 35.3737 207.387 35.8445 206.438C36.3154 205.488 36.9614 204.755 37.7824 204.24C38.6034 203.725 39.5412 203.467 40.5956 203.467C41.6501 203.467 42.5878 203.725 43.4088 204.24C44.2298 204.755 44.8758 205.488 45.3467 206.438C45.8176 207.387 46.053 208.514 46.053 209.818ZM44.6041 209.818C44.6041 208.748 44.425 207.844 44.0669 207.108C43.7127 206.371 43.2317 205.814 42.624 205.435C42.0203 205.057 41.3442 204.868 40.5956 204.868C39.847 204.868 39.1689 205.057 38.5612 205.435C37.9575 205.814 37.4765 206.371 37.1183 207.108C36.7642 207.844 36.5871 208.748 36.5871 209.818C36.5871 210.889 36.7642 211.792 37.1183 212.529C37.4765 213.265 37.9575 213.823 38.5612 214.201C39.1689 214.579 39.847 214.768 40.5956 214.768C41.3442 214.768 42.0203 214.579 42.624 214.201C43.2317 213.823 43.7127 213.265 44.0669 212.529C44.425 211.792 44.6041 210.889 44.6041 209.818ZM52.3857 216H48.5704V203.636H52.5548C53.7541 203.636 54.7804 203.884 55.6336 204.379C56.4868 204.87 57.1408 205.576 57.5956 206.498C58.0504 207.415 58.2778 208.514 58.2778 209.794C58.2778 211.082 58.0484 212.191 57.5896 213.12C57.1308 214.046 56.4627 214.758 55.5853 215.257C54.7079 215.752 53.6414 216 52.3857 216ZM50.0676 214.672H52.2892C53.3114 214.672 54.1586 214.475 54.8307 214.08C55.5028 213.686 56.0039 213.124 56.3339 212.396C56.6639 211.667 56.8289 210.8 56.8289 209.794C56.8289 208.796 56.6659 207.937 56.3399 207.216C56.0139 206.492 55.527 205.936 54.879 205.55C54.231 205.16 53.4241 204.964 52.4582 204.964H50.0676V214.672ZM60.7892 216V203.636H68.2508V204.964H62.2863V209.142H67.8644V210.47H62.2863V214.672H68.3474V216H60.7892ZM70.9493 216V203.636H72.4465V214.672H78.1936V216H70.9493ZM81.357 214.418C81.0592 214.418 80.8036 214.312 80.5903 214.098C80.377 213.885 80.2703 213.629 80.2703 213.332C80.2703 213.034 80.377 212.778 80.5903 212.565C80.8036 212.352 81.0592 212.245 81.357 212.245C81.6548 212.245 81.9104 212.352 82.1237 212.565C82.337 212.778 82.4436 213.034 82.4436 213.332C82.4436 213.529 82.3933 213.71 82.2927 213.875C82.1961 214.04 82.0653 214.173 81.9003 214.273C81.7393 214.37 81.5582 214.418 81.357 214.418ZM81.357 208.164C81.0592 208.164 80.8036 208.057 80.5903 207.844C80.377 207.631 80.2703 207.375 80.2703 207.077C80.2703 206.78 80.377 206.524 80.5903 206.311C80.8036 206.097 81.0592 205.991 81.357 205.991C81.6548 205.991 81.9104 206.097 82.1237 206.311C82.337 206.524 82.4436 206.78 82.4436 207.077C82.4436 207.275 82.3933 207.456 82.2927 207.621C82.1961 207.786 82.0653 207.919 81.9003 208.019C81.7393 208.116 81.5582 208.164 81.357 208.164Z" fill="white"/>
<path d="M37.0043 104H35.4347L39.9744 91.6364H41.5199L46.0597 104H44.4901L40.7955 93.5923H40.6989L37.0043 104ZM37.5838 99.1705H43.9105V100.499H37.5838V99.1705ZM45.865 92.9645V91.6364H55.1377V92.9645H51.2499V104H49.7528V92.9645H45.865ZM56.7722 92.9645V91.6364H66.0449V92.9645H62.1571V104H60.66V92.9645H56.7722ZM68.3556 104V91.6364H72.5331C73.499 91.6364 74.2919 91.8014 74.9117 92.1314C75.5315 92.4574 75.9903 92.9061 76.2881 93.4776C76.5859 94.0491 76.7348 94.6991 76.7348 95.4276C76.7348 96.156 76.5859 96.802 76.2881 97.3654C75.9903 97.9289 75.5335 98.3716 74.9177 98.6935C74.3019 99.0115 73.5151 99.1705 72.5573 99.1705H69.1766V97.8182H72.509C73.169 97.8182 73.7003 97.7216 74.1027 97.5284C74.5092 97.3352 74.803 97.0616 74.9841 96.7074C75.1692 96.3492 75.2618 95.9226 75.2618 95.4276C75.2618 94.9325 75.1692 94.4999 74.9841 94.1296C74.799 93.7594 74.5032 93.4736 74.0967 93.2724C73.6902 93.0671 73.1529 92.9645 72.4848 92.9645H69.8527V104H68.3556ZM74.1752 98.446L77.2178 104H75.4791L72.4848 98.446H74.1752ZM80.7267 91.6364V104H79.2296V91.6364H80.7267ZM83.7286 104V91.6364H88.051C88.9123 91.6364 89.6227 91.7853 90.1821 92.0831C90.7415 92.3769 91.1581 92.7733 91.4317 93.2724C91.7054 93.7674 91.8422 94.3168 91.8422 94.9205C91.8422 95.4517 91.7477 95.8904 91.5585 96.2365C91.3734 96.5826 91.1279 96.8563 90.822 97.0575C90.5202 97.2588 90.1921 97.4077 89.838 97.5043V97.625C90.2163 97.6491 90.5966 97.782 90.979 98.0234C91.3613 98.2649 91.6813 98.611 91.9388 99.0618C92.1964 99.5125 92.3252 100.064 92.3252 100.716C92.3252 101.336 92.1843 101.893 91.9026 102.388C91.6209 102.883 91.1762 103.276 90.5684 103.565C89.9607 103.855 89.1699 104 88.1959 104H83.7286ZM85.2258 102.672H88.1959C89.1739 102.672 89.8682 102.483 90.2787 102.104C90.6932 101.722 90.9005 101.259 90.9005 100.716C90.9005 100.297 90.7938 99.911 90.5805 99.5568C90.3672 99.1986 90.0634 98.9129 89.6689 98.6996C89.2745 98.4822 88.8077 98.3736 88.2684 98.3736H85.2258V102.672ZM85.2258 97.0696H88.0028C88.4535 97.0696 88.86 96.9811 89.2222 96.804C89.5885 96.6269 89.8782 96.3774 90.0915 96.0554C90.3089 95.7334 90.4175 95.3551 90.4175 94.9205C90.4175 94.3771 90.2284 93.9163 89.8501 93.538C89.4717 93.1557 88.8721 92.9645 88.051 92.9645H85.2258V97.0696ZM102.899 91.6364H104.396V99.8224C104.396 100.668 104.197 101.422 103.798 102.086C103.404 102.746 102.847 103.268 102.126 103.65C101.406 104.028 100.561 104.217 99.5906 104.217C98.6207 104.217 97.7755 104.028 97.0551 103.65C96.3347 103.268 95.7753 102.746 95.3769 102.086C94.9825 101.422 94.7852 100.668 94.7852 99.8224V91.6364H96.2824V99.7017C96.2824 100.305 96.4152 100.843 96.6808 101.314C96.9465 101.78 97.3248 102.149 97.8158 102.418C98.3108 102.684 98.9024 102.817 99.5906 102.817C100.279 102.817 100.87 102.684 101.366 102.418C101.861 102.149 102.239 101.78 102.5 101.314C102.766 100.843 102.899 100.305 102.899 99.7017V91.6364ZM106.71 92.9645V91.6364H115.982V92.9645H112.095V104H110.597V92.9645H106.71ZM118.293 104V91.6364H125.755V92.9645H119.79V97.142H125.368V98.4702H119.79V102.672H125.851V104H118.293ZM135.215 94.7273C135.142 94.1155 134.848 93.6406 134.333 93.3026C133.818 92.9645 133.186 92.7955 132.438 92.7955C131.89 92.7955 131.411 92.884 131.001 93.0611C130.594 93.2382 130.276 93.4817 130.047 93.7915C129.822 94.1014 129.709 94.4536 129.709 94.848C129.709 95.178 129.787 95.4618 129.944 95.6992C130.105 95.9326 130.311 96.1278 130.56 96.2848C130.81 96.4377 131.071 96.5645 131.345 96.6651C131.619 96.7617 131.87 96.8402 132.1 96.9006L133.355 97.2386C133.677 97.3232 134.035 97.4399 134.43 97.5888C134.828 97.7377 135.209 97.9409 135.571 98.1985C135.937 98.4521 136.239 98.7781 136.476 99.1765C136.714 99.5749 136.832 100.064 136.832 100.643C136.832 101.312 136.657 101.915 136.307 102.455C135.961 102.994 135.454 103.422 134.786 103.74C134.122 104.058 133.315 104.217 132.365 104.217C131.48 104.217 130.713 104.074 130.065 103.789C129.421 103.503 128.914 103.105 128.544 102.593C128.178 102.082 127.97 101.489 127.922 100.812H129.467C129.508 101.279 129.665 101.666 129.938 101.972C130.216 102.273 130.566 102.499 130.989 102.648C131.415 102.793 131.874 102.865 132.365 102.865C132.937 102.865 133.45 102.772 133.905 102.587C134.359 102.398 134.72 102.137 134.985 101.803C135.251 101.464 135.384 101.07 135.384 100.619C135.384 100.209 135.269 99.8748 135.04 99.6172C134.81 99.3596 134.508 99.1503 134.134 98.9893C133.76 98.8284 133.355 98.6875 132.921 98.5668L131.399 98.1321C130.433 97.8544 129.669 97.458 129.105 96.9428C128.542 96.4277 128.26 95.7536 128.26 94.9205C128.26 94.2282 128.447 93.6245 128.821 93.1094C129.2 92.5902 129.707 92.1877 130.343 91.902C130.983 91.6122 131.697 91.4673 132.486 91.4673C133.283 91.4673 133.991 91.6102 134.611 91.896C135.231 92.1777 135.722 92.564 136.084 93.055C136.45 93.546 136.643 94.1035 136.663 94.7273H135.215ZM140.139 102.418C139.841 102.418 139.586 102.312 139.373 102.098C139.159 101.885 139.053 101.629 139.053 101.332C139.053 101.034 139.159 100.778 139.373 100.565C139.586 100.352 139.841 100.245 140.139 100.245C140.437 100.245 140.693 100.352 140.906 100.565C141.119 100.778 141.226 101.034 141.226 101.332C141.226 101.529 141.176 101.71 141.075 101.875C140.978 102.04 140.848 102.173 140.683 102.273C140.522 102.37 140.34 102.418 140.139 102.418ZM140.139 96.1641C139.841 96.1641 139.586 96.0574 139.373 95.8441C139.159 95.6308 139.053 95.3752 139.053 95.0774C139.053 94.7796 139.159 94.524 139.373 94.3107C139.586 94.0974 139.841 93.9908 140.139 93.9908C140.437 93.9908 140.693 94.0974 140.906 94.3107C141.119 94.524 141.226 94.7796 141.226 95.0774C141.226 95.2746 141.176 95.4557 141.075 95.6207C140.978 95.7857 140.848 95.9186 140.683 96.0192C140.522 96.1158 140.34 96.1641 140.139 96.1641Z" fill="black"/>
<path d="M37.0043 104V105H37.7104L37.9466 104.335L37.0043 104ZM35.4347 104L34.4959 103.655L34.0022 105H35.4347V104ZM39.9744 91.6364V90.6364H39.2763L39.0357 91.2917L39.9744 91.6364ZM41.5199 91.6364L42.4586 91.2917L42.218 90.6364H41.5199V91.6364ZM46.0597 104V105H47.4921L46.9984 103.655L46.0597 104ZM44.4901 104L43.5477 104.335L43.7839 105H44.4901V104ZM40.7955 93.5923L41.7378 93.2578L41.5016 92.5923H40.7955V93.5923ZM40.6989 93.5923V92.5923H39.9927L39.7565 93.2578L40.6989 93.5923ZM37.5838 99.1705V98.1705H36.5838V99.1705H37.5838ZM43.9105 99.1705H44.9105V98.1705H43.9105V99.1705ZM43.9105 100.499V101.499H44.9105V100.499H43.9105ZM37.5838 100.499H36.5838V101.499H37.5838V100.499ZM37.0043 103H35.4347V105H37.0043V103ZM36.3734 104.345L40.9132 91.981L39.0357 91.2917L34.4959 103.655L36.3734 104.345ZM39.9744 92.6364H41.5199V90.6364H39.9744V92.6364ZM40.5812 91.981L45.1209 104.345L46.9984 103.655L42.4586 91.2917L40.5812 91.981ZM46.0597 103H44.4901V105H46.0597V103ZM45.4324 103.665L41.7378 93.2578L39.8531 93.9269L43.5477 104.335L45.4324 103.665ZM40.7955 92.5923H40.6989V94.5923H40.7955V92.5923ZM39.7565 93.2578L36.0619 103.665L37.9466 104.335L41.6412 93.9269L39.7565 93.2578ZM37.5838 100.17H43.9105V98.1705H37.5838V100.17ZM42.9105 99.1705V100.499H44.9105V99.1705H42.9105ZM43.9105 99.4986H37.5838V101.499H43.9105V99.4986ZM38.5838 100.499V99.1705H36.5838V100.499H38.5838ZM45.865 92.9645H44.865V93.9645H45.865V92.9645ZM45.865 91.6364V90.6364H44.865V91.6364H45.865ZM55.1377 91.6364H56.1377V90.6364H55.1377V91.6364ZM55.1377 92.9645V93.9645H56.1377V92.9645H55.1377ZM51.2499 92.9645V91.9645H50.2499V92.9645H51.2499ZM51.2499 104V105H52.2499V104H51.2499ZM49.7528 104H48.7528V105H49.7528V104ZM49.7528 92.9645H50.7528V91.9645H49.7528V92.9645ZM46.865 92.9645V91.6364H44.865V92.9645H46.865ZM45.865 92.6364H55.1377V90.6364H45.865V92.6364ZM54.1377 91.6364V92.9645H56.1377V91.6364H54.1377ZM55.1377 91.9645H51.2499V93.9645H55.1377V91.9645ZM50.2499 92.9645V104H52.2499V92.9645H50.2499ZM51.2499 103H49.7528V105H51.2499V103ZM50.7528 104V92.9645H48.7528V104H50.7528ZM49.7528 91.9645H45.865V93.9645H49.7528V91.9645ZM56.7722 92.9645H55.7722V93.9645H56.7722V92.9645ZM56.7722 91.6364V90.6364H55.7722V91.6364H56.7722ZM66.0449 91.6364H67.0449V90.6364H66.0449V91.6364ZM66.0449 92.9645V93.9645H67.0449V92.9645H66.0449ZM62.1571 92.9645V91.9645H61.1571V92.9645H62.1571ZM62.1571 104V105H63.1571V104H62.1571ZM60.66 104H59.66V105H60.66V104ZM60.66 92.9645H61.66V91.9645H60.66V92.9645ZM57.7722 92.9645V91.6364H55.7722V92.9645H57.7722ZM56.7722 92.6364H66.0449V90.6364H56.7722V92.6364ZM65.0449 91.6364V92.9645H67.0449V91.6364H65.0449ZM66.0449 91.9645H62.1571V93.9645H66.0449V91.9645ZM61.1571 92.9645V104H63.1571V92.9645H61.1571ZM62.1571 103H60.66V105H62.1571V103ZM61.66 104V92.9645H59.66V104H61.66ZM60.66 91.9645H56.7722V93.9645H60.66V91.9645ZM68.3556 104H67.3556V105H68.3556V104ZM68.3556 91.6364V90.6364H67.3556V91.6364H68.3556ZM74.9117 92.1314L74.4417 93.0141L74.4462 93.0164L74.9117 92.1314ZM76.2881 93.4776L75.4013 93.9398V93.9398L76.2881 93.4776ZM76.2881 97.3654L75.404 96.8981V96.8981L76.2881 97.3654ZM74.9177 98.6935L75.3765 99.5821L75.3811 99.5797L74.9177 98.6935ZM69.1766 99.1705H68.1766V100.17H69.1766V99.1705ZM69.1766 97.8182V96.8182H68.1766V97.8182H69.1766ZM74.1027 97.5284L73.6735 96.6252L73.67 96.6269L74.1027 97.5284ZM74.9841 96.7074L74.0957 96.2482L74.0938 96.2521L74.9841 96.7074ZM74.0967 93.2724L73.6459 94.1651L73.653 94.1686L74.0967 93.2724ZM69.8527 92.9645V91.9645H68.8527V92.9645H69.8527ZM69.8527 104V105H70.8527V104H69.8527ZM74.1752 98.446L75.0522 97.9656L74.7676 97.446H74.1752V98.446ZM77.2178 104V105H78.9058L78.0948 103.52L77.2178 104ZM75.4791 104L74.5989 104.475L74.8822 105H75.4791V104ZM72.4848 98.446V97.446H70.8096L71.6046 98.9206L72.4848 98.446ZM69.3556 104V91.6364H67.3556V104H69.3556ZM68.3556 92.6364H72.5331V90.6364H68.3556V92.6364ZM72.5331 92.6364C73.3936 92.6364 74.0106 92.7845 74.4417 93.0141L75.3817 91.2487C74.5731 90.8182 73.6045 90.6364 72.5331 90.6364V92.6364ZM74.4462 93.0164C74.9021 93.2563 75.2058 93.5646 75.4013 93.9398L77.1749 93.0155C76.7748 92.2477 76.1608 91.6585 75.3772 91.2463L74.4462 93.0164ZM75.4013 93.9398C75.6155 94.3509 75.7348 94.8388 75.7348 95.4276H77.7348C77.7348 94.5594 77.5563 93.7474 77.1749 93.0155L75.4013 93.9398ZM75.7348 95.4276C75.7348 96.0166 75.6154 96.4981 75.404 96.8981L77.1722 97.8327C77.5564 97.1058 77.7348 96.2954 77.7348 95.4276H75.7348ZM75.404 96.8981C75.2094 97.2663 74.9077 97.5703 74.4543 97.8074L75.3811 99.5797C76.1593 99.1728 76.7712 98.5914 77.1722 97.8327L75.404 96.8981ZM74.4589 97.805C74.0287 98.0271 73.4132 98.1705 72.5573 98.1705V100.17C73.617 100.17 74.5752 99.9958 75.3765 99.5821L74.4589 97.805ZM72.5573 98.1705H69.1766V100.17H72.5573V98.1705ZM70.1766 99.1705V97.8182H68.1766V99.1705H70.1766ZM69.1766 98.8182H72.509V96.8182H69.1766V98.8182ZM72.509 98.8182C73.253 98.8182 73.9491 98.7114 74.5354 98.4299L73.67 96.6269C73.4515 96.7318 73.085 96.8182 72.509 96.8182V98.8182ZM74.532 98.4316C75.1098 98.157 75.5801 97.7382 75.8745 97.1627L74.0938 96.2521C74.0259 96.3849 73.9086 96.5135 73.6735 96.6252L74.532 98.4316ZM75.8725 97.1665C76.1458 96.6377 76.2618 96.0465 76.2618 95.4276H74.2618C74.2618 95.7987 74.1927 96.0607 74.0957 96.2482L75.8725 97.1665ZM76.2618 95.4276C76.2618 94.8074 76.1454 94.2162 75.8785 93.6824L74.0897 94.5768C74.1931 94.7836 74.2618 95.0577 74.2618 95.4276H76.2618ZM75.8785 93.6824C75.5866 93.0986 75.1222 92.6642 74.5403 92.3762L73.653 94.1686C73.8841 94.283 74.0113 94.4201 74.0897 94.5768L75.8785 93.6824ZM74.5474 92.3797C73.9513 92.0787 73.2419 91.9645 72.4848 91.9645V93.9645C73.0639 93.9645 73.4291 94.0555 73.6459 94.165L74.5474 92.3797ZM72.4848 91.9645H69.8527V93.9645H72.4848V91.9645ZM68.8527 92.9645V104H70.8527V92.9645H68.8527ZM69.8527 103H68.3556V105H69.8527V103ZM73.2981 98.9265L76.3408 104.48L78.0948 103.52L75.0522 97.9656L73.2981 98.9265ZM77.2178 103H75.4791V105H77.2178V103ZM76.3594 103.525L73.365 97.9715L71.6046 98.9206L74.5989 104.475L76.3594 103.525ZM72.4848 99.446H74.1752V97.446H72.4848V99.446ZM80.7267 91.6364H81.7267V90.6364H80.7267V91.6364ZM80.7267 104V105H81.7267V104H80.7267ZM79.2296 104H78.2296V105H79.2296V104ZM79.2296 91.6364V90.6364H78.2296V91.6364H79.2296ZM79.7267 91.6364V104H81.7267V91.6364H79.7267ZM80.7267 103H79.2296V105H80.7267V103ZM80.2296 104V91.6364H78.2296V104H80.2296ZM79.2296 92.6364H80.7267V90.6364H79.2296V92.6364ZM83.7286 104H82.7286V105H83.7286V104ZM83.7286 91.6364V90.6364H82.7286V91.6364H83.7286ZM90.1821 92.0831L89.7121 92.9658L89.7171 92.9684L90.1821 92.0831ZM91.4317 93.2724L90.5549 93.7532L90.5566 93.7562L91.4317 93.2724ZM91.5585 96.2365L90.681 95.7569L90.6767 95.7649L91.5585 96.2365ZM90.822 97.0575L90.2724 96.2221L90.2673 96.2255L90.822 97.0575ZM89.838 97.5043L89.5749 96.5395L88.838 96.7405V97.5043H89.838ZM89.838 97.625H88.838V98.5632L89.7743 98.623L89.838 97.625ZM90.979 98.0234L90.445 98.8689V98.8689L90.979 98.0234ZM91.9026 102.388L92.7717 102.883L91.9026 102.388ZM90.5684 103.565L90.1381 102.663L90.5684 103.565ZM85.2258 102.672H84.2258V103.672H85.2258V102.672ZM90.2787 102.104L90.9564 102.84L90.9567 102.839L90.2787 102.104ZM90.5805 99.5568L89.7213 100.068L89.7239 100.073L90.5805 99.5568ZM89.6689 98.6996L89.1863 99.5754L89.1932 99.5792L89.6689 98.6996ZM85.2258 98.3736V97.3736H84.2258V98.3736H85.2258ZM85.2258 97.0696H84.2258V98.0696H85.2258V97.0696ZM89.2222 96.804L88.7869 95.9037L88.783 95.9056L89.2222 96.804ZM90.0915 96.0554L89.2626 95.4959L89.2579 95.5031L90.0915 96.0554ZM89.8501 93.538L89.1392 94.2414L89.1429 94.2451L89.8501 93.538ZM85.2258 92.9645V91.9645H84.2258V92.9645H85.2258ZM84.7286 104V91.6364H82.7286V104H84.7286ZM83.7286 92.6364H88.051V90.6364H83.7286V92.6364ZM88.051 92.6364C88.8046 92.6364 89.3399 92.7676 89.7122 92.9658L90.652 91.2004C89.9054 90.8029 89.0201 90.6364 88.051 90.6364V92.6364ZM89.7171 92.9684C90.1224 93.1813 90.386 93.4453 90.5549 93.7532L92.3085 92.7915C91.9301 92.1014 91.3606 91.5725 90.647 91.1978L89.7171 92.9684ZM90.5566 93.7562C90.7429 94.0932 90.8422 94.4743 90.8422 94.9205H92.8422C92.8422 94.1593 92.668 93.4416 92.3069 92.7885L90.5566 93.7562ZM90.8422 94.9205C90.8422 95.3399 90.7667 95.6001 90.681 95.7569L92.436 96.7161C92.7286 96.1807 92.8422 95.5635 92.8422 94.9205H90.8422ZM90.6767 95.7649C90.5644 95.9748 90.4289 96.1191 90.2724 96.2221L91.3716 97.8929C91.8268 97.5935 92.1823 97.1904 92.4403 96.7082L90.6767 95.7649ZM90.2673 96.2255C90.056 96.3664 89.8266 96.4708 89.5749 96.5395L90.1011 98.469C90.5577 98.3445 90.9843 98.1511 91.3767 97.8896L90.2673 96.2255ZM88.838 97.5043V97.625H90.838V97.5043H88.838ZM89.7743 98.623C89.9561 98.6346 90.1769 98.6996 90.445 98.8689L91.513 97.1779C91.0163 96.8643 90.4765 96.6637 89.9017 96.627L89.7743 98.623ZM90.445 98.8689C90.6697 99.0109 90.8821 99.228 91.0706 99.5579L92.8071 98.5657C92.4804 97.994 92.0529 97.5189 91.513 97.1779L90.445 98.8689ZM91.0706 99.5579C91.2224 99.8236 91.3252 100.194 91.3252 100.716H93.3252C93.3252 99.9338 93.1704 99.2015 92.8071 98.5657L91.0706 99.5579ZM91.3252 100.716C91.3252 101.178 91.222 101.562 91.0335 101.894L92.7717 102.883C93.1467 102.224 93.3252 101.493 93.3252 100.716H91.3252ZM91.0335 101.894C90.8702 102.18 90.5957 102.444 90.1381 102.663L90.9988 104.468C91.7567 104.107 92.3716 103.586 92.7717 102.883L91.0335 101.894ZM90.1381 102.663C89.711 102.866 89.0825 103 88.1959 103V105C89.2573 105 90.2104 104.844 90.9988 104.468L90.1381 102.663ZM88.1959 103H83.7286V105H88.1959V103ZM85.2258 103.672H88.1959V101.672H85.2258V103.672ZM88.1959 103.672C89.2525 103.672 90.2647 103.477 90.9564 102.84L89.601 101.369C89.4716 101.488 89.0954 101.672 88.1959 101.672V103.672ZM90.9567 102.839C91.5676 102.276 91.9005 101.55 91.9005 100.716H89.9005C89.9005 100.968 89.8188 101.168 89.6007 101.369L90.9567 102.839ZM91.9005 100.716C91.9005 100.118 91.7455 99.5528 91.4372 99.0409L89.7239 100.073C89.8422 100.269 89.9005 100.477 89.9005 100.716H91.9005ZM91.4397 99.0452C91.1271 98.5203 90.6853 98.1124 90.1446 97.82L89.1932 99.5792C89.4414 99.7134 89.6073 99.877 89.7213 100.068L91.4397 99.0452ZM90.1516 97.8237C89.5827 97.5103 88.9432 97.3736 88.2684 97.3736V99.3736C88.6722 99.3736 88.9664 99.4542 89.1863 99.5754L90.1516 97.8237ZM88.2684 97.3736H85.2258V99.3736H88.2684V97.3736ZM84.2258 98.3736V102.672H86.2258V98.3736H84.2258ZM85.2258 98.0696H88.0028V96.0696H85.2258V98.0696ZM88.0028 98.0696C88.5876 98.0696 89.147 97.9538 89.6614 97.7024L88.783 95.9056C88.573 96.0083 88.3194 96.0696 88.0028 96.0696V98.0696ZM89.6575 97.7043C90.1764 97.4534 90.6074 97.0874 90.9252 96.6077L89.2579 95.5031C89.1491 95.6673 89.0005 95.8004 88.7869 95.9037L89.6575 97.7043ZM90.9204 96.6149C91.2623 96.1084 91.4175 95.5299 91.4175 94.9205H89.4175C89.4175 95.1803 89.3554 95.3585 89.2627 95.4959L90.9204 96.6149ZM91.4175 94.9205C91.4175 94.1165 91.1263 93.4 90.5572 92.8309L89.1429 94.2451C89.3305 94.4326 89.4175 94.6377 89.4175 94.9205H91.4175ZM90.5609 92.8346C89.9159 92.1828 89.0009 91.9645 88.051 91.9645V93.9645C88.7432 93.9645 89.0276 94.1286 89.1392 94.2414L90.5609 92.8346ZM88.051 91.9645H85.2258V93.9645H88.051V91.9645ZM84.2258 92.9645V97.0696H86.2258V92.9645H84.2258ZM102.899 91.6364V90.6364H101.899V91.6364H102.899ZM104.396 91.6364H105.396V90.6364H104.396V91.6364ZM103.798 102.086L102.941 101.572L102.94 101.573L103.798 102.086ZM102.126 103.65L102.591 104.535L102.595 104.533L102.126 103.65ZM97.0551 103.65L96.5863 104.533L96.5902 104.535L97.0551 103.65ZM95.3769 102.086L94.5171 102.597L94.5208 102.603L95.3769 102.086ZM94.7852 91.6364V90.6364H93.7852V91.6364H94.7852ZM96.2824 91.6364H97.2824V90.6364H96.2824V91.6364ZM96.6808 101.314L95.8099 101.805L95.8117 101.808L96.6808 101.314ZM97.8158 102.418L97.3344 103.295L97.343 103.299L97.8158 102.418ZM101.366 102.418L101.838 103.3L101.844 103.296L101.366 102.418ZM102.5 101.314L101.629 100.822L101.628 100.825L102.5 101.314ZM102.899 92.6364H104.396V90.6364H102.899V92.6364ZM103.396 91.6364V99.8224H105.396V91.6364H103.396ZM103.396 99.8224C103.396 100.503 103.238 101.077 102.941 101.572L104.656 102.601C105.156 101.767 105.396 100.832 105.396 99.8224H103.396ZM102.94 101.573C102.645 102.067 102.227 102.464 101.657 102.767L102.595 104.533C103.466 104.071 104.163 103.426 104.657 102.599L102.94 101.573ZM101.661 102.765C101.109 103.054 100.43 103.217 99.5906 103.217V105.217C100.692 105.217 101.702 105.002 102.591 104.535L101.661 102.765ZM99.5906 103.217C98.7517 103.217 98.072 103.054 97.5201 102.765L96.5902 104.535C97.4791 105.002 98.4897 105.217 99.5906 105.217V103.217ZM97.5239 102.767C96.9538 102.464 96.5324 102.065 96.233 101.569L94.5208 102.603C95.0182 103.427 95.7157 104.071 96.5863 104.533L97.5239 102.767ZM96.2366 101.576C95.9425 101.08 95.7852 100.505 95.7852 99.8224H93.7852C93.7852 100.83 94.0224 101.764 94.5171 102.597L96.2366 101.576ZM95.7852 99.8224V91.6364H93.7852V99.8224H95.7852ZM94.7852 92.6364H96.2824V90.6364H94.7852V92.6364ZM95.2824 91.6364V99.7017H97.2824V91.6364H95.2824ZM95.2824 99.7017C95.2824 100.457 95.4501 101.167 95.8099 101.805L97.5518 100.822C97.3803 100.518 97.2824 100.154 97.2824 99.7017H95.2824ZM95.8117 101.808C96.1728 102.443 96.6886 102.94 97.3344 103.295L98.2972 101.542C97.961 101.357 97.7201 101.118 97.55 100.819L95.8117 101.808ZM97.343 103.299C98.0126 103.659 98.7741 103.817 99.5906 103.817V101.817C99.0307 101.817 98.609 101.709 98.2886 101.537L97.343 103.299ZM99.5906 103.817C100.407 103.817 101.169 103.659 101.838 103.299L100.893 101.537C100.572 101.709 100.151 101.817 99.5906 101.817V103.817ZM101.844 103.296C102.495 102.942 103.014 102.442 103.373 101.802L101.628 100.825C101.464 101.118 101.226 101.356 100.887 101.54L101.844 103.296ZM103.371 101.805C103.731 101.167 103.899 100.457 103.899 99.7017H101.899C101.899 100.154 101.801 100.518 101.629 100.822L103.371 101.805ZM103.899 99.7017V91.6364H101.899V99.7017H103.899ZM106.71 92.9645H105.71V93.9645H106.71V92.9645ZM106.71 91.6364V90.6364H105.71V91.6364H106.71ZM115.982 91.6364H116.982V90.6364H115.982V91.6364ZM115.982 92.9645V93.9645H116.982V92.9645H115.982ZM112.095 92.9645V91.9645H111.095V92.9645H112.095ZM112.095 104V105H113.095V104H112.095ZM110.597 104H109.597V105H110.597V104ZM110.597 92.9645H111.597V91.9645H110.597V92.9645ZM107.71 92.9645V91.6364H105.71V92.9645H107.71ZM106.71 92.6364H115.982V90.6364H106.71V92.6364ZM114.982 91.6364V92.9645H116.982V91.6364H114.982ZM115.982 91.9645H112.095V93.9645H115.982V91.9645ZM111.095 92.9645V104H113.095V92.9645H111.095ZM112.095 103H110.597V105H112.095V103ZM111.597 104V92.9645H109.597V104H111.597ZM110.597 91.9645H106.71V93.9645H110.597V91.9645ZM118.293 104H117.293V105H118.293V104ZM118.293 91.6364V90.6364H117.293V91.6364H118.293ZM125.755 91.6364H126.755V90.6364H125.755V91.6364ZM125.755 92.9645V93.9645H126.755V92.9645H125.755ZM119.79 92.9645V91.9645H118.79V92.9645H119.79ZM119.79 97.142H118.79V98.142H119.79V97.142ZM125.368 97.142H126.368V96.142H125.368V97.142ZM125.368 98.4702V99.4702H126.368V98.4702H125.368ZM119.79 98.4702V97.4702H118.79V98.4702H119.79ZM119.79 102.672H118.79V103.672H119.79V102.672ZM125.851 102.672H126.851V101.672H125.851V102.672ZM125.851 104V105H126.851V104H125.851ZM119.293 104V91.6364H117.293V104H119.293ZM118.293 92.6364H125.755V90.6364H118.293V92.6364ZM124.755 91.6364V92.9645H126.755V91.6364H124.755ZM125.755 91.9645H119.79V93.9645H125.755V91.9645ZM118.79 92.9645V97.142H120.79V92.9645H118.79ZM119.79 98.142H125.368V96.142H119.79V98.142ZM124.368 97.142V98.4702H126.368V97.142H124.368ZM125.368 97.4702H119.79V99.4702H125.368V97.4702ZM118.79 98.4702V102.672H120.79V98.4702H118.79ZM119.79 103.672H125.851V101.672H119.79V103.672ZM124.851 102.672V104H126.851V102.672H124.851ZM125.851 103H118.293V105H125.851V103ZM135.215 94.7273L134.222 94.8449L134.326 95.7273H135.215V94.7273ZM134.333 93.3026L133.785 94.1386V94.1386L134.333 93.3026ZM131.001 93.0611L130.605 92.1429L130.601 92.1443L131.001 93.0611ZM130.047 93.7915L129.243 93.1965L129.238 93.2034L130.047 93.7915ZM129.944 95.6992L129.11 96.2507L129.116 96.2589L129.121 96.267L129.944 95.6992ZM130.56 96.2848L130.028 97.1313L130.038 97.1374L130.56 96.2848ZM131.345 96.6651L131 97.6038L131.012 97.6081L131.345 96.6651ZM132.1 96.9006L132.359 95.9349L132.354 95.9335L132.1 96.9006ZM133.355 97.2386L133.095 98.2043L133.101 98.2059L133.355 97.2386ZM134.43 97.5888L134.077 98.5243L134.08 98.5255L134.43 97.5888ZM135.571 98.1985L134.991 99.0135L135.002 99.0207L135.571 98.1985ZM136.476 99.1765L137.335 98.6645V98.6645L136.476 99.1765ZM136.307 102.455L135.469 101.91L135.466 101.914L136.307 102.455ZM134.786 103.74L134.356 102.837L134.354 102.838L134.786 103.74ZM130.065 103.789L129.659 104.703L129.662 104.704L130.065 103.789ZM128.544 102.593L127.731 103.176L127.734 103.18L128.544 102.593ZM127.922 100.812V99.8125H126.848L126.925 100.884L127.922 100.812ZM129.467 100.812L130.464 100.727L130.385 99.8125H129.467V100.812ZM129.938 101.972L129.193 102.638L129.202 102.649L129.938 101.972ZM130.989 102.648L130.656 103.591L130.667 103.595L130.989 102.648ZM133.905 102.587L134.282 103.514L134.289 103.511L133.905 102.587ZM134.985 101.803L135.768 102.425L135.771 102.42L134.985 101.803ZM135.04 99.6172L135.786 98.9521L135.04 99.6172ZM134.134 98.9893L133.739 99.908L134.134 98.9893ZM132.921 98.5668L132.646 99.5283L132.653 99.5303L132.921 98.5668ZM131.399 98.1321L131.123 99.0932L131.125 99.0936L131.399 98.1321ZM129.105 96.9428L128.43 97.6809L129.105 96.9428ZM128.821 93.1094L128.013 92.5205L128.012 92.5216L128.821 93.1094ZM130.343 91.902L130.753 92.8141L130.755 92.8129L130.343 91.902ZM134.611 91.896L134.192 92.8041L134.197 92.8063L134.611 91.896ZM136.084 93.055L135.279 93.6487L135.282 93.6529L136.084 93.055ZM136.663 94.7273V95.7273H137.696L137.663 94.695L136.663 94.7273ZM136.208 94.6097C136.1 93.7045 135.644 92.9666 134.882 92.4665L133.785 94.1386C134.053 94.3146 134.184 94.5266 134.222 94.8449L136.208 94.6097ZM134.882 92.4665C134.172 92.0004 133.339 91.7955 132.438 91.7955V93.7955C133.033 93.7955 133.464 93.9286 133.785 94.1386L134.882 92.4665ZM132.438 91.7955C131.784 91.7955 131.165 91.9012 130.605 92.1429L131.397 93.9793C131.658 93.8668 131.997 93.7955 132.438 93.7955V91.7955ZM130.601 92.1443C130.059 92.3807 129.592 92.7259 129.243 93.1966L130.851 94.3865C130.961 94.2374 131.13 94.0956 131.4 93.9779L130.601 92.1443ZM129.238 93.2034C128.885 93.6895 128.709 94.2489 128.709 94.848H130.709C130.709 94.6583 130.758 94.5134 130.856 94.3797L129.238 93.2034ZM128.709 94.848C128.709 95.3421 128.829 95.8248 129.11 96.2507L130.779 95.1478C130.746 95.0987 130.709 95.014 130.709 94.848H128.709ZM129.121 96.267C129.362 96.6165 129.668 96.905 130.028 97.1313L131.093 95.4383C130.953 95.3507 130.848 95.2488 130.768 95.1315L129.121 96.267ZM130.038 97.1374C130.343 97.3246 130.664 97.4803 131 97.6037L131.69 95.7265C131.478 95.6488 131.276 95.5508 131.083 95.4322L130.038 97.1374ZM131.012 97.6081C131.306 97.7119 131.584 97.799 131.845 97.8676L132.354 95.9335C132.156 95.8814 131.931 95.8116 131.678 95.7221L131.012 97.6081ZM131.84 97.8662L133.095 98.2043L133.615 96.273L132.359 95.935L131.84 97.8662ZM133.101 98.2059C133.382 98.2796 133.707 98.3846 134.077 98.5243L134.783 96.6532C134.364 96.4951 133.972 96.3667 133.609 96.2714L133.101 98.2059ZM134.08 98.5255C134.393 98.6426 134.697 98.804 134.991 99.0135L136.15 97.3836C135.72 97.0779 135.263 96.8328 134.78 96.6521L134.08 98.5255ZM135.002 99.0207C135.245 99.1894 135.45 99.4078 135.617 99.6884L137.335 98.6645C137.028 98.1483 136.629 97.7147 136.14 97.3763L135.002 99.0207ZM135.617 99.6884C135.742 99.8978 135.832 100.2 135.832 100.643H137.832C137.832 99.9282 137.685 99.2521 137.335 98.6645L135.617 99.6884ZM135.832 100.643C135.832 101.126 135.709 101.539 135.469 101.91L137.146 102.999C137.606 102.291 137.832 101.497 137.832 100.643H135.832ZM135.466 101.914C135.235 102.274 134.882 102.587 134.356 102.837L135.216 104.643C136.026 104.258 136.687 103.714 137.149 102.995L135.466 101.914ZM134.354 102.838C133.858 103.076 133.207 103.217 132.365 103.217V105.217C133.423 105.217 134.386 105.041 135.218 104.642L134.354 102.838ZM132.365 103.217C131.585 103.217 130.962 103.091 130.469 102.874L129.662 104.704C130.464 105.058 131.374 105.217 132.365 105.217V103.217ZM130.471 102.875C129.969 102.652 129.609 102.359 129.354 102.007L127.734 103.18C128.219 103.85 128.873 104.354 129.659 104.703L130.471 102.875ZM129.357 102.011C129.106 101.662 128.956 101.248 128.919 100.741L126.925 100.884C126.985 101.729 127.249 102.503 127.731 103.176L129.357 102.011ZM127.922 101.812H129.467V99.8125H127.922V101.812ZM128.471 100.898C128.527 101.549 128.755 102.149 129.193 102.638L130.684 101.305C130.574 101.183 130.488 101.01 130.464 100.727L128.471 100.898ZM129.202 102.649C129.601 103.082 130.094 103.393 130.656 103.591L131.321 101.705C131.038 101.605 130.831 101.465 130.674 101.295L129.202 102.649ZM130.667 103.595C131.206 103.778 131.775 103.865 132.365 103.865V101.865C131.974 101.865 131.624 101.808 131.31 101.701L130.667 103.595ZM132.365 103.865C133.045 103.865 133.689 103.755 134.282 103.514L133.528 101.661C133.21 101.79 132.828 101.865 132.365 101.865V103.865ZM134.289 103.511C134.875 103.267 135.382 102.911 135.768 102.425L134.202 101.18C134.057 101.363 133.843 101.53 133.521 101.664L134.289 103.511ZM135.771 102.42C136.183 101.897 136.384 101.282 136.384 100.619H134.384C134.384 100.858 134.319 101.032 134.199 101.185L135.771 102.42ZM136.384 100.619C136.384 100.013 136.209 99.4265 135.786 98.9521L134.293 100.282C134.329 100.323 134.384 100.405 134.384 100.619H136.384ZM135.786 98.9521C135.444 98.5673 135.014 98.2791 134.529 98.0707L133.739 99.908C134.003 100.022 134.177 100.152 134.293 100.282L135.786 98.9521ZM134.529 98.0707C134.109 97.8901 133.662 97.7348 133.188 97.6032L132.653 99.5303C133.049 99.6402 133.41 99.7666 133.739 99.908L134.529 98.0707ZM133.195 97.6052L131.674 97.1706L131.125 99.0936L132.646 99.5283L133.195 97.6052ZM131.676 97.171C130.813 96.923 130.199 96.5883 129.78 96.2048L128.43 97.6809C129.138 98.3277 130.054 98.7858 131.123 99.0932L131.676 97.171ZM129.78 96.2048C129.444 95.8976 129.26 95.5014 129.26 94.9205H127.26C127.26 96.0057 127.64 96.9578 128.43 97.6809L129.78 96.2048ZM129.26 94.9205C129.26 94.42 129.391 94.0264 129.63 93.6972L128.012 92.5216C127.503 93.2226 127.26 94.0364 127.26 94.9205H129.26ZM129.63 93.6983C129.897 93.3315 130.261 93.0349 130.753 92.8141L129.933 90.9899C129.152 91.3406 128.503 91.8489 128.013 92.5205L129.63 93.6983ZM130.755 92.8129C131.251 92.5887 131.822 92.4673 132.486 92.4673V90.4673C131.572 90.4673 130.715 90.6357 129.93 90.991L130.755 92.8129ZM132.486 92.4673C133.162 92.4673 133.724 92.5882 134.192 92.8041L135.03 90.9878C134.258 90.6322 133.403 90.4673 132.486 90.4673V92.4673ZM134.197 92.8063C134.68 93.0258 135.029 93.3102 135.279 93.6487L136.889 92.4614C136.414 91.8179 135.781 91.3295 135.025 90.9856L134.197 92.8063ZM135.282 93.6529C135.524 93.9768 135.65 94.3359 135.664 94.7595L137.663 94.695C137.636 93.871 137.376 93.1153 136.885 92.4571L135.282 93.6529ZM136.663 93.7273H135.215V95.7273H136.663V93.7273ZM139.373 102.098L138.665 102.805L139.373 102.098ZM139.373 100.565L138.665 99.8579L139.373 100.565ZM140.906 100.565L141.613 99.8579L140.906 100.565ZM141.075 101.875L140.221 101.354L140.216 101.362L140.212 101.37L141.075 101.875ZM140.683 102.273L141.197 103.131L141.203 103.127L140.683 102.273ZM139.373 94.3107L140.08 95.0178V95.0178L139.373 94.3107ZM140.906 94.3107L140.199 95.0178L140.199 95.0178L140.906 94.3107ZM141.075 95.6207L140.221 95.1001L140.216 95.1078L140.212 95.1156L141.075 95.6207ZM140.683 96.0192L141.197 96.8767L141.203 96.873L140.683 96.0192ZM140.139 101.418C140.125 101.418 140.116 101.417 140.113 101.416C140.111 101.416 140.11 101.416 140.11 101.416C140.109 101.416 140.109 101.415 140.109 101.415C140.109 101.415 140.109 101.415 140.108 101.415C140.108 101.415 140.106 101.414 140.104 101.412C140.1 101.41 140.092 101.403 140.08 101.391L138.665 102.805C139.064 103.204 139.572 103.418 140.139 103.418V101.418ZM140.08 101.391C140.068 101.379 140.061 101.371 140.059 101.367C140.057 101.365 140.056 101.363 140.056 101.363C140.056 101.362 140.055 101.362 140.055 101.362C140.055 101.362 140.055 101.361 140.055 101.361C140.055 101.361 140.055 101.36 140.054 101.358C140.054 101.354 140.053 101.346 140.053 101.332H138.053C138.053 101.899 138.267 102.407 138.665 102.805L140.08 101.391ZM140.053 101.332C140.053 101.317 140.054 101.309 140.054 101.305C140.055 101.304 140.055 101.303 140.055 101.302C140.055 101.302 140.055 101.302 140.055 101.302C140.055 101.302 140.056 101.301 140.056 101.301C140.056 101.3 140.057 101.299 140.059 101.297C140.061 101.292 140.068 101.284 140.08 101.272L138.665 99.8579C138.267 100.256 138.053 100.765 138.053 101.332H140.053ZM140.08 101.272C140.092 101.26 140.1 101.254 140.104 101.251C140.106 101.25 140.108 101.249 140.108 101.248C140.109 101.248 140.109 101.248 140.109 101.248C140.109 101.248 140.109 101.248 140.11 101.248C140.11 101.248 140.111 101.247 140.113 101.247C140.116 101.246 140.125 101.245 140.139 101.245V99.245C139.572 99.245 139.064 99.4598 138.665 99.8579L140.08 101.272ZM140.139 101.245C140.154 101.245 140.162 101.246 140.165 101.247C140.167 101.247 140.168 101.248 140.169 101.248C140.169 101.248 140.169 101.248 140.169 101.248C140.169 101.248 140.169 101.248 140.17 101.248C140.171 101.249 140.172 101.25 140.174 101.251C140.178 101.254 140.187 101.26 140.199 101.272L141.613 99.8579C141.215 99.4598 140.706 99.245 140.139 99.245V101.245ZM140.199 101.272C140.211 101.284 140.217 101.292 140.22 101.297C140.221 101.299 140.222 101.3 140.222 101.301C140.223 101.301 140.223 101.302 140.223 101.302C140.223 101.302 140.223 101.302 140.223 101.302C140.223 101.303 140.224 101.304 140.224 101.305C140.225 101.309 140.226 101.317 140.226 101.332H142.226C142.226 100.765 142.011 100.256 141.613 99.8579L140.199 101.272ZM140.226 101.332C140.226 101.338 140.225 101.343 140.225 101.345C140.225 101.347 140.225 101.348 140.225 101.348C140.225 101.348 140.225 101.348 140.224 101.349C140.224 101.349 140.223 101.351 140.221 101.354L141.929 102.396C142.127 102.07 142.226 101.709 142.226 101.332H140.226ZM140.212 101.37C140.2 101.39 140.187 101.404 140.162 101.42L141.203 103.127C141.508 102.941 141.757 102.69 141.938 102.38L140.212 101.37ZM140.168 101.416C140.167 101.416 140.167 101.416 140.168 101.416C140.169 101.416 140.169 101.416 140.168 101.416C140.168 101.416 140.159 101.418 140.139 101.418V103.418C140.508 103.418 140.869 103.327 141.197 103.131L140.168 101.416ZM140.139 95.1641C140.125 95.1641 140.116 95.1628 140.113 95.1621C140.111 95.1618 140.11 95.1615 140.11 95.1614C140.109 95.1613 140.109 95.1612 140.109 95.1612C140.109 95.1612 140.109 95.1611 140.108 95.1607C140.108 95.1603 140.106 95.1595 140.104 95.1581C140.1 95.1553 140.092 95.1491 140.08 95.137L138.665 96.5512C139.064 96.9493 139.572 97.1641 140.139 97.1641V95.1641ZM140.08 95.137C140.068 95.1249 140.061 95.1166 140.059 95.1125C140.057 95.1104 140.056 95.109 140.056 95.1083C140.056 95.1077 140.055 95.1074 140.055 95.1073C140.055 95.1073 140.055 95.1072 140.055 95.1068C140.055 95.1064 140.055 95.1054 140.054 95.1036C140.054 95.1002 140.053 95.0919 140.053 95.0774H138.053C138.053 95.6443 138.267 96.1531 138.665 96.5512L140.08 95.137ZM140.053 95.0774C140.053 95.0629 140.054 95.0546 140.054 95.0512C140.055 95.0494 140.055 95.0484 140.055 95.048C140.055 95.0477 140.055 95.0475 140.055 95.0475C140.055 95.0475 140.056 95.0472 140.056 95.0465C140.056 95.0458 140.057 95.0444 140.059 95.0423C140.061 95.0382 140.068 95.0299 140.08 95.0178L138.665 93.6036C138.267 94.0017 138.053 94.5106 138.053 95.0774H140.053ZM140.08 95.0178C140.092 95.0058 140.1 94.9995 140.104 94.9967C140.106 94.9953 140.108 94.9945 140.108 94.9941C140.109 94.9938 140.109 94.9936 140.109 94.9936C140.109 94.9936 140.109 94.9935 140.11 94.9934C140.11 94.9933 140.111 94.993 140.113 94.9927C140.116 94.992 140.125 94.9908 140.139 94.9908V92.9908C139.572 92.9908 139.064 93.2055 138.665 93.6036L140.08 95.0178ZM140.139 94.9908C140.154 94.9908 140.162 94.992 140.165 94.9927C140.167 94.993 140.168 94.9933 140.169 94.9934C140.169 94.9935 140.169 94.9936 140.169 94.9936C140.169 94.9936 140.169 94.9938 140.17 94.9941C140.171 94.9945 140.172 94.9953 140.174 94.9967C140.178 94.9995 140.187 95.0058 140.199 95.0178L141.613 93.6036C141.215 93.2055 140.706 92.9908 140.139 92.9908V94.9908ZM140.199 95.0178C140.211 95.0299 140.217 95.0382 140.22 95.0423C140.221 95.0444 140.222 95.0458 140.222 95.0465C140.223 95.0472 140.223 95.0475 140.223 95.0475C140.223 95.0475 140.223 95.0477 140.223 95.048C140.223 95.0484 140.224 95.0494 140.224 95.0512C140.225 95.0546 140.226 95.0629 140.226 95.0774H142.226C142.226 94.5106 142.011 94.0017 141.613 93.6036L140.199 95.0178ZM140.226 95.0774C140.226 95.0841 140.225 95.0883 140.225 95.0905C140.225 95.0926 140.225 95.0935 140.225 95.0935C140.225 95.0935 140.225 95.0937 140.224 95.0943C140.224 95.0949 140.223 95.0968 140.221 95.1001L141.929 96.1413C142.127 95.8162 142.226 95.4543 142.226 95.0774H140.226ZM140.212 95.1156C140.2 95.1362 140.187 95.1499 140.162 95.1654L141.203 96.873C141.508 96.6872 141.757 96.4353 141.938 96.1259L140.212 95.1156ZM140.168 95.1617C140.167 95.1621 140.167 95.162 140.168 95.1617C140.169 95.1615 140.169 95.1615 140.168 95.1616C140.168 95.1618 140.159 95.1641 140.139 95.1641V97.1641C140.508 97.1641 140.869 97.0732 141.197 96.8767L140.168 95.1617Z" fill="white"/>
<path d="M36.4972 528.636H38.2841L42.4858 538.899H42.6307L46.8324 528.636H48.6193V541H47.2188V531.607H47.098L43.2344 541H41.8821L38.0185 531.607H37.8977V541H36.4972V528.636ZM51.6212 541V528.636H59.0828V529.964H53.1183V534.142H58.6965V535.47H53.1183V539.672H59.1794V541H51.6212ZM61.1052 529.964V528.636H70.3779V529.964H66.4901V541H64.993V529.964H61.1052ZM72.6886 541V528.636H74.1857V534.142H80.7781V528.636H82.2752V541H80.7781V535.47H74.1857V541H72.6886ZM95.7044 534.818C95.7044 536.122 95.4689 537.249 94.998 538.199C94.5272 539.149 93.8812 539.881 93.0602 540.396C92.2392 540.911 91.3014 541.169 90.247 541.169C89.1925 541.169 88.2548 540.911 87.4338 540.396C86.6127 539.881 85.9668 539.149 85.4959 538.199C85.025 537.249 84.7896 536.122 84.7896 534.818C84.7896 533.514 85.025 532.387 85.4959 531.438C85.9668 530.488 86.6127 529.755 87.4338 529.24C88.2548 528.725 89.1925 528.467 90.247 528.467C91.3014 528.467 92.2392 528.725 93.0602 529.24C93.8812 529.755 94.5272 530.488 94.998 531.438C95.4689 532.387 95.7044 533.514 95.7044 534.818ZM94.2555 534.818C94.2555 533.748 94.0764 532.844 93.7182 532.108C93.3641 531.371 92.8831 530.814 92.2754 530.435C91.6717 530.057 90.9956 529.868 90.247 529.868C89.4984 529.868 88.8203 530.057 88.2125 530.435C87.6088 530.814 87.1279 531.371 86.7697 532.108C86.4155 532.844 86.2385 533.748 86.2385 534.818C86.2385 535.889 86.4155 536.792 86.7697 537.529C87.1279 538.265 87.6088 538.823 88.2125 539.201C88.8203 539.579 89.4984 539.768 90.247 539.768C90.9956 539.768 91.6717 539.579 92.2754 539.201C92.8831 538.823 93.3641 538.265 93.7182 537.529C94.0764 536.792 94.2555 535.889 94.2555 534.818ZM102.037 541H98.2218V528.636H102.206C103.405 528.636 104.432 528.884 105.285 529.379C106.138 529.87 106.792 530.576 107.247 531.498C107.702 532.415 107.929 533.514 107.929 534.794C107.929 536.082 107.7 537.191 107.241 538.12C106.782 539.046 106.114 539.758 105.237 540.257C104.359 540.752 103.293 541 102.037 541ZM99.7189 539.672H101.941C102.963 539.672 103.81 539.475 104.482 539.08C105.154 538.686 105.655 538.124 105.985 537.396C106.315 536.667 106.48 535.8 106.48 534.794C106.48 533.796 106.317 532.937 105.991 532.216C105.665 531.492 105.178 530.936 104.53 530.55C103.882 530.16 103.075 529.964 102.11 529.964H99.7189V539.672ZM117.202 531.727C117.129 531.116 116.836 530.641 116.32 530.303C115.805 529.964 115.173 529.795 114.425 529.795C113.878 529.795 113.399 529.884 112.988 530.061C112.582 530.238 112.264 530.482 112.034 530.792C111.809 531.101 111.696 531.454 111.696 531.848C111.696 532.178 111.775 532.462 111.932 532.699C112.093 532.933 112.298 533.128 112.547 533.285C112.797 533.438 113.059 533.565 113.332 533.665C113.606 533.762 113.857 533.84 114.087 533.901L115.343 534.239C115.664 534.323 116.023 534.44 116.417 534.589C116.816 534.738 117.196 534.941 117.558 535.199C117.924 535.452 118.226 535.778 118.464 536.176C118.701 536.575 118.82 537.064 118.82 537.643C118.82 538.312 118.645 538.915 118.295 539.455C117.948 539.994 117.441 540.422 116.773 540.74C116.109 541.058 115.302 541.217 114.352 541.217C113.467 541.217 112.7 541.074 112.052 540.789C111.408 540.503 110.901 540.105 110.531 539.593C110.165 539.082 109.958 538.489 109.909 537.812H111.455C111.495 538.279 111.652 538.666 111.926 538.972C112.203 539.273 112.553 539.499 112.976 539.648C113.403 539.793 113.861 539.865 114.352 539.865C114.924 539.865 115.437 539.772 115.892 539.587C116.347 539.398 116.707 539.137 116.972 538.803C117.238 538.464 117.371 538.07 117.371 537.619C117.371 537.209 117.256 536.875 117.027 536.617C116.797 536.36 116.496 536.15 116.121 535.989C115.747 535.828 115.343 535.687 114.908 535.567L113.387 535.132C112.421 534.854 111.656 534.458 111.093 533.943C110.529 533.428 110.247 532.754 110.247 531.92C110.247 531.228 110.434 530.625 110.809 530.109C111.187 529.59 111.694 529.188 112.33 528.902C112.97 528.612 113.684 528.467 114.473 528.467C115.27 528.467 115.978 528.61 116.598 528.896C117.218 529.178 117.709 529.564 118.071 530.055C118.437 530.546 118.631 531.103 118.651 531.727H117.202ZM122.127 539.418C121.829 539.418 121.573 539.312 121.36 539.098C121.147 538.885 121.04 538.629 121.04 538.332C121.04 538.034 121.147 537.778 121.36 537.565C121.573 537.352 121.829 537.245 122.127 537.245C122.424 537.245 122.68 537.352 122.893 537.565C123.107 537.778 123.213 538.034 123.213 538.332C123.213 538.529 123.163 538.71 123.062 538.875C122.966 539.04 122.835 539.173 122.67 539.273C122.509 539.37 122.328 539.418 122.127 539.418ZM122.127 533.164C121.829 533.164 121.573 533.057 121.36 532.844C121.147 532.631 121.04 532.375 121.04 532.077C121.04 531.78 121.147 531.524 121.36 531.311C121.573 531.097 121.829 530.991 122.127 530.991C122.424 530.991 122.68 531.097 122.893 531.311C123.107 531.524 123.213 531.78 123.213 532.077C123.213 532.275 123.163 532.456 123.062 532.621C122.966 532.786 122.835 532.919 122.67 533.019C122.509 533.116 122.328 533.164 122.127 533.164Z" fill="white"/>
</svg>
