<svg width="420" height="700" viewBox="0 0 420 700" fill="none" xmlns="http://www.w3.org/2000/svg">
<rect width="420" height="700" rx="20" fill="white"/>
<path d="M131.438 42C131.438 43.6875 131.133 45.1458 130.523 46.375C129.914 47.6042 129.078 48.5521 128.016 49.2188C126.953 49.8854 125.74 50.2187 124.375 50.2187C123.01 50.2187 121.797 49.8854 120.734 49.2188C119.672 48.5521 118.836 47.6042 118.227 46.375C117.617 45.1458 117.313 43.6875 117.313 42C117.313 40.3125 117.617 38.8542 118.227 37.625C118.836 36.3958 119.672 35.4479 120.734 34.7812C121.797 34.1146 123.01 33.7812 124.375 33.7812C125.74 33.7812 126.953 34.1146 128.016 34.7812C129.078 35.4479 129.914 36.3958 130.523 37.625C131.133 38.8542 131.438 40.3125 131.438 42ZM129.563 42C129.563 40.6146 129.331 39.4453 128.867 38.4922C128.409 37.5391 127.786 36.8177 127 36.3281C126.219 35.8385 125.344 35.5937 124.375 35.5937C123.406 35.5937 122.529 35.8385 121.742 36.3281C120.961 36.8177 120.339 37.5391 119.875 38.4922C119.417 39.4453 119.188 40.6146 119.188 42C119.188 43.3854 119.417 44.5547 119.875 45.5078C120.339 46.4609 120.961 47.1823 121.742 47.6719C122.529 48.1615 123.406 48.4062 124.375 48.4062C125.344 48.4062 126.219 48.1615 127 47.6719C127.786 47.1823 128.409 46.4609 128.867 45.5078C129.331 44.5547 129.563 43.3854 129.563 42ZM134.695 50V34H140.289C141.404 34 142.323 34.1927 143.047 34.5781C143.771 34.9583 144.31 35.4714 144.664 36.1172C145.018 36.7578 145.195 37.4687 145.195 38.25C145.195 38.9375 145.073 39.5052 144.828 39.9531C144.589 40.401 144.271 40.7552 143.875 41.0156C143.484 41.276 143.06 41.4687 142.602 41.5937V41.75C143.091 41.7812 143.583 41.9531 144.078 42.2656C144.573 42.5781 144.987 43.026 145.32 43.6094C145.654 44.1927 145.82 44.9062 145.82 45.75C145.82 46.5521 145.638 47.2734 145.273 47.9141C144.909 48.5547 144.333 49.0625 143.547 49.4375C142.76 49.8125 141.737 50 140.477 50H134.695ZM136.633 48.2812H140.477C141.742 48.2812 142.641 48.0365 143.172 47.5469C143.708 47.0521 143.977 46.4531 143.977 45.75C143.977 45.2083 143.839 44.7083 143.563 44.25C143.286 43.7865 142.893 43.4167 142.383 43.1406C141.872 42.8594 141.268 42.7188 140.57 42.7188H136.633V48.2812ZM136.633 41.0312H140.227C140.81 41.0312 141.336 40.9167 141.805 40.6875C142.279 40.4583 142.654 40.1354 142.93 39.7187C143.211 39.3021 143.352 38.8125 143.352 38.25C143.352 37.5469 143.107 36.9505 142.617 36.4609C142.128 35.9661 141.352 35.7187 140.289 35.7187H136.633V41.0312ZM155.129 34H157.066V45.4375C157.066 46.4583 156.879 47.3255 156.504 48.0391C156.129 48.7526 155.6 49.2943 154.918 49.6641C154.236 50.0339 153.431 50.2187 152.504 50.2187C151.629 50.2187 150.85 50.0599 150.168 49.7422C149.486 49.4193 148.949 48.9609 148.559 48.3672C148.168 47.7734 147.973 47.0677 147.973 46.25H149.879C149.879 46.7031 149.991 47.099 150.215 47.4375C150.444 47.7708 150.757 48.0312 151.152 48.2187C151.548 48.4062 151.999 48.5 152.504 48.5C153.061 48.5 153.535 48.3828 153.926 48.1484C154.316 47.9141 154.613 47.5703 154.816 47.1172C155.025 46.6589 155.129 46.099 155.129 45.4375V34ZM160.949 50V34H170.605V35.7187H162.887V41.125H170.105V42.8437H162.887V48.2812H170.73V50H160.949ZM186.973 39H185.035C184.921 38.4427 184.72 37.9531 184.434 37.5312C184.152 37.1094 183.809 36.7552 183.402 36.4688C183.001 36.1771 182.556 35.9583 182.066 35.8125C181.577 35.6667 181.066 35.5937 180.535 35.5937C179.566 35.5937 178.689 35.8385 177.902 36.3281C177.121 36.8177 176.499 37.5391 176.035 38.4922C175.577 39.4453 175.348 40.6146 175.348 42C175.348 43.3854 175.577 44.5547 176.035 45.5078C176.499 46.4609 177.121 47.1823 177.902 47.6719C178.689 48.1615 179.566 48.4062 180.535 48.4062C181.066 48.4062 181.577 48.3333 182.066 48.1875C182.556 48.0417 183.001 47.8255 183.402 47.5391C183.809 47.2474 184.152 46.8906 184.434 46.4687C184.72 46.0417 184.921 45.5521 185.035 45H186.973C186.827 45.8177 186.561 46.5495 186.176 47.1953C185.79 47.8411 185.311 48.3906 184.738 48.8437C184.165 49.2917 183.522 49.6328 182.809 49.8672C182.1 50.1016 181.342 50.2187 180.535 50.2187C179.171 50.2187 177.957 49.8854 176.895 49.2188C175.832 48.5521 174.996 47.6042 174.387 46.375C173.777 45.1458 173.473 43.6875 173.473 42C173.473 40.3125 173.777 38.8542 174.387 37.625C174.996 36.3958 175.832 35.4479 176.895 34.7812C177.957 34.1146 179.171 33.7812 180.535 33.7812C181.342 33.7812 182.1 33.8984 182.809 34.1328C183.522 34.3672 184.165 34.7109 184.738 35.1641C185.311 35.612 185.79 36.1589 186.176 36.8047C186.561 37.4453 186.827 38.1771 186.973 39ZM189.229 35.7187V34H201.229V35.7187H196.197V50H194.26V35.7187H189.229Z" fill="black"/>
<path d="M211.063 34L215.813 47.4687H216L220.75 34H222.781L216.906 50H214.906L209.031 34H211.063ZM225.273 50V34H234.93V35.7187H227.211V41.125H234.43V42.8437H227.211V48.2812H235.055V50H225.273ZM238.422 50V34H240.359V41.125H248.891V34H250.828V50H248.891V42.8437H240.359V50H238.422ZM256.645 34V50H254.707V34H256.645ZM273.404 39H271.467C271.352 38.4427 271.152 37.9531 270.865 37.5312C270.584 37.1094 270.24 36.7552 269.834 36.4688C269.433 36.1771 268.988 35.9583 268.498 35.8125C268.008 35.6667 267.498 35.5937 266.967 35.5937C265.998 35.5937 265.12 35.8385 264.334 36.3281C263.553 36.8177 262.93 37.5391 262.467 38.4922C262.008 39.4453 261.779 40.6146 261.779 42C261.779 43.3854 262.008 44.5547 262.467 45.5078C262.93 46.4609 263.553 47.1823 264.334 47.6719C265.12 48.1615 265.998 48.4062 266.967 48.4062C267.498 48.4062 268.008 48.3333 268.498 48.1875C268.988 48.0417 269.433 47.8255 269.834 47.5391C270.24 47.2474 270.584 46.8906 270.865 46.4687C271.152 46.0417 271.352 45.5521 271.467 45H273.404C273.258 45.8177 272.993 46.5495 272.607 47.1953C272.222 47.8411 271.743 48.3906 271.17 48.8437C270.597 49.2917 269.954 49.6328 269.24 49.8672C268.532 50.1016 267.774 50.2187 266.967 50.2187C265.602 50.2187 264.389 49.8854 263.326 49.2188C262.264 48.5521 261.428 47.6042 260.818 46.375C260.209 45.1458 259.904 43.6875 259.904 42C259.904 40.3125 260.209 38.8542 260.818 37.625C261.428 36.3958 262.264 35.4479 263.326 34.7812C264.389 34.1146 265.602 33.7812 266.967 33.7812C267.774 33.7812 268.532 33.8984 269.24 34.1328C269.954 34.3672 270.597 34.7109 271.17 35.1641C271.743 35.612 272.222 36.1589 272.607 36.8047C272.993 37.4453 273.258 38.1771 273.404 39ZM276.535 50V34H278.473V48.2812H285.91V50H276.535ZM288.91 50V34H298.566V35.7187H290.848V41.125H298.066V42.8437H290.848V48.2812H298.691V50H288.91Z" fill="#F9CE3B"/>
<rect x="17" y="114" width="178" height="58" rx="19" fill="#514D4D" stroke="#F9CE3B" stroke-width="2"/>
<path d="M21.4972 135V122.636H25.8196C26.6809 122.636 27.3912 122.785 27.9506 123.083C28.5101 123.377 28.9266 123.773 29.2003 124.272C29.474 124.767 29.6108 125.317 29.6108 125.92C29.6108 126.452 29.5162 126.89 29.3271 127.237C29.1419 127.583 28.8964 127.856 28.5906 128.058C28.2887 128.259 27.9607 128.408 27.6065 128.504V128.625C27.9848 128.649 28.3652 128.782 28.7475 129.023C29.1299 129.265 29.4498 129.611 29.7074 130.062C29.965 130.513 30.0938 131.064 30.0938 131.716C30.0938 132.336 29.9529 132.893 29.6712 133.388C29.3894 133.883 28.9447 134.276 28.337 134.565C27.7293 134.855 26.9384 135 25.9645 135H21.4972ZM22.9943 133.672H25.9645C26.9425 133.672 27.6367 133.483 28.0472 133.104C28.4618 132.722 28.669 132.259 28.669 131.716C28.669 131.297 28.5624 130.911 28.3491 130.557C28.1358 130.199 27.8319 129.913 27.4375 129.7C27.0431 129.482 26.5762 129.374 26.0369 129.374H22.9943V133.672ZM22.9943 128.07H25.7713C26.2221 128.07 26.6286 127.981 26.9908 127.804C27.357 127.627 27.6468 127.377 27.8601 127.055C28.0774 126.733 28.1861 126.355 28.1861 125.92C28.1861 125.377 27.9969 124.916 27.6186 124.538C27.2403 124.156 26.6406 123.964 25.8196 123.964H22.9943V128.07ZM32.5538 135V122.636H36.7314C37.6973 122.636 38.4901 122.801 39.1099 123.131C39.7297 123.457 40.1885 123.906 40.4863 124.478C40.7842 125.049 40.9331 125.699 40.9331 126.428C40.9331 127.156 40.7842 127.802 40.4863 128.365C40.1885 128.929 39.7317 129.372 39.1159 129.694C38.5002 130.011 37.7134 130.17 36.7555 130.17H33.3748V128.818H36.7072C37.3672 128.818 37.8985 128.722 38.301 128.528C38.7074 128.335 39.0012 128.062 39.1824 127.707C39.3675 127.349 39.46 126.923 39.46 126.428C39.46 125.933 39.3675 125.5 39.1824 125.13C38.9972 124.759 38.7014 124.474 38.2949 124.272C37.8884 124.067 37.3511 123.964 36.6831 123.964H34.051V135H32.5538ZM38.3734 129.446L41.416 135H39.6774L36.6831 129.446H38.3734ZM43.9349 135H42.3653L46.9051 122.636H48.4506L52.9903 135H51.4207L47.7261 124.592H47.6295L43.9349 135ZM44.5145 130.17H50.8412V131.499H44.5145V130.17ZM64.7201 122.636V135H63.2712L56.534 125.293H56.4133V135H54.9161V122.636H56.365L63.1263 132.368H63.2471V122.636H64.7201ZM71.5312 135H67.7159V122.636H71.7003C72.8996 122.636 73.9259 122.884 74.7791 123.379C75.6323 123.87 76.2863 124.576 76.7411 125.498C77.1959 126.415 77.4233 127.514 77.4233 128.794C77.4233 130.082 77.1939 131.191 76.7351 132.12C76.2763 133.046 75.6082 133.758 74.7308 134.257C73.8535 134.752 72.7869 135 71.5312 135ZM69.2131 133.672H71.4347C72.4569 133.672 73.3041 133.475 73.9762 133.08C74.6483 132.686 75.1494 132.124 75.4794 131.396C75.8094 130.667 75.9744 129.8 75.9744 128.794C75.9744 127.796 75.8114 126.937 75.4854 126.216C75.1594 125.492 74.6725 124.936 74.0245 124.55C73.3765 124.16 72.5696 123.964 71.6037 123.964H69.2131V133.672ZM80.7798 133.418C80.482 133.418 80.2264 133.312 80.0131 133.098C79.7998 132.885 79.6932 132.629 79.6932 132.332C79.6932 132.034 79.7998 131.778 80.0131 131.565C80.2264 131.352 80.482 131.245 80.7798 131.245C81.0777 131.245 81.3332 131.352 81.5465 131.565C81.7598 131.778 81.8665 132.034 81.8665 132.332C81.8665 132.529 81.8162 132.71 81.7156 132.875C81.619 133.04 81.4882 133.173 81.3232 133.273C81.1622 133.37 80.9811 133.418 80.7798 133.418ZM80.7798 127.164C80.482 127.164 80.2264 127.057 80.0131 126.844C79.7998 126.631 79.6932 126.375 79.6932 126.077C79.6932 125.78 79.7998 125.524 80.0131 125.311C80.2264 125.097 80.482 124.991 80.7798 124.991C81.0777 124.991 81.3332 125.097 81.5465 125.311C81.7598 125.524 81.8665 125.78 81.8665 126.077C81.8665 126.275 81.8162 126.456 81.7156 126.621C81.619 126.786 81.4882 126.919 81.3232 127.019C81.1622 127.116 80.9811 127.164 80.7798 127.164Z" fill="white"/>
<rect x="225" y="114" width="178" height="58" rx="19" fill="#514D4D" stroke="#F9CE3B" stroke-width="2"/>
<rect x="18" y="191" width="178" height="58" rx="19" fill="#514D4D" stroke="#F9CE3B" stroke-width="2"/>
<rect x="225" y="191" width="178" height="58" rx="19" fill="#514D4D" stroke="#F9CE3B" stroke-width="2"/>
<path d="M241.446 203.5H239.949C239.86 203.069 239.705 202.691 239.484 202.365C239.267 202.039 239.001 201.765 238.687 201.544C238.377 201.319 238.033 201.15 237.655 201.037C237.277 200.924 236.882 200.868 236.472 200.868C235.723 200.868 235.045 201.057 234.437 201.435C233.833 201.814 233.353 202.371 232.994 203.108C232.64 203.844 232.463 204.748 232.463 205.818C232.463 206.889 232.64 207.792 232.994 208.529C233.353 209.265 233.833 209.823 234.437 210.201C235.045 210.579 235.723 210.768 236.472 210.768C236.882 210.768 237.277 210.712 237.655 210.599C238.033 210.487 238.377 210.32 238.687 210.098C239.001 209.873 239.267 209.597 239.484 209.271C239.705 208.941 239.86 208.563 239.949 208.136H241.446C241.333 208.768 241.128 209.334 240.83 209.833C240.532 210.332 240.162 210.756 239.719 211.107C239.277 211.453 238.78 211.716 238.228 211.897C237.681 212.078 237.095 212.169 236.472 212.169C235.417 212.169 234.479 211.911 233.658 211.396C232.837 210.881 232.191 210.149 231.721 209.199C231.25 208.249 231.014 207.122 231.014 205.818C231.014 204.514 231.25 203.387 231.721 202.438C232.191 201.488 232.837 200.755 233.658 200.24C234.479 199.725 235.417 199.467 236.472 199.467C237.095 199.467 237.681 199.558 238.228 199.739C238.78 199.92 239.277 200.186 239.719 200.536C240.162 200.882 240.532 201.305 240.83 201.804C241.128 202.299 241.333 202.864 241.446 203.5ZM254.297 205.818C254.297 207.122 254.062 208.249 253.591 209.199C253.12 210.149 252.474 210.881 251.653 211.396C250.832 211.911 249.894 212.169 248.84 212.169C247.785 212.169 246.848 211.911 246.027 211.396C245.206 210.881 244.56 210.149 244.089 209.199C243.618 208.249 243.382 207.122 243.382 205.818C243.382 204.514 243.618 203.387 244.089 202.438C244.56 201.488 245.206 200.755 246.027 200.24C246.848 199.725 247.785 199.467 248.84 199.467C249.894 199.467 250.832 199.725 251.653 200.24C252.474 200.755 253.12 201.488 253.591 202.438C254.062 203.387 254.297 204.514 254.297 205.818ZM252.848 205.818C252.848 204.748 252.669 203.844 252.311 203.108C251.957 202.371 251.476 201.814 250.868 201.435C250.264 201.057 249.588 200.868 248.84 200.868C248.091 200.868 247.413 201.057 246.805 201.435C246.202 201.814 245.721 202.371 245.362 203.108C245.008 203.844 244.831 204.748 244.831 205.818C244.831 206.889 245.008 207.792 245.362 208.529C245.721 209.265 246.202 209.823 246.805 210.201C247.413 210.579 248.091 210.768 248.84 210.768C249.588 210.768 250.264 210.579 250.868 210.201C251.476 209.823 251.957 209.265 252.311 208.529C252.669 207.792 252.848 206.889 252.848 205.818ZM256.815 212V199.636H258.312V210.672H264.059V212H256.815ZM276.327 205.818C276.327 207.122 276.092 208.249 275.621 209.199C275.15 210.149 274.504 210.881 273.683 211.396C272.862 211.911 271.924 212.169 270.87 212.169C269.816 212.169 268.878 211.911 268.057 211.396C267.236 210.881 266.59 210.149 266.119 209.199C265.648 208.249 265.413 207.122 265.413 205.818C265.413 204.514 265.648 203.387 266.119 202.438C266.59 201.488 267.236 200.755 268.057 200.24C268.878 199.725 269.816 199.467 270.87 199.467C271.924 199.467 272.862 199.725 273.683 200.24C274.504 200.755 275.15 201.488 275.621 202.438C276.092 203.387 276.327 204.514 276.327 205.818ZM274.879 205.818C274.879 204.748 274.699 203.844 274.341 203.108C273.987 202.371 273.506 201.814 272.898 201.435C272.295 201.057 271.619 200.868 270.87 200.868C270.121 200.868 269.443 201.057 268.836 201.435C268.232 201.814 267.751 202.371 267.393 203.108C267.039 203.844 266.862 204.748 266.862 205.818C266.862 206.889 267.039 207.792 267.393 208.529C267.751 209.265 268.232 209.823 268.836 210.201C269.443 210.579 270.121 210.768 270.87 210.768C271.619 210.768 272.295 210.579 272.898 210.201C273.506 209.823 273.987 209.265 274.341 208.529C274.699 207.792 274.879 206.889 274.879 205.818ZM278.845 212V199.636H283.022C283.988 199.636 284.781 199.801 285.401 200.131C286.021 200.457 286.48 200.906 286.777 201.478C287.075 202.049 287.224 202.699 287.224 203.428C287.224 204.156 287.075 204.802 286.777 205.365C286.48 205.929 286.023 206.372 285.407 206.694C284.791 207.011 284.004 207.17 283.047 207.17H279.666V205.818H282.998C283.658 205.818 284.19 205.722 284.592 205.528C284.998 205.335 285.292 205.062 285.473 204.707C285.658 204.349 285.751 203.923 285.751 203.428C285.751 202.933 285.658 202.5 285.473 202.13C285.288 201.759 284.992 201.474 284.586 201.272C284.179 201.067 283.642 200.964 282.974 200.964H280.342V212H278.845ZM284.664 206.446L287.707 212H285.968L282.974 206.446H284.664ZM290.564 210.418C290.266 210.418 290.011 210.312 289.797 210.098C289.584 209.885 289.477 209.629 289.477 209.332C289.477 209.034 289.584 208.778 289.797 208.565C290.011 208.352 290.266 208.245 290.564 208.245C290.862 208.245 291.117 208.352 291.331 208.565C291.544 208.778 291.651 209.034 291.651 209.332C291.651 209.529 291.6 209.71 291.5 209.875C291.403 210.04 291.272 210.173 291.107 210.273C290.946 210.37 290.765 210.418 290.564 210.418ZM290.564 204.164C290.266 204.164 290.011 204.057 289.797 203.844C289.584 203.631 289.477 203.375 289.477 203.077C289.477 202.78 289.584 202.524 289.797 202.311C290.011 202.097 290.266 201.991 290.564 201.991C290.862 201.991 291.117 202.097 291.331 202.311C291.544 202.524 291.651 202.78 291.651 203.077C291.651 203.275 291.6 203.456 291.5 203.621C291.403 203.786 291.272 203.919 291.107 204.019C290.946 204.116 290.765 204.164 290.564 204.164Z" fill="white"/>
<path d="M45 258.5H376C386.217 258.5 394.5 266.783 394.5 277V497C394.5 507.217 386.217 515.5 376 515.5H45C34.7827 515.5 26.5 507.217 26.5 497V277C26.5 266.783 34.7827 258.5 45 258.5Z" fill="black" stroke="black" stroke-width="3"/>
<circle cx="64" cy="614" r="34" fill="#F9CE3B"/>
<circle cx="210" cy="614" r="34" fill="#F9CE3B"/>
<circle cx="137" cy="614" r="34" fill="#F9CE3B"/>
<circle cx="356" cy="614" r="34" fill="#F9CE3B"/>
<circle cx="283" cy="614" r="34" fill="#F9CE3B"/>
<circle cx="376" cy="40" r="24" fill="#514D4D" stroke="#F9CE3B" stroke-width="2"/>
<rect x="14" y="524" width="18" height="18" fill="black"/>
<rect x="14" y="88" width="18" height="18" fill="black"/>
<path d="M232.497 135V122.636H236.675C237.641 122.636 238.433 122.801 239.053 123.131C239.673 123.457 240.132 123.906 240.43 124.478C240.728 125.049 240.876 125.699 240.876 126.428C240.876 127.156 240.728 127.802 240.43 128.365C240.132 128.929 239.675 129.372 239.059 129.694C238.444 130.011 237.657 130.17 236.699 130.17H233.318V128.818H236.651C237.311 128.818 237.842 128.722 238.244 128.528C238.651 128.335 238.945 128.062 239.126 127.707C239.311 127.349 239.403 126.923 239.403 126.428C239.403 125.933 239.311 125.5 239.126 125.13C238.941 124.759 238.645 124.474 238.238 124.272C237.832 124.067 237.295 123.964 236.626 123.964H233.994V135H232.497ZM238.317 129.446L241.359 135H239.621L236.626 129.446H238.317ZM243.371 135V122.636H250.833V123.964H244.868V128.142H250.446V129.47H244.868V133.672H250.929V135H243.371ZM253.531 135V122.636H260.945V123.964H255.028V128.142H260.389V129.47H255.028V135H253.531ZM263.509 135V122.636H270.971V123.964H265.006V128.142H270.584V129.47H265.006V133.672H271.067V135H263.509ZM273.669 135V122.636H277.847C278.813 122.636 279.605 122.801 280.225 123.131C280.845 123.457 281.304 123.906 281.602 124.478C281.899 125.049 282.048 125.699 282.048 126.428C282.048 127.156 281.899 127.802 281.602 128.365C281.304 128.929 280.847 129.372 280.231 129.694C279.615 130.011 278.829 130.17 277.871 130.17H274.49V128.818H277.822C278.482 128.818 279.014 128.722 279.416 128.528C279.823 128.335 280.116 128.062 280.298 127.707C280.483 127.349 280.575 126.923 280.575 126.428C280.575 125.933 280.483 125.5 280.298 125.13C280.112 124.759 279.817 124.474 279.41 124.272C279.004 124.067 278.466 123.964 277.798 123.964H275.166V135H273.669ZM279.489 129.446L282.531 135H280.793L277.798 129.446H279.489ZM284.543 135V122.636H292.005V123.964H286.04V128.142H291.618V129.47H286.04V133.672H292.101V135H284.543ZM304.507 122.636V135H303.058L296.321 125.293H296.2V135H294.703V122.636H296.152L302.913 132.368H303.034V122.636H304.507ZM317.452 126.5H315.955C315.866 126.069 315.711 125.691 315.49 125.365C315.273 125.039 315.007 124.765 314.693 124.544C314.383 124.319 314.039 124.15 313.661 124.037C313.282 123.924 312.888 123.868 312.477 123.868C311.729 123.868 311.051 124.057 310.443 124.435C309.839 124.814 309.358 125.371 309 126.108C308.646 126.844 308.469 127.748 308.469 128.818C308.469 129.889 308.646 130.792 309 131.529C309.358 132.265 309.839 132.823 310.443 133.201C311.051 133.579 311.729 133.768 312.477 133.768C312.888 133.768 313.282 133.712 313.661 133.599C314.039 133.487 314.383 133.32 314.693 133.098C315.007 132.873 315.273 132.597 315.49 132.271C315.711 131.941 315.866 131.563 315.955 131.136H317.452C317.339 131.768 317.134 132.334 316.836 132.833C316.538 133.332 316.168 133.756 315.725 134.107C315.283 134.453 314.786 134.716 314.234 134.897C313.687 135.078 313.101 135.169 312.477 135.169C311.423 135.169 310.485 134.911 309.664 134.396C308.843 133.881 308.197 133.149 307.726 132.199C307.256 131.249 307.02 130.122 307.02 128.818C307.02 127.514 307.256 126.387 307.726 125.438C308.197 124.488 308.843 123.755 309.664 123.24C310.485 122.725 311.423 122.467 312.477 122.467C313.101 122.467 313.687 122.558 314.234 122.739C314.786 122.92 315.283 123.186 315.725 123.536C316.168 123.882 316.538 124.305 316.836 124.804C317.134 125.299 317.339 125.864 317.452 126.5ZM319.871 135V122.636H327.333V123.964H321.368V128.142H326.946V129.47H321.368V133.672H327.429V135H319.871ZM330.877 133.418C330.579 133.418 330.323 133.312 330.11 133.098C329.897 132.885 329.79 132.629 329.79 132.332C329.79 132.034 329.897 131.778 330.11 131.565C330.323 131.352 330.579 131.245 330.877 131.245C331.174 131.245 331.43 131.352 331.643 131.565C331.857 131.778 331.963 132.034 331.963 132.332C331.963 132.529 331.913 132.71 331.812 132.875C331.716 133.04 331.585 133.173 331.42 133.273C331.259 133.37 331.078 133.418 330.877 133.418ZM330.877 127.164C330.579 127.164 330.323 127.057 330.11 126.844C329.897 126.631 329.79 126.375 329.79 126.077C329.79 125.78 329.897 125.524 330.11 125.311C330.323 125.097 330.579 124.991 330.877 124.991C331.174 124.991 331.43 125.097 331.643 125.311C331.857 125.524 331.963 125.78 331.963 126.077C331.963 126.275 331.913 126.456 331.812 126.621C331.716 126.786 331.585 126.919 331.42 127.019C331.259 127.116 331.078 127.164 330.877 127.164Z" fill="white"/>
<path d="M20.4972 203.636H22.2841L26.4858 213.899H26.6307L30.8324 203.636H32.6193V216H31.2188V206.607H31.098L27.2344 216H25.8821L22.0185 206.607H21.8977V216H20.4972V203.636ZM46.053 209.818C46.053 211.122 45.8176 212.249 45.3467 213.199C44.8758 214.149 44.2298 214.881 43.4088 215.396C42.5878 215.911 41.6501 216.169 40.5956 216.169C39.5412 216.169 38.6034 215.911 37.7824 215.396C36.9614 214.881 36.3154 214.149 35.8445 213.199C35.3737 212.249 35.1382 211.122 35.1382 209.818C35.1382 208.514 35.3737 207.387 35.8445 206.438C36.3154 205.488 36.9614 204.755 37.7824 204.24C38.6034 203.725 39.5412 203.467 40.5956 203.467C41.6501 203.467 42.5878 203.725 43.4088 204.24C44.2298 204.755 44.8758 205.488 45.3467 206.438C45.8176 207.387 46.053 208.514 46.053 209.818ZM44.6041 209.818C44.6041 208.748 44.425 207.844 44.0669 207.108C43.7127 206.371 43.2317 205.814 42.624 205.435C42.0203 205.057 41.3442 204.868 40.5956 204.868C39.847 204.868 39.1689 205.057 38.5612 205.435C37.9575 205.814 37.4765 206.371 37.1183 207.108C36.7642 207.844 36.5871 208.748 36.5871 209.818C36.5871 210.889 36.7642 211.792 37.1183 212.529C37.4765 213.265 37.9575 213.823 38.5612 214.201C39.1689 214.579 39.847 214.768 40.5956 214.768C41.3442 214.768 42.0203 214.579 42.624 214.201C43.2317 213.823 43.7127 213.265 44.0669 212.529C44.425 211.792 44.6041 210.889 44.6041 209.818ZM52.3857 216H48.5704V203.636H52.5548C53.7541 203.636 54.7804 203.884 55.6336 204.379C56.4868 204.87 57.1408 205.576 57.5956 206.498C58.0504 207.415 58.2778 208.514 58.2778 209.794C58.2778 211.082 58.0484 212.191 57.5896 213.12C57.1308 214.046 56.4627 214.758 55.5853 215.257C54.7079 215.752 53.6414 216 52.3857 216ZM50.0676 214.672H52.2892C53.3114 214.672 54.1586 214.475 54.8307 214.08C55.5028 213.686 56.0039 213.124 56.3339 212.396C56.6639 211.667 56.8289 210.8 56.8289 209.794C56.8289 208.796 56.6659 207.937 56.3399 207.216C56.0139 206.492 55.527 205.936 54.879 205.55C54.231 205.16 53.4241 204.964 52.4582 204.964H50.0676V214.672ZM60.7892 216V203.636H68.2508V204.964H62.2863V209.142H67.8644V210.47H62.2863V214.672H68.3474V216H60.7892ZM70.9493 216V203.636H72.4465V214.672H78.1936V216H70.9493ZM81.357 214.418C81.0592 214.418 80.8036 214.312 80.5903 214.098C80.377 213.885 80.2703 213.629 80.2703 213.332C80.2703 213.034 80.377 212.778 80.5903 212.565C80.8036 212.352 81.0592 212.245 81.357 212.245C81.6548 212.245 81.9104 212.352 82.1237 212.565C82.337 212.778 82.4436 213.034 82.4436 213.332C82.4436 213.529 82.3933 213.71 82.2927 213.875C82.1961 214.04 82.0653 214.173 81.9003 214.273C81.7393 214.37 81.5582 214.418 81.357 214.418ZM81.357 208.164C81.0592 208.164 80.8036 208.057 80.5903 207.844C80.377 207.631 80.2703 207.375 80.2703 207.077C80.2703 206.78 80.377 206.524 80.5903 206.311C80.8036 206.097 81.0592 205.991 81.357 205.991C81.6548 205.991 81.9104 206.097 82.1237 206.311C82.337 206.524 82.4436 206.78 82.4436 207.077C82.4436 207.275 82.3933 207.456 82.2927 207.621C82.1961 207.786 82.0653 207.919 81.9003 208.019C81.7393 208.116 81.5582 208.164 81.357 208.164Z" fill="white"/>
<path d="M37.0043 104H35.4347L39.9744 91.6364H41.5199L46.0597 104H44.4901L40.7955 93.5923H40.6989L37.0043 104ZM37.5838 99.1705H43.9105V100.499H37.5838V99.1705ZM45.865 92.9645V91.6364H55.1377V92.9645H51.2499V104H49.7528V92.9645H45.865ZM56.7722 92.9645V91.6364H66.0449V92.9645H62.1571V104H60.66V92.9645H56.7722ZM68.3556 104V91.6364H72.5331C73.499 91.6364 74.2919 91.8014 74.9117 92.1314C75.5315 92.4574 75.9903 92.9061 76.2881 93.4776C76.5859 94.0491 76.7348 94.6991 76.7348 95.4276C76.7348 96.156 76.5859 96.802 76.2881 97.3654C75.9903 97.9289 75.5335 98.3716 74.9177 98.6935C74.3019 99.0115 73.5151 99.1705 72.5573 99.1705H69.1766V97.8182H72.509C73.169 97.8182 73.7003 97.7216 74.1027 97.5284C74.5092 97.3352 74.803 97.0616 74.9841 96.7074C75.1692 96.3492 75.2618 95.9226 75.2618 95.4276C75.2618 94.9325 75.1692 94.4999 74.9841 94.1296C74.799 93.7594 74.5032 93.4736 74.0967 93.2724C73.6902 93.0671 73.1529 92.9645 72.4848 92.9645H69.8527V104H68.3556ZM74.1752 98.446L77.2178 104H75.4791L72.4848 98.446H74.1752ZM80.7267 91.6364V104H79.2296V91.6364H80.7267ZM83.7286 104V91.6364H88.051C88.9123 91.6364 89.6227 91.7853 90.1821 92.0831C90.7415 92.3769 91.1581 92.7733 91.4317 93.2724C91.7054 93.7674 91.8422 94.3168 91.8422 94.9205C91.8422 95.4517 91.7477 95.8904 91.5585 96.2365C91.3734 96.5826 91.1279 96.8563 90.822 97.0575C90.5202 97.2588 90.1921 97.4077 89.838 97.5043V97.625C90.2163 97.6491 90.5966 97.782 90.979 98.0234C91.3613 98.2649 91.6813 98.611 91.9388 99.0618C92.1964 99.5125 92.3252 100.064 92.3252 100.716C92.3252 101.336 92.1843 101.893 91.9026 102.388C91.6209 102.883 91.1762 103.276 90.5684 103.565C89.9607 103.855 89.1699 104 88.1959 104H83.7286ZM85.2258 102.672H88.1959C89.1739 102.672 89.8682 102.483 90.2787 102.104C90.6932 101.722 90.9005 101.259 90.9005 100.716C90.9005 100.297 90.7938 99.911 90.5805 99.5568C90.3672 99.1986 90.0634 98.9129 89.6689 98.6996C89.2745 98.4822 88.8077 98.3736 88.2684 98.3736H85.2258V102.672ZM85.2258 97.0696H88.0028C88.4535 97.0696 88.86 96.9811 89.2222 96.804C89.5885 96.6269 89.8782 96.3774 90.0915 96.0554C90.3089 95.7334 90.4175 95.3551 90.4175 94.9205C90.4175 94.3771 90.2284 93.9163 89.8501 93.538C89.4717 93.1557 88.8721 92.9645 88.051 92.9645H85.2258V97.0696ZM102.899 91.6364H104.396V99.8224C104.396 100.668 104.197 101.422 103.798 102.086C103.404 102.746 102.847 103.268 102.126 103.65C101.406 104.028 100.561 104.217 99.5906 104.217C98.6207 104.217 97.7755 104.028 97.0551 103.65C96.3347 103.268 95.7753 102.746 95.3769 102.086C94.9825 101.422 94.7852 100.668 94.7852 99.8224V91.6364H96.2824V99.7017C96.2824 100.305 96.4152 100.843 96.6808 101.314C96.9465 101.78 97.3248 102.149 97.8158 102.418C98.3108 102.684 98.9024 102.817 99.5906 102.817C100.279 102.817 100.87 102.684 101.366 102.418C101.861 102.149 102.239 101.78 102.5 101.314C102.766 100.843 102.899 100.305 102.899 99.7017V91.6364ZM106.71 92.9645V91.6364H115.982V92.9645H112.095V104H110.597V92.9645H106.71ZM118.293 104V91.6364H125.755V92.9645H119.79V97.142H125.368V98.4702H119.79V102.672H125.851V104H118.293ZM135.215 94.7273C135.142 94.1155 134.848 93.6406 134.333 93.3026C133.818 92.9645 133.186 92.7955 132.438 92.7955C131.89 92.7955 131.411 92.884 131.001 93.0611C130.594 93.2382 130.276 93.4817 130.047 93.7915C129.822 94.1014 129.709 94.4536 129.709 94.848C129.709 95.178 129.787 95.4618 129.944 95.6992C130.105 95.9326 130.311 96.1278 130.56 96.2848C130.81 96.4377 131.071 96.5645 131.345 96.6651C131.619 96.7617 131.87 96.8402 132.1 96.9006L133.355 97.2386C133.677 97.3232 134.035 97.4399 134.43 97.5888C134.828 97.7377 135.209 97.9409 135.571 98.1985C135.937 98.4521 136.239 98.7781 136.476 99.1765C136.714 99.5749 136.832 100.064 136.832 100.643C136.832 101.312 136.657 101.915 136.307 102.455C135.961 102.994 135.454 103.422 134.786 103.74C134.122 104.058 133.315 104.217 132.365 104.217C131.48 104.217 130.713 104.074 130.065 103.789C129.421 103.503 128.914 103.105 128.544 102.593C128.178 102.082 127.97 101.489 127.922 100.812H129.467C129.508 101.279 129.665 101.666 129.938 101.972C130.216 102.273 130.566 102.499 130.989 102.648C131.415 102.793 131.874 102.865 132.365 102.865C132.937 102.865 133.45 102.772 133.905 102.587C134.359 102.398 134.72 102.137 134.985 101.803C135.251 101.464 135.384 101.07 135.384 100.619C135.384 100.209 135.269 99.8748 135.04 99.6172C134.81 99.3596 134.508 99.1503 134.134 98.9893C133.76 98.8284 133.355 98.6875 132.921 98.5668L131.399 98.1321C130.433 97.8544 129.669 97.458 129.105 96.9428C128.542 96.4277 128.26 95.7536 128.26 94.9205C128.26 94.2282 128.447 93.6245 128.821 93.1094C129.2 92.5902 129.707 92.1877 130.343 91.902C130.983 91.6122 131.697 91.4673 132.486 91.4673C133.283 91.4673 133.991 91.6102 134.611 91.896C135.231 92.1777 135.722 92.564 136.084 93.055C136.45 93.546 136.643 94.1035 136.663 94.7273H135.215ZM140.139 102.418C139.841 102.418 139.586 102.312 139.373 102.098C139.159 101.885 139.053 101.629 139.053 101.332C139.053 101.034 139.159 100.778 139.373 100.565C139.586 100.352 139.841 100.245 140.139 100.245C140.437 100.245 140.693 100.352 140.906 100.565C141.119 100.778 141.226 101.034 141.226 101.332C141.226 101.529 141.176 101.71 141.075 101.875C140.978 102.04 140.848 102.173 140.683 102.273C140.522 102.37 140.34 102.418 140.139 102.418ZM140.139 96.1641C139.841 96.1641 139.586 96.0574 139.373 95.8441C139.159 95.6308 139.053 95.3752 139.053 95.0774C139.053 94.7796 139.159 94.524 139.373 94.3107C139.586 94.0974 139.841 93.9908 140.139 93.9908C140.437 93.9908 140.693 94.0974 140.906 94.3107C141.119 94.524 141.226 94.7796 141.226 95.0774C141.226 95.2746 141.176 95.4557 141.075 95.6207C140.978 95.7857 140.848 95.9186 140.683 96.0192C140.522 96.1158 140.34 96.1641 140.139 96.1641Z" fill="black"/>
<path d="M36.4972 528.636H38.2841L42.4858 538.899H42.6307L46.8324 528.636H48.6193V541H47.2188V531.607H47.098L43.2344 541H41.8821L38.0185 531.607H37.8977V541H36.4972V528.636ZM51.6212 541V528.636H59.0828V529.964H53.1183V534.142H58.6965V535.47H53.1183V539.672H59.1794V541H51.6212ZM61.1052 529.964V528.636H70.3779V529.964H66.4901V541H64.993V529.964H61.1052ZM72.6886 541V528.636H74.1857V534.142H80.7781V528.636H82.2752V541H80.7781V535.47H74.1857V541H72.6886ZM95.7044 534.818C95.7044 536.122 95.4689 537.249 94.998 538.199C94.5272 539.149 93.8812 539.881 93.0602 540.396C92.2392 540.911 91.3014 541.169 90.247 541.169C89.1925 541.169 88.2548 540.911 87.4338 540.396C86.6127 539.881 85.9668 539.149 85.4959 538.199C85.025 537.249 84.7896 536.122 84.7896 534.818C84.7896 533.514 85.025 532.387 85.4959 531.438C85.9668 530.488 86.6127 529.755 87.4338 529.24C88.2548 528.725 89.1925 528.467 90.247 528.467C91.3014 528.467 92.2392 528.725 93.0602 529.24C93.8812 529.755 94.5272 530.488 94.998 531.438C95.4689 532.387 95.7044 533.514 95.7044 534.818ZM94.2555 534.818C94.2555 533.748 94.0764 532.844 93.7182 532.108C93.3641 531.371 92.8831 530.814 92.2754 530.435C91.6717 530.057 90.9956 529.868 90.247 529.868C89.4984 529.868 88.8203 530.057 88.2125 530.435C87.6088 530.814 87.1279 531.371 86.7697 532.108C86.4155 532.844 86.2385 533.748 86.2385 534.818C86.2385 535.889 86.4155 536.792 86.7697 537.529C87.1279 538.265 87.6088 538.823 88.2125 539.201C88.8203 539.579 89.4984 539.768 90.247 539.768C90.9956 539.768 91.6717 539.579 92.2754 539.201C92.8831 538.823 93.3641 538.265 93.7182 537.529C94.0764 536.792 94.2555 535.889 94.2555 534.818ZM102.037 541H98.2218V528.636H102.206C103.405 528.636 104.432 528.884 105.285 529.379C106.138 529.87 106.792 530.576 107.247 531.498C107.702 532.415 107.929 533.514 107.929 534.794C107.929 536.082 107.7 537.191 107.241 538.12C106.782 539.046 106.114 539.758 105.237 540.257C104.359 540.752 103.293 541 102.037 541ZM99.7189 539.672H101.941C102.963 539.672 103.81 539.475 104.482 539.08C105.154 538.686 105.655 538.124 105.985 537.396C106.315 536.667 106.48 535.8 106.48 534.794C106.48 533.796 106.317 532.937 105.991 532.216C105.665 531.492 105.178 530.936 104.53 530.55C103.882 530.16 103.075 529.964 102.11 529.964H99.7189V539.672ZM117.202 531.727C117.129 531.116 116.836 530.641 116.32 530.303C115.805 529.964 115.173 529.795 114.425 529.795C113.878 529.795 113.399 529.884 112.988 530.061C112.582 530.238 112.264 530.482 112.034 530.792C111.809 531.101 111.696 531.454 111.696 531.848C111.696 532.178 111.775 532.462 111.932 532.699C112.093 532.933 112.298 533.128 112.547 533.285C112.797 533.438 113.059 533.565 113.332 533.665C113.606 533.762 113.857 533.84 114.087 533.901L115.343 534.239C115.664 534.323 116.023 534.44 116.417 534.589C116.816 534.738 117.196 534.941 117.558 535.199C117.924 535.452 118.226 535.778 118.464 536.176C118.701 536.575 118.82 537.064 118.82 537.643C118.82 538.312 118.645 538.915 118.295 539.455C117.948 539.994 117.441 540.422 116.773 540.74C116.109 541.058 115.302 541.217 114.352 541.217C113.467 541.217 112.7 541.074 112.052 540.789C111.408 540.503 110.901 540.105 110.531 539.593C110.165 539.082 109.958 538.489 109.909 537.812H111.455C111.495 538.279 111.652 538.666 111.926 538.972C112.203 539.273 112.553 539.499 112.976 539.648C113.403 539.793 113.861 539.865 114.352 539.865C114.924 539.865 115.437 539.772 115.892 539.587C116.347 539.398 116.707 539.137 116.972 538.803C117.238 538.464 117.371 538.07 117.371 537.619C117.371 537.209 117.256 536.875 117.027 536.617C116.797 536.36 116.496 536.15 116.121 535.989C115.747 535.828 115.343 535.687 114.908 535.567L113.387 535.132C112.421 534.854 111.656 534.458 111.093 533.943C110.529 533.428 110.247 532.754 110.247 531.92C110.247 531.228 110.434 530.625 110.809 530.109C111.187 529.59 111.694 529.188 112.33 528.902C112.97 528.612 113.684 528.467 114.473 528.467C115.27 528.467 115.978 528.61 116.598 528.896C117.218 529.178 117.709 529.564 118.071 530.055C118.437 530.546 118.631 531.103 118.651 531.727H117.202ZM122.127 539.418C121.829 539.418 121.573 539.312 121.36 539.098C121.147 538.885 121.04 538.629 121.04 538.332C121.04 538.034 121.147 537.778 121.36 537.565C121.573 537.352 121.829 537.245 122.127 537.245C122.424 537.245 122.68 537.352 122.893 537.565C123.107 537.778 123.213 538.034 123.213 538.332C123.213 538.529 123.163 538.71 123.062 538.875C122.966 539.04 122.835 539.173 122.67 539.273C122.509 539.37 122.328 539.418 122.127 539.418ZM122.127 533.164C121.829 533.164 121.573 533.057 121.36 532.844C121.147 532.631 121.04 532.375 121.04 532.077C121.04 531.78 121.147 531.524 121.36 531.311C121.573 531.097 121.829 530.991 122.127 530.991C122.424 530.991 122.68 531.097 122.893 531.311C123.107 531.524 123.213 531.78 123.213 532.077C123.213 532.275 123.163 532.456 123.062 532.621C122.966 532.786 122.835 532.919 122.67 533.019C122.509 533.116 122.328 533.164 122.127 533.164Z" fill="black"/>
</svg>
