<svg width="68" height="68" viewBox="0 0 68 68" fill="none" xmlns="http://www.w3.org/2000/svg">
<circle cx="34" cy="34" r="34" fill="#F9CE3B"/>
<path fill-rule="evenodd" clip-rule="evenodd" d="M34 54C39.3043 54 44.3914 51.8929 48.1421 48.1421C51.8929 44.3914 54 39.3043 54 34C54 28.6957 51.8929 23.6086 48.1421 19.8579C44.3914 16.1071 39.3043 14 34 14C28.6957 14 23.6086 16.1071 19.8579 19.8579C16.1071 23.6086 14 28.6957 14 34C14 39.3043 16.1071 44.3914 19.8579 48.1421C23.6086 51.8929 28.6957 54 34 54V54ZM30.7675 27.2325C30.296 26.7771 29.6645 26.5251 29.009 26.5308C28.3535 26.5365 27.7265 26.7994 27.263 27.263C26.7994 27.7265 26.5365 28.3535 26.5308 29.009C26.5251 29.6645 26.7771 30.296 27.2325 30.7675L30.465 34L27.2325 37.2325C26.9937 37.4631 26.8033 37.739 26.6722 38.044C26.5412 38.349 26.4723 38.677 26.4694 39.009C26.4665 39.3409 26.5297 39.6701 26.6554 39.9774C26.7811 40.2846 26.9668 40.5638 27.2015 40.7985C27.4362 41.0332 27.7154 41.2189 28.0226 41.3446C28.3299 41.4703 28.6591 41.5335 28.991 41.5306C29.323 41.5277 29.651 41.4588 29.956 41.3278C30.261 41.1967 30.5369 41.0063 30.7675 40.7675L34 37.535L37.2325 40.7675C37.704 41.2229 38.3355 41.4749 38.991 41.4692C39.6465 41.4635 40.2735 41.2006 40.737 40.737C41.2006 40.2735 41.4635 39.6465 41.4692 38.991C41.4749 38.3355 41.2229 37.704 40.7675 37.2325L37.535 34L40.7675 30.7675C41.2229 30.296 41.4749 29.6645 41.4692 29.009C41.4635 28.3535 41.2006 27.7265 40.737 27.263C40.2735 26.7994 39.6465 26.5365 38.991 26.5308C38.3355 26.5251 37.704 26.7771 37.2325 27.2325L34 30.465L30.7675 27.2325Z" fill="black"/>
</svg>
