<svg width="40" height="68" viewBox="0 0 40 68" fill="none" xmlns="http://www.w3.org/2000/svg">
<path d="M40 34C40 52.7777 24.7777 68 6.00002 68C6.00001 -6 6 58.7777 6 40C6 21.2223 6.00006 68 6.00002 0C24.7777 0 40 15.2223 40 34Z" fill="black" fill-opacity="0.7"/>
<path fill-rule="evenodd" clip-rule="evenodd" d="M17.1545 27.6162C17.4076 27.8507 17.5497 28.1685 17.5497 28.5C17.5497 28.8314 17.4076 29.1493 17.1545 29.3837L12.7089 33.5L17.1545 37.6162C17.4004 37.852 17.5365 38.1677 17.5334 38.4955C17.5303 38.8232 17.3883 39.1368 17.138 39.3685C16.8877 39.6003 16.5491 39.7317 16.1952 39.7346C15.8412 39.7374 15.5002 39.6114 15.2456 39.3837L9.84558 34.3837C9.59249 34.1493 9.45032 33.8314 9.45032 33.5C9.45032 33.1685 9.59249 32.8507 9.84558 32.6162L15.2456 27.6162C15.4987 27.3819 15.8421 27.2503 16.2 27.2503C16.558 27.2503 16.9013 27.3819 17.1545 27.6162V27.6162Z" fill="white"/>
</svg>
