<svg width="68" height="68" viewBox="0 0 68 68" fill="none" xmlns="http://www.w3.org/2000/svg">
<circle cx="34" cy="34" r="34" fill="#F9CE3B"/>
<path fill-rule="evenodd" clip-rule="evenodd" d="M34 54C39.3043 54 44.3914 51.8929 48.1421 48.1421C51.8929 44.3914 54 39.3043 54 34C54 28.6957 51.8929 23.6086 48.1421 19.8579C44.3914 16.1071 39.3043 14 34 14C28.6957 14 23.6086 16.1071 19.8579 19.8579C16.1071 23.6086 14 28.6957 14 34C14 39.3043 16.1071 44.3914 19.8579 48.1421C23.6086 51.8929 28.6957 54 34 54V54ZM29 26.5C28.337 26.5 27.7011 26.7634 27.2322 27.2322C26.7634 27.7011 26.5 28.337 26.5 29V39C26.5 39.663 26.7634 40.2989 27.2322 40.7678C27.7011 41.2366 28.337 41.5 29 41.5H39C39.663 41.5 40.2989 41.2366 40.7678 40.7678C41.2366 40.2989 41.5 39.663 41.5 39V29C41.5 28.337 41.2366 27.7011 40.7678 27.2322C40.2989 26.7634 39.663 26.5 39 26.5H29Z" fill="black"/>
</svg>
