<svg width="68" height="68" viewBox="0 0 68 68" fill="none" xmlns="http://www.w3.org/2000/svg">
<circle cx="34" cy="34" r="34" fill="#F9CE3B"/>
<path fill-rule="evenodd" clip-rule="evenodd" d="M34 54C39.3043 54 44.3914 51.8929 48.1421 48.1421C51.8929 44.3914 54 39.3043 54 34C54 28.6957 51.8929 23.6086 48.1421 19.8579C44.3914 16.1071 39.3043 14 34 14C28.6957 14 23.6086 16.1071 19.8579 19.8579C16.1071 23.6086 14 28.6957 14 34C14 39.3043 16.1071 44.3914 19.8579 48.1421C23.6086 51.8929 28.6957 54 34 54V54ZM32.8875 26.92C32.511 26.6688 32.0734 26.5245 31.6213 26.5026C31.1692 26.4806 30.7197 26.5818 30.3206 26.7953C29.9215 27.0088 29.5879 27.3267 29.3553 27.715C29.1227 28.1033 28.9999 28.5474 29 29V39C28.9999 39.4526 29.1227 39.8967 29.3553 40.285C29.5879 40.6733 29.9215 40.9912 30.3206 41.2047C30.7197 41.4182 31.1692 41.5194 31.6213 41.4974C32.0734 41.4755 32.511 41.3312 32.8875 41.08L40.3875 36.08C40.7299 35.8517 41.0106 35.5424 41.2048 35.1795C41.399 34.8167 41.5006 34.4115 41.5006 34C41.5006 33.5885 41.399 33.1833 41.2048 32.8205C41.0106 32.4576 40.7299 32.1483 40.3875 31.92L32.8875 26.92V26.92Z" fill="black"/>
</svg>
