<svg width="68" height="68" viewBox="0 0 68 68" fill="none" xmlns="http://www.w3.org/2000/svg">
<circle cx="34" cy="34" r="34" fill="#F9CE3B"/>
<path d="M20.3875 21.92C20.011 21.6688 19.5734 21.5245 19.1213 21.5026C18.6692 21.4806 18.2197 21.5818 17.8206 21.7953C17.4215 22.0088 17.0879 22.3267 16.8553 22.715C16.6227 23.1033 16.4999 23.5474 16.5 24V44C16.4999 44.4526 16.6227 44.8968 16.8553 45.285C17.0879 45.6733 17.4215 45.9912 17.8206 46.2047C18.2197 46.4182 18.6692 46.5194 19.1213 46.4974C19.5734 46.4755 20.011 46.3312 20.3875 46.08L34 37.005V44C33.9999 44.4526 34.1227 44.8968 34.3553 45.285C34.5879 45.6733 34.9215 45.9912 35.3206 46.2047C35.7197 46.4182 36.1692 46.5194 36.6213 46.4974C37.0734 46.4755 37.511 46.3312 37.8875 46.08L52.8875 36.08C53.2299 35.8517 53.5106 35.5424 53.7048 35.1796C53.899 34.8167 54.0006 34.4115 54.0006 34C54.0006 33.5885 53.899 33.1833 53.7048 32.8205C53.5106 32.4576 53.2299 32.1483 52.8875 31.92L37.8875 21.92C37.511 21.6688 37.0734 21.5245 36.6213 21.5026C36.1692 21.4806 35.7197 21.5818 35.3206 21.7953C34.9215 22.0088 34.5879 22.3267 34.3553 22.715C34.1227 23.1033 33.9999 23.5474 34 24V30.995L20.3875 21.92Z" fill="black"/>
</svg>
