<svg width="68" height="68" viewBox="0 0 68 68" fill="none" xmlns="http://www.w3.org/2000/svg">
<circle cx="34" cy="34" r="34" fill="#F9CE3B"/>
<path d="M30.1125 46.08C30.489 46.3312 30.9266 46.4755 31.3787 46.4974C31.8308 46.5194 32.2803 46.4182 32.6794 46.2047C33.0785 45.9912 33.4121 45.6733 33.6447 45.285C33.8773 44.8968 34.0001 44.4526 34 44V37.005L47.6125 46.08C47.989 46.3312 48.4266 46.4755 48.8787 46.4974C49.3308 46.5194 49.7803 46.4182 50.1794 46.2047C50.5785 45.9912 50.9121 45.6733 51.1447 45.285C51.3773 44.8968 51.5001 44.4526 51.5 44V24C51.5001 23.5474 51.3773 23.1033 51.1447 22.715C50.9121 22.3267 50.5785 22.0088 50.1794 21.7953C49.7803 21.5818 49.3308 21.4806 48.8787 21.5026C48.4266 21.5245 47.989 21.6688 47.6125 21.92L34 30.995V24C34.0001 23.5474 33.8773 23.1033 33.6447 22.715C33.4121 22.3267 33.0785 22.0088 32.6794 21.7953C32.2803 21.5818 31.8308 21.4806 31.3787 21.5026C30.9266 21.5245 30.489 21.6688 30.1125 21.92L15.1125 31.92C14.7701 32.1483 14.4894 32.4576 14.2952 32.8205C14.101 33.1833 13.9995 33.5885 13.9995 34C13.9995 34.4115 14.101 34.8167 14.2952 35.1796C14.4894 35.5424 14.7701 35.8517 15.1125 36.08L30.1125 46.08V46.08Z" fill="black"/>
</svg>
