<svg width="50" height="50" viewBox="0 0 50 50" fill="none" xmlns="http://www.w3.org/2000/svg">
<circle cx="25" cy="25" r="24" fill="#514D4D" stroke="#F9CE3B" stroke-width="2"/>
<mask id="path-2-inside-1_9_6" fill="white">
<path fill-rule="evenodd" clip-rule="evenodd" d="M25 6C25.663 6 26.2989 6.26339 26.7678 6.73223C27.2366 7.20107 27.5 7.83696 27.5 8.5V11C27.5 11.663 27.2366 12.2989 26.7678 12.7678C26.2989 13.2366 25.663 13.5 25 13.5C24.337 13.5 23.7011 13.2366 23.2322 12.7678C22.7634 12.2989 22.5 11.663 22.5 11V8.5C22.5 7.83696 22.7634 7.20107 23.2322 6.73223C23.7011 6.26339 24.337 6 25 6V6ZM35 26C35 28.6522 33.9464 31.1957 32.0711 33.0711C30.1957 34.9464 27.6522 36 25 36C22.3478 36 19.8043 34.9464 17.9289 33.0711C16.0536 31.1957 15 28.6522 15 26C15 23.3478 16.0536 20.8043 17.9289 18.9289C19.8043 17.0536 22.3478 16 25 16C27.6522 16 30.1957 17.0536 32.0711 18.9289C33.9464 20.8043 35 23.3478 35 26V26ZM33.84 38.375L35.6075 40.1425C36.079 40.5979 36.7105 40.8499 37.366 40.8442C38.0215 40.8385 38.6485 40.5756 39.112 40.112C39.5756 39.6485 39.8385 39.0215 39.8442 38.366C39.8499 37.7105 39.5979 37.079 39.1425 36.6075L37.375 34.84C36.9035 34.3846 36.272 34.1326 35.6165 34.1383C34.961 34.144 34.334 34.4069 33.8705 34.8705C33.4069 35.334 33.144 35.961 33.1383 36.6165C33.1326 37.272 33.3846 37.9035 33.84 38.375V38.375ZM39.14 11.8575C39.6087 12.3263 39.872 12.9621 39.872 13.625C39.872 14.2879 39.6087 14.9237 39.14 15.3925L37.375 17.16C37.1444 17.3988 36.8685 17.5892 36.5635 17.7203C36.2585 17.8513 35.9305 17.9202 35.5985 17.9231C35.2666 17.926 34.9374 17.8628 34.6301 17.7371C34.3229 17.6114 34.0437 17.4257 33.809 17.191C33.5743 16.9563 33.3886 16.6771 33.2629 16.3699C33.1372 16.0626 33.074 15.7334 33.0769 15.4015C33.0798 15.0695 33.1487 14.7415 33.2797 14.4365C33.4108 14.1315 33.6012 13.8556 33.84 13.625L35.6075 11.8575C36.0763 11.3888 36.7121 11.1255 37.375 11.1255C38.0379 11.1255 38.6737 11.3888 39.1425 11.8575H39.14ZM42.5 28.5C43.163 28.5 43.7989 28.2366 44.2678 27.7678C44.7366 27.2989 45 26.663 45 26C45 25.337 44.7366 24.7011 44.2678 24.2322C43.7989 23.7634 43.163 23.5 42.5 23.5H40C39.337 23.5 38.7011 23.7634 38.2322 24.2322C37.7634 24.7011 37.5 25.337 37.5 26C37.5 26.663 37.7634 27.2989 38.2322 27.7678C38.7011 28.2366 39.337 28.5 40 28.5H42.5ZM25 38.5C25.663 38.5 26.2989 38.7634 26.7678 39.2322C27.2366 39.7011 27.5 40.337 27.5 41V43.5C27.5 44.163 27.2366 44.7989 26.7678 45.2678C26.2989 45.7366 25.663 46 25 46C24.337 46 23.7011 45.7366 23.2322 45.2678C22.7634 44.7989 22.5 44.163 22.5 43.5V41C22.5 40.337 22.7634 39.7011 23.2322 39.2322C23.7011 38.7634 24.337 38.5 25 38.5V38.5ZM12.625 17.16C12.8571 17.3923 13.1327 17.5766 13.436 17.7023C13.7394 17.8281 14.0645 17.8929 14.3929 17.893C14.7212 17.8931 15.0464 17.8286 15.3498 17.703C15.6533 17.5774 15.929 17.3934 16.1612 17.1612C16.3935 16.9291 16.5778 16.6536 16.7036 16.3502C16.8293 16.0469 16.8941 15.7218 16.8943 15.3934C16.8944 15.065 16.8298 14.7398 16.7043 14.4364C16.5787 14.133 16.3946 13.8573 16.1625 13.625L14.3925 11.8575C13.921 11.4021 13.2895 11.1501 12.634 11.1558C11.9785 11.1615 11.3515 11.4244 10.888 11.888C10.4244 12.3515 10.1615 12.9785 10.1558 13.634C10.1501 14.2895 10.4021 14.921 10.8575 15.3925L12.625 17.16V17.16ZM16.16 38.375L14.3925 40.1425C13.921 40.5979 13.2895 40.8499 12.634 40.8442C11.9785 40.8385 11.3515 40.5756 10.888 40.112C10.4244 39.6485 10.1615 39.0215 10.1558 38.366C10.1501 37.7105 10.4021 37.079 10.8575 36.6075L12.625 34.84C13.0965 34.3846 13.728 34.1326 14.3835 34.1383C15.039 34.144 15.666 34.4069 16.1295 34.8705C16.5931 35.334 16.856 35.961 16.8617 36.6165C16.8674 37.272 16.6154 37.9035 16.16 38.375V38.375ZM10 28.5C10.663 28.5 11.2989 28.2366 11.7678 27.7678C12.2366 27.2989 12.5 26.663 12.5 26C12.5 25.337 12.2366 24.7011 11.7678 24.2322C11.2989 23.7634 10.663 23.5 10 23.5H7.5C6.83696 23.5 6.20107 23.7634 5.73223 24.2322C5.26339 24.7011 5 25.337 5 26C5 26.663 5.26339 27.2989 5.73223 27.7678C6.20107 28.2366 6.83696 28.5 7.5 28.5H10Z"/>
</mask>
<path fill-rule="evenodd" clip-rule="evenodd" d="M25 6C25.663 6 26.2989 6.26339 26.7678 6.73223C27.2366 7.20107 27.5 7.83696 27.5 8.5V11C27.5 11.663 27.2366 12.2989 26.7678 12.7678C26.2989 13.2366 25.663 13.5 25 13.5C24.337 13.5 23.7011 13.2366 23.2322 12.7678C22.7634 12.2989 22.5 11.663 22.5 11V8.5C22.5 7.83696 22.7634 7.20107 23.2322 6.73223C23.7011 6.26339 24.337 6 25 6V6ZM35 26C35 28.6522 33.9464 31.1957 32.0711 33.0711C30.1957 34.9464 27.6522 36 25 36C22.3478 36 19.8043 34.9464 17.9289 33.0711C16.0536 31.1957 15 28.6522 15 26C15 23.3478 16.0536 20.8043 17.9289 18.9289C19.8043 17.0536 22.3478 16 25 16C27.6522 16 30.1957 17.0536 32.0711 18.9289C33.9464 20.8043 35 23.3478 35 26V26ZM33.84 38.375L35.6075 40.1425C36.079 40.5979 36.7105 40.8499 37.366 40.8442C38.0215 40.8385 38.6485 40.5756 39.112 40.112C39.5756 39.6485 39.8385 39.0215 39.8442 38.366C39.8499 37.7105 39.5979 37.079 39.1425 36.6075L37.375 34.84C36.9035 34.3846 36.272 34.1326 35.6165 34.1383C34.961 34.144 34.334 34.4069 33.8705 34.8705C33.4069 35.334 33.144 35.961 33.1383 36.6165C33.1326 37.272 33.3846 37.9035 33.84 38.375V38.375ZM39.14 11.8575C39.6087 12.3263 39.872 12.9621 39.872 13.625C39.872 14.2879 39.6087 14.9237 39.14 15.3925L37.375 17.16C37.1444 17.3988 36.8685 17.5892 36.5635 17.7203C36.2585 17.8513 35.9305 17.9202 35.5985 17.9231C35.2666 17.926 34.9374 17.8628 34.6301 17.7371C34.3229 17.6114 34.0437 17.4257 33.809 17.191C33.5743 16.9563 33.3886 16.6771 33.2629 16.3699C33.1372 16.0626 33.074 15.7334 33.0769 15.4015C33.0798 15.0695 33.1487 14.7415 33.2797 14.4365C33.4108 14.1315 33.6012 13.8556 33.84 13.625L35.6075 11.8575C36.0763 11.3888 36.7121 11.1255 37.375 11.1255C38.0379 11.1255 38.6737 11.3888 39.1425 11.8575H39.14ZM42.5 28.5C43.163 28.5 43.7989 28.2366 44.2678 27.7678C44.7366 27.2989 45 26.663 45 26C45 25.337 44.7366 24.7011 44.2678 24.2322C43.7989 23.7634 43.163 23.5 42.5 23.5H40C39.337 23.5 38.7011 23.7634 38.2322 24.2322C37.7634 24.7011 37.5 25.337 37.5 26C37.5 26.663 37.7634 27.2989 38.2322 27.7678C38.7011 28.2366 39.337 28.5 40 28.5H42.5ZM25 38.5C25.663 38.5 26.2989 38.7634 26.7678 39.2322C27.2366 39.7011 27.5 40.337 27.5 41V43.5C27.5 44.163 27.2366 44.7989 26.7678 45.2678C26.2989 45.7366 25.663 46 25 46C24.337 46 23.7011 45.7366 23.2322 45.2678C22.7634 44.7989 22.5 44.163 22.5 43.5V41C22.5 40.337 22.7634 39.7011 23.2322 39.2322C23.7011 38.7634 24.337 38.5 25 38.5V38.5ZM12.625 17.16C12.8571 17.3923 13.1327 17.5766 13.436 17.7023C13.7394 17.8281 14.0645 17.8929 14.3929 17.893C14.7212 17.8931 15.0464 17.8286 15.3498 17.703C15.6533 17.5774 15.929 17.3934 16.1612 17.1612C16.3935 16.9291 16.5778 16.6536 16.7036 16.3502C16.8293 16.0469 16.8941 15.7218 16.8943 15.3934C16.8944 15.065 16.8298 14.7398 16.7043 14.4364C16.5787 14.133 16.3946 13.8573 16.1625 13.625L14.3925 11.8575C13.921 11.4021 13.2895 11.1501 12.634 11.1558C11.9785 11.1615 11.3515 11.4244 10.888 11.888C10.4244 12.3515 10.1615 12.9785 10.1558 13.634C10.1501 14.2895 10.4021 14.921 10.8575 15.3925L12.625 17.16V17.16ZM16.16 38.375L14.3925 40.1425C13.921 40.5979 13.2895 40.8499 12.634 40.8442C11.9785 40.8385 11.3515 40.5756 10.888 40.112C10.4244 39.6485 10.1615 39.0215 10.1558 38.366C10.1501 37.7105 10.4021 37.079 10.8575 36.6075L12.625 34.84C13.0965 34.3846 13.728 34.1326 14.3835 34.1383C15.039 34.144 15.666 34.4069 16.1295 34.8705C16.5931 35.334 16.856 35.961 16.8617 36.6165C16.8674 37.272 16.6154 37.9035 16.16 38.375V38.375ZM10 28.5C10.663 28.5 11.2989 28.2366 11.7678 27.7678C12.2366 27.2989 12.5 26.663 12.5 26C12.5 25.337 12.2366 24.7011 11.7678 24.2322C11.2989 23.7634 10.663 23.5 10 23.5H7.5C6.83696 23.5 6.20107 23.7634 5.73223 24.2322C5.26339 24.7011 5 25.337 5 26C5 26.663 5.26339 27.2989 5.73223 27.7678C6.20107 28.2366 6.83696 28.5 7.5 28.5H10Z" fill="black" stroke="white" stroke-width="2" mask="url(#path-2-inside-1_9_6)"/>
</svg>
