<svg width="55" height="55" viewBox="0 0 55 55" fill="none" xmlns="http://www.w3.org/2000/svg">
<circle cx="25" cy="30" r="24" fill="#514D4D" stroke="#F9CE3B" stroke-width="2"/>
<path d="M47.1979 34.201C45.9196 36.5883 44.1558 38.6876 42.0147 40.361C39.529 42.3038 36.6091 43.6146 33.5055 44.1808C30.4019 44.7471 27.2073 44.552 24.1957 43.6123C21.184 42.6726 18.4453 41.0163 16.2145 38.7854C13.9837 36.5546 12.3274 33.816 11.3877 30.8043C10.4479 27.7927 10.2528 24.5981 10.8191 21.4945C11.3854 18.3909 12.6962 15.471 14.6389 12.9853C16.3124 10.8442 18.4117 9.08034 20.799 7.80211C19.4976 11.2671 19.1556 15.0286 19.8224 18.6863C20.5696 22.7853 22.5481 26.5594 25.4944 29.5056C28.4406 32.4518 32.2147 34.4304 36.3137 35.1776C39.9714 35.8443 43.7329 35.5024 47.1979 34.201Z" fill="black" stroke="white"/>
</svg>
