<svg width="38" height="68" viewBox="0 0 38 68" fill="none" xmlns="http://www.w3.org/2000/svg">
<path d="M34 68C34 0 34 0 34 68C12 68 0 52.7777 0 34C0 15.2223 15.2223 0 34 0C34 0 34 0 34 68Z" fill="black" fill-opacity="0.7"/>
<path fill-rule="evenodd" clip-rule="evenodd" d="M22.1162 39.3838C21.8819 39.1493 21.7502 38.8315 21.7502 38.5C21.7502 38.1686 21.8819 37.8507 22.1162 37.6163L26.2325 33.5L22.1162 29.3838C21.8885 29.148 21.7625 28.8322 21.7654 28.5045C21.7682 28.1768 21.8997 27.8632 22.1315 27.6315C22.3632 27.3997 22.6767 27.2683 23.0045 27.2654C23.3322 27.2626 23.648 27.3886 23.8837 27.6163L28.8837 32.6163C29.1181 32.8507 29.2497 33.1686 29.2497 33.5C29.2497 33.8315 29.1181 34.1493 28.8837 34.3838L23.8837 39.3838C23.6493 39.6181 23.3314 39.7497 23 39.7497C22.6685 39.7497 22.3506 39.6181 22.1162 39.3838Z" fill="white"/>
</svg>
