<svg width="789" height="53" viewBox="0 0 789 53" fill="none" xmlns="http://www.w3.org/2000/svg">
<rect width="788" height="53" fill="black"/>
<line x1="0.00380709" y1="6.5" x2="788.004" y2="8.5" stroke="#FAFF00" stroke-width="3"/>
<line y1="25" x2="20" y2="25" stroke="white" stroke-width="4"/>
<line x1="317" y1="25" x2="337" y2="25" stroke="white" stroke-width="4"/>
<line x1="347" y1="25" x2="367" y2="25" stroke="white" stroke-width="4"/>
<line x1="640" y1="25" x2="660" y2="25" stroke="white" stroke-width="4"/>
<line x1="756" y1="25" x2="776" y2="25" stroke="white" stroke-width="4"/>
<line x1="726" y1="25" x2="746" y2="25" stroke="white" stroke-width="4"/>
<line x1="698" y1="25" x2="718" y2="25" stroke="white" stroke-width="4"/>
<line x1="669" y1="25" x2="689" y2="25" stroke="white" stroke-width="4"/>
<line x1="611" y1="25" x2="631" y2="25" stroke="white" stroke-width="4"/>
<line x1="582" y1="25" x2="602" y2="25" stroke="white" stroke-width="4"/>
<line x1="551" y1="25" x2="571" y2="25" stroke="white" stroke-width="4"/>
<line x1="522" y1="25" x2="542" y2="25" stroke="white" stroke-width="4"/>
<line x1="493" y1="25" x2="513" y2="25" stroke="white" stroke-width="4"/>
<line x1="464" y1="25" x2="484" y2="25" stroke="white" stroke-width="4"/>
<line x1="434" y1="25" x2="454" y2="25" stroke="white" stroke-width="4"/>
<line x1="405" y1="25" x2="425" y2="25" stroke="white" stroke-width="4"/>
<line x1="374" y1="25" x2="394" y2="25" stroke="white" stroke-width="4"/>
<line x1="289" y1="25" x2="309" y2="25" stroke="white" stroke-width="4"/>
<line x1="259" y1="25" x2="279" y2="25" stroke="white" stroke-width="4"/>
<line x1="231" y1="25" x2="251" y2="25" stroke="white" stroke-width="4"/>
<line x1="203" y1="25" x2="223" y2="25" stroke="white" stroke-width="4"/>
<line x1="173" y1="25" x2="193" y2="25" stroke="white" stroke-width="4"/>
<line x1="144" y1="25" x2="164" y2="25" stroke="white" stroke-width="4"/>
<line x1="115" y1="25" x2="135" y2="25" stroke="white" stroke-width="4"/>
<line x1="85" y1="25" x2="105" y2="25" stroke="white" stroke-width="4"/>
<line x1="57" y1="25" x2="77" y2="25" stroke="white" stroke-width="4"/>
<line x1="29" y1="25" x2="49" y2="25" stroke="white" stroke-width="4"/>
</svg>
