<svg width="788" height="284" viewBox="0 0 788 284" fill="none" xmlns="http://www.w3.org/2000/svg">
<path d="M0 0H394V284H0V0Z" fill="#1BD0E9"/>
<path d="M394 0H788V284H394V0Z" fill="#1BD0E9"/>
<ellipse cx="366" cy="105" rx="22" ry="21" fill="white"/>
<ellipse cx="344" cy="114" rx="22" ry="21" fill="white"/>
<ellipse cx="317" cy="105" rx="22" ry="21" fill="white"/>
<ellipse cx="300" cy="114" rx="22" ry="21" fill="white"/>
<ellipse cx="300" cy="84" rx="22" ry="21" fill="white"/>
<ellipse cx="285" cy="93" rx="22" ry="21" fill="white"/>
<ellipse cx="328" cy="93" rx="22" ry="21" fill="white"/>
<ellipse cx="328" cy="63" rx="22" ry="21" fill="white"/>
<ellipse cx="355" cy="77" rx="22" ry="21" fill="white"/>
<ellipse cx="372" cy="93" rx="22" ry="21" fill="white"/>
<ellipse cx="540" cy="138" rx="22" ry="21" fill="white"/>
<ellipse cx="518" cy="147" rx="22" ry="21" fill="white"/>
<ellipse cx="491" cy="138" rx="22" ry="21" fill="white"/>
<ellipse cx="474" cy="147" rx="22" ry="21" fill="white"/>
<ellipse cx="474" cy="117" rx="22" ry="21" fill="white"/>
<ellipse cx="459" cy="126" rx="22" ry="21" fill="white"/>
<ellipse cx="502" cy="126" rx="22" ry="21" fill="white"/>
<ellipse cx="502" cy="96" rx="22" ry="21" fill="white"/>
<ellipse cx="529" cy="110" rx="22" ry="21" fill="white"/>
<ellipse cx="546" cy="126" rx="22" ry="21" fill="white"/>
<path d="M67 56C67 67.598 57.1503 77 45 77C32.8497 77 23 67.598 23 56C23 44.402 32.8497 35 45 35C57.1503 35 67 44.402 67 56Z" fill="white"/>
<ellipse cx="100" cy="56" rx="22" ry="21" fill="white"/>
<ellipse cx="78" cy="42" rx="22" ry="21" fill="white"/>
<ellipse cx="72" cy="63" rx="22" ry="21" fill="white"/>
<ellipse cx="56" cy="29" rx="22" ry="21" fill="white"/>
<path d="M688 137C688 148.598 678.15 158 666 158C653.85 158 644 148.598 644 137C644 125.402 653.85 116 666 116C678.15 116 688 125.402 688 137Z" fill="white"/>
<ellipse cx="721" cy="137" rx="22" ry="21" fill="white"/>
<ellipse cx="699" cy="123" rx="22" ry="21" fill="white"/>
<ellipse cx="693" cy="144" rx="22" ry="21" fill="white"/>
<ellipse cx="677" cy="110" rx="22" ry="21" fill="white"/>
<ellipse cx="193" cy="117" rx="22" ry="21" fill="white"/>
<ellipse cx="215" cy="126" rx="22" ry="21" fill="white"/>
<ellipse cx="193" cy="138" rx="22" ry="21" fill="white"/>
<ellipse cx="171" cy="147" rx="22" ry="21" fill="white"/>
<ellipse cx="156" cy="133" rx="22" ry="21" fill="white"/>
<ellipse cx="171" cy="105" rx="22" ry="21" fill="white"/>
<ellipse cx="156" cy="112" rx="22" ry="21" fill="white"/>
<ellipse cx="144" cy="117" rx="22" ry="21" fill="white"/>
<ellipse cx="600" cy="33" rx="22" ry="21" fill="white"/>
<ellipse cx="622" cy="42" rx="22" ry="21" fill="white"/>
<ellipse cx="600" cy="54" rx="22" ry="21" fill="white"/>
<ellipse cx="578" cy="63" rx="22" ry="21" fill="white"/>
<ellipse cx="563" cy="49" rx="22" ry="21" fill="white"/>
<ellipse cx="578" cy="21" rx="22" ry="21" fill="white"/>
<ellipse cx="563" cy="28" rx="22" ry="21" fill="white"/>
<ellipse cx="551" cy="33" rx="22" ry="21" fill="white"/>
</svg>
