<svg width="424" height="704" viewBox="0 0 424 704" fill="none" xmlns="http://www.w3.org/2000/svg">
<rect x="2" y="2" width="420" height="700" rx="40" fill="url(#paint0_linear_16_8)" stroke="#36393C" stroke-width="4"/>
<path d="M71.9297 92.3203C71.9297 93.0365 71.7409 93.7331 71.3633 94.4102C70.9987 95.0872 70.5039 95.7253 69.8789 96.3242C69.2539 96.9102 68.5247 97.4505 67.6914 97.9453C66.8581 98.4271 65.9792 98.8438 65.0547 99.1953C65.1979 99.1693 65.3411 99.1562 65.4844 99.1562C65.6406 99.1562 65.7904 99.1562 65.9336 99.1562C67.0143 99.1562 68.082 99.2474 69.1367 99.4297C70.2044 99.612 71.1615 99.9505 72.0078 100.445C72.8542 100.927 73.5378 101.591 74.0586 102.438C74.5794 103.284 74.8398 104.365 74.8398 105.68C74.8398 106.708 74.6901 107.626 74.3906 108.434C74.1042 109.241 73.7005 109.957 73.1797 110.582C72.6719 111.207 72.0794 111.747 71.4023 112.203C70.7253 112.646 70.0026 113.023 69.2344 113.336C68.4661 113.648 67.6719 113.896 66.8516 114.078C66.0312 114.273 65.2305 114.423 64.4492 114.527C63.668 114.632 62.9193 114.703 62.2031 114.742C61.5 114.781 60.875 114.801 60.3281 114.801C59.7812 114.801 59.2148 114.781 58.6289 114.742C58.043 114.716 57.457 114.677 56.8711 114.625C56.2852 114.573 55.7057 114.514 55.1328 114.449C54.5729 114.384 54.0391 114.312 53.5312 114.234C52.3333 114.065 51.1615 113.87 50.0156 113.648L50.2109 89.4883C50.2109 89.2148 50.1654 88.9154 50.0742 88.5898C49.9831 88.2643 49.8073 87.9648 49.5469 87.6914C49.2995 87.418 48.9479 87.1901 48.4922 87.0078C48.0365 86.8125 47.4375 86.7148 46.6953 86.7148V85.9922H59.7617C61.6107 85.9922 63.2839 86.0703 64.7812 86.2266C66.2786 86.3828 67.5547 86.6888 68.6094 87.1445C69.6771 87.6003 70.4974 88.2448 71.0703 89.0781C71.6432 89.8984 71.9297 90.9792 71.9297 92.3203ZM65.4062 92.2812C65.4062 91.2656 65.2435 90.4258 64.918 89.7617C64.5924 89.0977 64.1628 88.5703 63.6289 88.1797C63.0951 87.7891 62.4896 87.5156 61.8125 87.3594C61.1354 87.2031 60.4518 87.125 59.7617 87.125C59.0586 87.125 58.4792 87.2031 58.0234 87.3594C57.5807 87.5026 57.2292 87.6979 56.9688 87.9453C56.7214 88.1927 56.5521 88.4792 56.4609 88.8047C56.3698 89.1302 56.3242 89.4753 56.3242 89.8398L56.2461 112.516C56.6888 112.75 57.1901 112.952 57.75 113.121C58.2318 113.277 58.8047 113.421 59.4688 113.551C60.1328 113.668 60.875 113.727 61.6953 113.727C62.4115 113.727 63.1862 113.603 64.0195 113.355C64.8529 113.095 65.6276 112.704 66.3438 112.184C67.0599 111.65 67.6523 110.979 68.1211 110.172C68.6029 109.352 68.8438 108.388 68.8438 107.281C68.8438 106.357 68.7266 105.556 68.4922 104.879C68.2578 104.189 67.9388 103.603 67.5352 103.121C67.1315 102.626 66.6693 102.223 66.1484 101.91C65.6276 101.598 65.0742 101.357 64.4883 101.188C63.9154 101.005 63.3294 100.882 62.7305 100.816C62.1445 100.751 61.5846 100.719 61.0508 100.719C60.6341 100.719 60.2435 100.738 59.8789 100.777C59.5143 100.803 59.1953 100.829 58.9219 100.855C58.5964 100.908 58.3034 100.953 58.043 100.992L57.7305 100.23C59.1628 100.061 60.4388 99.6641 61.5586 99.0391C62.0404 98.7786 62.5091 98.4531 62.9648 98.0625C63.4206 97.6719 63.8307 97.2031 64.1953 96.6562C64.5599 96.1094 64.8529 95.4779 65.0742 94.7617C65.2956 94.0326 65.4062 93.2057 65.4062 92.2812ZM109.957 112.965C108.772 113.447 107.691 113.772 106.715 113.941C105.738 114.111 104.859 114.195 104.078 114.195C103.453 114.195 102.913 114.156 102.457 114.078C102.001 114.013 101.611 113.928 101.285 113.824C100.908 113.707 100.582 113.577 100.309 113.434C99.7357 113.108 99.2344 112.685 98.8047 112.164C98.375 111.643 97.9844 111.083 97.6328 110.484C97.2943 109.885 96.9883 109.267 96.7148 108.629C96.4414 107.991 96.1745 107.392 95.9141 106.832L95.4258 105.797C94.1107 106.174 92.8802 106.611 91.7344 107.105C90.6016 107.587 89.5924 108.069 88.707 108.551C87.8216 109.02 87.0729 109.456 86.4609 109.859C85.862 110.25 85.4388 110.536 85.1914 110.719C84.7096 111.253 84.1693 111.728 83.5703 112.145C82.9714 112.561 82.3008 112.919 81.5586 113.219C80.8164 113.505 79.9896 113.727 79.0781 113.883C78.1667 114.039 77.1641 114.117 76.0703 114.117L75.875 113.277C77.138 113.069 78.2253 112.665 79.1367 112.066C80.0612 111.467 80.8555 110.732 81.5195 109.859C82.1836 108.974 82.75 107.984 83.2188 106.891C83.6875 105.784 84.1042 104.618 84.4688 103.395C84.6771 102.691 84.9505 101.949 85.2891 101.168C85.6406 100.387 86.0573 99.6315 86.5391 98.9023C87.0339 98.1602 87.5938 97.4701 88.2188 96.832C88.8568 96.181 89.5794 95.6341 90.3867 95.1914C90.1654 94.7747 89.944 94.3516 89.7227 93.9219C89.5143 93.4792 89.3125 93.0365 89.1172 92.5938C88.8438 92.0729 88.5703 91.5 88.2969 90.875C88.0234 90.237 87.6979 89.651 87.3203 89.1172C86.9557 88.5703 86.5195 88.1146 86.0117 87.75C85.5169 87.3854 84.8984 87.2031 84.1562 87.2031C83.6354 87.2031 83.1211 87.2617 82.6133 87.3789C82.1185 87.4961 81.6432 87.6393 81.1875 87.8086L80.9141 87.0078C82.0469 86.6302 83.1927 86.3112 84.3516 86.0508C85.5234 85.7773 86.6823 85.6406 87.8281 85.6406C88.375 85.6406 88.9154 85.6797 89.4492 85.7578C89.9831 85.8229 90.4974 85.9466 90.9922 86.1289C91.4219 86.2852 91.8385 86.5456 92.2422 86.9102C92.6458 87.2617 93.0299 87.6849 93.3945 88.1797C93.7591 88.6615 94.0977 89.1823 94.4102 89.7422C94.7357 90.3021 95.0352 90.862 95.3086 91.4219C95.5951 91.9818 95.849 92.5156 96.0703 93.0234C96.3047 93.5182 96.5065 93.9479 96.6758 94.3125C97.8216 96.7734 98.9609 99.2409 100.094 101.715C101.227 104.176 102.444 106.604 103.746 109C103.98 109.43 104.228 109.853 104.488 110.27C104.762 110.686 105.061 111.057 105.387 111.383C105.725 111.708 106.096 111.969 106.5 112.164C106.904 112.359 107.359 112.451 107.867 112.438C108.049 112.438 108.297 112.418 108.609 112.379C108.935 112.34 109.286 112.242 109.664 112.086L109.957 112.965ZM91.4805 97.4375C91.1419 97.9844 90.8294 98.5508 90.543 99.1367C90.2695 99.7227 90.0156 100.322 89.7812 100.934C89.5469 101.533 89.332 102.132 89.1367 102.73C88.9414 103.329 88.7461 103.902 88.5508 104.449C88.3555 105.048 88.1406 105.634 87.9062 106.207C87.6849 106.767 87.431 107.314 87.1445 107.848C88.1211 107.275 89.2669 106.676 90.582 106.051C91.8971 105.426 93.3034 104.892 94.8008 104.449L91.4805 97.4375ZM109.078 78.043H118.707V112.477H132.906C132.411 112.958 131.995 113.518 131.656 114.156C131.318 114.794 131.044 115.406 130.836 115.992C130.602 116.682 130.413 117.379 130.27 118.082L129.352 118.277C129.417 118.043 129.456 117.809 129.469 117.574C129.495 117.34 129.508 117.125 129.508 116.93C129.508 116.07 129.234 115.432 128.688 115.016C128.154 114.599 127.385 114.312 126.383 114.156C125.38 114.013 124.156 113.954 122.711 113.98C121.266 113.993 119.638 114 117.828 114H109.078V113.277C109.768 113.277 110.335 113.212 110.777 113.082C111.22 112.939 111.572 112.75 111.832 112.516C112.092 112.268 112.268 111.988 112.359 111.676C112.464 111.363 112.516 111.031 112.516 110.68V81.3242C112.516 81.0638 112.464 80.7839 112.359 80.4844C112.268 80.1849 112.092 79.9115 111.832 79.6641C111.585 79.4036 111.24 79.1888 110.797 79.0195C110.354 78.8503 109.781 78.7656 109.078 78.7656V78.043ZM132.789 99.9961C132.789 98.9154 132.939 97.8086 133.238 96.6758C133.538 95.5299 133.98 94.4297 134.566 93.375C135.152 92.3073 135.875 91.3047 136.734 90.3672C137.607 89.4167 138.603 88.5898 139.723 87.8867C140.855 87.1836 142.118 86.6302 143.512 86.2266C144.905 85.8099 146.415 85.6016 148.043 85.6016C149.723 85.6016 151.266 85.7904 152.672 86.168C154.091 86.5456 155.367 87.0664 156.5 87.7305C157.646 88.3945 158.648 89.1823 159.508 90.0938C160.38 91.0052 161.103 91.9948 161.676 93.0625C162.262 94.1172 162.698 95.237 162.984 96.4219C163.284 97.6068 163.434 98.7982 163.434 99.9961C163.434 101.142 163.284 102.301 162.984 103.473C162.698 104.645 162.262 105.777 161.676 106.871C161.103 107.965 160.38 108.993 159.508 109.957C158.648 110.921 157.646 111.76 156.5 112.477C155.367 113.193 154.091 113.759 152.672 114.176C151.266 114.592 149.723 114.801 148.043 114.801C146.389 114.801 144.866 114.592 143.473 114.176C142.079 113.772 140.816 113.212 139.684 112.496C138.564 111.78 137.574 110.94 136.715 109.977C135.855 109.013 135.133 107.984 134.547 106.891C133.961 105.797 133.518 104.664 133.219 103.492C132.932 102.307 132.789 101.142 132.789 99.9961ZM139.508 99.918C139.508 101.025 139.566 102.118 139.684 103.199C139.814 104.28 140.016 105.315 140.289 106.305C140.562 107.281 140.914 108.193 141.344 109.039C141.786 109.872 142.32 110.602 142.945 111.227C143.57 111.852 144.293 112.346 145.113 112.711C145.934 113.076 146.865 113.264 147.906 113.277C148.948 113.277 149.892 113.095 150.738 112.73C151.585 112.353 152.333 111.845 152.984 111.207C153.635 110.569 154.195 109.82 154.664 108.961C155.133 108.102 155.523 107.19 155.836 106.227C156.148 105.25 156.376 104.241 156.52 103.199C156.676 102.145 156.767 101.116 156.793 100.113C156.793 99.0846 156.728 98.0495 156.598 97.0078C156.48 95.9661 156.279 94.9701 155.992 94.0195C155.719 93.056 155.361 92.1576 154.918 91.3242C154.475 90.4909 153.935 89.7682 153.297 89.1562C152.659 88.5312 151.923 88.043 151.09 87.6914C150.257 87.3398 149.306 87.1641 148.238 87.1641C147.197 87.1641 146.259 87.3203 145.426 87.6328C144.605 87.9453 143.87 88.388 143.219 88.9609C142.581 89.5339 142.027 90.2109 141.559 90.9922C141.103 91.7734 140.725 92.6393 140.426 93.5898C140.126 94.5404 139.898 95.5495 139.742 96.6172C139.599 97.6849 139.521 98.7852 139.508 99.918ZM186.695 114H173.609V113.277C174.326 113.277 174.905 113.206 175.348 113.062C175.79 112.906 176.135 112.704 176.383 112.457C176.643 112.21 176.819 111.923 176.91 111.598C177.001 111.272 177.047 110.927 177.047 110.562V87.5156H174.566C173.876 87.5156 173.147 87.5742 172.379 87.6914C171.624 87.7956 170.868 88.0104 170.113 88.3359C169.358 88.6484 168.629 89.0846 167.926 89.6445C167.223 90.2044 166.585 90.9336 166.012 91.832L165.211 91.7148C165.562 91.168 165.829 90.569 166.012 89.918C166.207 89.2539 166.357 88.6289 166.461 88.043C166.565 87.3659 166.63 86.6823 166.656 85.9922H193.883C193.701 86.3568 193.557 86.7344 193.453 87.125C193.349 87.5156 193.264 87.9062 193.199 88.2969C193.134 88.6745 193.089 89.0391 193.062 89.3906C193.049 89.7292 193.043 90.0286 193.043 90.2891C193.043 90.4323 193.043 90.5625 193.043 90.6797C193.043 90.7839 193.049 90.875 193.062 90.9531C193.076 91.0443 193.089 91.1289 193.102 91.207L192.379 91.3242C192.327 90.7383 192.158 90.237 191.871 89.8203C191.598 89.4036 191.253 89.0586 190.836 88.7852C190.432 88.4987 189.983 88.2708 189.488 88.1016C188.993 87.9323 188.505 87.8086 188.023 87.7305C187.555 87.6393 187.112 87.5807 186.695 87.5547C186.279 87.5286 185.947 87.5156 185.699 87.5156H183.258V110.562C183.258 110.823 183.297 111.109 183.375 111.422C183.453 111.734 183.616 112.027 183.863 112.301C184.111 112.574 184.456 112.809 184.898 113.004C185.354 113.186 185.953 113.277 186.695 113.277V114ZM195.328 99.9961C195.328 98.9154 195.478 97.8086 195.777 96.6758C196.077 95.5299 196.52 94.4297 197.105 93.375C197.691 92.3073 198.414 91.3047 199.273 90.3672C200.146 89.4167 201.142 88.5898 202.262 87.8867C203.395 87.1836 204.658 86.6302 206.051 86.2266C207.444 85.8099 208.954 85.6016 210.582 85.6016C212.262 85.6016 213.805 85.7904 215.211 86.168C216.63 86.5456 217.906 87.0664 219.039 87.7305C220.185 88.3945 221.188 89.1823 222.047 90.0938C222.919 91.0052 223.642 91.9948 224.215 93.0625C224.801 94.1172 225.237 95.237 225.523 96.4219C225.823 97.6068 225.973 98.7982 225.973 99.9961C225.973 101.142 225.823 102.301 225.523 103.473C225.237 104.645 224.801 105.777 224.215 106.871C223.642 107.965 222.919 108.993 222.047 109.957C221.188 110.921 220.185 111.76 219.039 112.477C217.906 113.193 216.63 113.759 215.211 114.176C213.805 114.592 212.262 114.801 210.582 114.801C208.928 114.801 207.405 114.592 206.012 114.176C204.618 113.772 203.355 113.212 202.223 112.496C201.103 111.78 200.113 110.94 199.254 109.977C198.395 109.013 197.672 107.984 197.086 106.891C196.5 105.797 196.057 104.664 195.758 103.492C195.471 102.307 195.328 101.142 195.328 99.9961ZM202.047 99.918C202.047 101.025 202.105 102.118 202.223 103.199C202.353 104.28 202.555 105.315 202.828 106.305C203.102 107.281 203.453 108.193 203.883 109.039C204.326 109.872 204.859 110.602 205.484 111.227C206.109 111.852 206.832 112.346 207.652 112.711C208.473 113.076 209.404 113.264 210.445 113.277C211.487 113.277 212.431 113.095 213.277 112.73C214.124 112.353 214.872 111.845 215.523 111.207C216.174 110.569 216.734 109.82 217.203 108.961C217.672 108.102 218.062 107.19 218.375 106.227C218.688 105.25 218.915 104.241 219.059 103.199C219.215 102.145 219.306 101.116 219.332 100.113C219.332 99.0846 219.267 98.0495 219.137 97.0078C219.02 95.9661 218.818 94.9701 218.531 94.0195C218.258 93.056 217.9 92.1576 217.457 91.3242C217.014 90.4909 216.474 89.7682 215.836 89.1562C215.198 88.5312 214.462 88.043 213.629 87.6914C212.796 87.3398 211.845 87.1641 210.777 87.1641C209.736 87.1641 208.798 87.3203 207.965 87.6328C207.145 87.9453 206.409 88.388 205.758 88.9609C205.12 89.5339 204.566 90.2109 204.098 90.9922C203.642 91.7734 203.264 92.6393 202.965 93.5898C202.665 94.5404 202.438 95.5495 202.281 96.6172C202.138 97.6849 202.06 98.7852 202.047 99.918ZM268.473 113.766C267.288 114.247 266.22 114.573 265.27 114.742C264.319 114.911 263.479 114.996 262.75 114.996C261.839 114.996 260.927 114.755 260.016 114.273C259.117 113.792 258.245 113.18 257.398 112.438C256.565 111.682 255.777 110.849 255.035 109.938C254.293 109.026 253.622 108.134 253.023 107.262C252.438 106.389 251.936 105.595 251.52 104.879C251.116 104.163 250.829 103.629 250.66 103.277C252.314 103.004 253.792 102.509 255.094 101.793C255.654 101.48 256.201 101.109 256.734 100.68C257.268 100.25 257.743 99.7422 258.16 99.1562C258.577 98.5703 258.909 97.8997 259.156 97.1445C259.417 96.3893 259.547 95.5299 259.547 94.5664C259.547 93.694 259.436 92.9062 259.215 92.2031C258.993 91.487 258.701 90.8555 258.336 90.3086C257.971 89.7487 257.548 89.2734 257.066 88.8828C256.585 88.4792 256.083 88.1471 255.562 87.8867C255.042 87.6263 254.514 87.4375 253.98 87.3203C253.46 87.1901 252.971 87.125 252.516 87.125C251.826 87.125 251.253 87.1966 250.797 87.3398C250.354 87.4831 250.003 87.6784 249.742 87.9258C249.482 88.1602 249.299 88.4401 249.195 88.7656C249.104 89.0781 249.059 89.4102 249.059 89.7617V110.562C249.059 110.823 249.098 111.109 249.176 111.422C249.267 111.734 249.43 112.027 249.664 112.301C249.911 112.574 250.263 112.809 250.719 113.004C251.174 113.186 251.773 113.277 252.516 113.277V114H239.43V113.277C240.12 113.277 240.686 113.212 241.129 113.082C241.572 112.939 241.923 112.75 242.184 112.516C242.444 112.268 242.62 111.988 242.711 111.676C242.815 111.363 242.867 111.031 242.867 110.68V89.2734C242.867 89.013 242.815 88.7331 242.711 88.4336C242.62 88.1341 242.444 87.8607 242.184 87.6133C241.936 87.3529 241.591 87.138 241.148 86.9688C240.706 86.7995 240.133 86.7148 239.43 86.7148V85.9922H252.516C254.365 85.9922 256.109 86.1549 257.75 86.4805C259.391 86.806 260.823 87.3203 262.047 88.0234C263.284 88.7135 264.26 89.6055 264.977 90.6992C265.706 91.7799 266.07 93.082 266.07 94.6055C266.07 95.8945 265.803 97.0208 265.27 97.9844C264.749 98.9479 264.052 99.7747 263.18 100.465C262.32 101.155 261.337 101.728 260.23 102.184C259.137 102.626 258.017 102.978 256.871 103.238C257.314 104.046 257.802 104.853 258.336 105.66C258.87 106.467 259.43 107.242 260.016 107.984C260.602 108.727 261.188 109.417 261.773 110.055C262.372 110.693 262.952 111.253 263.512 111.734C264.072 112.203 264.592 112.574 265.074 112.848C265.569 113.108 266.005 113.238 266.383 113.238C266.565 113.238 266.812 113.219 267.125 113.18C267.451 113.141 267.802 113.043 268.18 112.887L268.473 113.766ZM270.367 99.9961C270.367 98.9154 270.517 97.8086 270.816 96.6758C271.116 95.5299 271.559 94.4297 272.145 93.375C272.73 92.3073 273.453 91.3047 274.312 90.3672C275.185 89.4167 276.181 88.5898 277.301 87.8867C278.434 87.1836 279.697 86.6302 281.09 86.2266C282.483 85.8099 283.993 85.6016 285.621 85.6016C287.301 85.6016 288.844 85.7904 290.25 86.168C291.669 86.5456 292.945 87.0664 294.078 87.7305C295.224 88.3945 296.227 89.1823 297.086 90.0938C297.958 91.0052 298.681 91.9948 299.254 93.0625C299.84 94.1172 300.276 95.237 300.562 96.4219C300.862 97.6068 301.012 98.7982 301.012 99.9961C301.012 101.142 300.862 102.301 300.562 103.473C300.276 104.645 299.84 105.777 299.254 106.871C298.681 107.965 297.958 108.993 297.086 109.957C296.227 110.921 295.224 111.76 294.078 112.477C292.945 113.193 291.669 113.759 290.25 114.176C288.844 114.592 287.301 114.801 285.621 114.801C283.967 114.801 282.444 114.592 281.051 114.176C279.658 113.772 278.395 113.212 277.262 112.496C276.142 111.78 275.152 110.94 274.293 109.977C273.434 109.013 272.711 107.984 272.125 106.891C271.539 105.797 271.096 104.664 270.797 103.492C270.51 102.307 270.367 101.142 270.367 99.9961ZM277.086 99.918C277.086 101.025 277.145 102.118 277.262 103.199C277.392 104.28 277.594 105.315 277.867 106.305C278.141 107.281 278.492 108.193 278.922 109.039C279.365 109.872 279.898 110.602 280.523 111.227C281.148 111.852 281.871 112.346 282.691 112.711C283.512 113.076 284.443 113.264 285.484 113.277C286.526 113.277 287.47 113.095 288.316 112.73C289.163 112.353 289.911 111.845 290.562 111.207C291.214 110.569 291.773 109.82 292.242 108.961C292.711 108.102 293.102 107.19 293.414 106.227C293.727 105.25 293.954 104.241 294.098 103.199C294.254 102.145 294.345 101.116 294.371 100.113C294.371 99.0846 294.306 98.0495 294.176 97.0078C294.059 95.9661 293.857 94.9701 293.57 94.0195C293.297 93.056 292.939 92.1576 292.496 91.3242C292.053 90.4909 291.513 89.7682 290.875 89.1562C290.237 88.5312 289.501 88.043 288.668 87.6914C287.835 87.3398 286.884 87.1641 285.816 87.1641C284.775 87.1641 283.837 87.3203 283.004 87.6328C282.184 87.9453 281.448 88.388 280.797 88.9609C280.159 89.5339 279.605 90.2109 279.137 90.9922C278.681 91.7734 278.303 92.6393 278.004 93.5898C277.704 94.5404 277.477 95.5495 277.32 96.6172C277.177 97.6849 277.099 98.7852 277.086 99.918ZM312.594 114.527C311.383 114.527 310.4 114.501 309.645 114.449C308.889 114.397 308.264 114.332 307.77 114.254C307.275 114.189 306.865 114.13 306.539 114.078C306.227 114.026 305.908 114 305.582 114C305.725 113.414 305.829 112.88 305.895 112.398C305.96 111.904 305.992 111.448 305.992 111.031C305.992 110.445 305.94 109.905 305.836 109.41C305.732 108.902 305.608 108.368 305.465 107.809L306.344 107.77C306.708 108.59 307.255 109.345 307.984 110.035C308.714 110.712 309.527 111.305 310.426 111.812C311.324 112.307 312.262 112.698 313.238 112.984C314.215 113.258 315.146 113.395 316.031 113.395C317.086 113.395 318.056 113.212 318.941 112.848C319.827 112.483 320.589 112.001 321.227 111.402C321.865 110.79 322.359 110.1 322.711 109.332C323.076 108.551 323.258 107.75 323.258 106.93C323.258 106.031 323.049 105.302 322.633 104.742C322.229 104.169 321.682 103.714 320.992 103.375C320.315 103.036 319.534 102.783 318.648 102.613C317.776 102.444 316.878 102.307 315.953 102.203C315.263 102.125 314.508 102.034 313.688 101.93C312.88 101.826 312.066 101.669 311.246 101.461C310.426 101.253 309.638 100.979 308.883 100.641C308.128 100.289 307.457 99.8464 306.871 99.3125C306.285 98.7786 305.816 98.1276 305.465 97.3594C305.113 96.5911 304.938 95.6732 304.938 94.6055C304.938 93.3424 305.185 92.2422 305.68 91.3047C306.174 90.3672 306.826 89.5664 307.633 88.9023C308.453 88.2253 309.391 87.6719 310.445 87.2422C311.5 86.7995 312.581 86.4544 313.688 86.207C314.807 85.9466 315.914 85.7708 317.008 85.6797C318.115 85.5755 319.124 85.5234 320.035 85.5234C320.829 85.5234 321.572 85.5495 322.262 85.6016C322.965 85.6536 323.609 85.7122 324.195 85.7773C324.794 85.8294 325.341 85.8815 325.836 85.9336C326.344 85.9727 326.806 85.9922 327.223 85.9922C327.079 86.6042 326.975 87.151 326.91 87.6328C326.858 88.1016 326.832 88.5573 326.832 89C326.832 89.5599 326.878 90.0938 326.969 90.6016C327.06 91.0964 327.184 91.6302 327.34 92.2031L326.461 92.2422C326.253 91.7604 326.057 91.2852 325.875 90.8164C325.693 90.3477 325.471 89.9115 325.211 89.5078C324.964 89.0911 324.651 88.7135 324.273 88.375C323.909 88.0234 323.434 87.724 322.848 87.4766C322.275 87.2161 321.565 87.0208 320.719 86.8906C319.885 86.7474 318.87 86.6758 317.672 86.6758C316.865 86.6758 316.077 86.819 315.309 87.1055C314.553 87.3919 313.876 87.7891 313.277 88.2969C312.691 88.7917 312.216 89.3906 311.852 90.0938C311.487 90.7839 311.305 91.5391 311.305 92.3594C311.305 93.0755 311.435 93.6875 311.695 94.1953C311.969 94.7031 312.32 95.1328 312.75 95.4844C313.18 95.8359 313.661 96.1224 314.195 96.3438C314.742 96.5651 315.283 96.7409 315.816 96.8711C316.363 96.9883 316.878 97.0729 317.359 97.125C317.854 97.1771 318.264 97.2161 318.59 97.2422C319.202 97.2943 319.898 97.3724 320.68 97.4766C321.461 97.5807 322.255 97.7435 323.062 97.9648C323.87 98.1732 324.658 98.4531 325.426 98.8047C326.207 99.1562 326.897 99.612 327.496 100.172C328.108 100.732 328.596 101.409 328.961 102.203C329.326 102.984 329.508 103.915 329.508 104.996C329.508 106.415 329.26 107.639 328.766 108.668C328.284 109.684 327.626 110.549 326.793 111.266C325.96 111.969 324.983 112.535 323.863 112.965C322.757 113.382 321.572 113.707 320.309 113.941C319.059 114.176 317.77 114.332 316.441 114.41C315.126 114.488 313.844 114.527 312.594 114.527ZM364.84 112.965C363.655 113.447 362.574 113.772 361.598 113.941C360.621 114.111 359.742 114.195 358.961 114.195C358.336 114.195 357.796 114.156 357.34 114.078C356.884 114.013 356.493 113.928 356.168 113.824C355.79 113.707 355.465 113.577 355.191 113.434C354.618 113.108 354.117 112.685 353.688 112.164C353.258 111.643 352.867 111.083 352.516 110.484C352.177 109.885 351.871 109.267 351.598 108.629C351.324 107.991 351.057 107.392 350.797 106.832L350.309 105.797C348.993 106.174 347.763 106.611 346.617 107.105C345.484 107.587 344.475 108.069 343.59 108.551C342.704 109.02 341.956 109.456 341.344 109.859C340.745 110.25 340.322 110.536 340.074 110.719C339.592 111.253 339.052 111.728 338.453 112.145C337.854 112.561 337.184 112.919 336.441 113.219C335.699 113.505 334.872 113.727 333.961 113.883C333.049 114.039 332.047 114.117 330.953 114.117L330.758 113.277C332.021 113.069 333.108 112.665 334.02 112.066C334.944 111.467 335.738 110.732 336.402 109.859C337.066 108.974 337.633 107.984 338.102 106.891C338.57 105.784 338.987 104.618 339.352 103.395C339.56 102.691 339.833 101.949 340.172 101.168C340.523 100.387 340.94 99.6315 341.422 98.9023C341.917 98.1602 342.477 97.4701 343.102 96.832C343.74 96.181 344.462 95.6341 345.27 95.1914C345.048 94.7747 344.827 94.3516 344.605 93.9219C344.397 93.4792 344.195 93.0365 344 92.5938C343.727 92.0729 343.453 91.5 343.18 90.875C342.906 90.237 342.581 89.651 342.203 89.1172C341.839 88.5703 341.402 88.1146 340.895 87.75C340.4 87.3854 339.781 87.2031 339.039 87.2031C338.518 87.2031 338.004 87.2617 337.496 87.3789C337.001 87.4961 336.526 87.6393 336.07 87.8086L335.797 87.0078C336.93 86.6302 338.076 86.3112 339.234 86.0508C340.406 85.7773 341.565 85.6406 342.711 85.6406C343.258 85.6406 343.798 85.6797 344.332 85.7578C344.866 85.8229 345.38 85.9466 345.875 86.1289C346.305 86.2852 346.721 86.5456 347.125 86.9102C347.529 87.2617 347.913 87.6849 348.277 88.1797C348.642 88.6615 348.98 89.1823 349.293 89.7422C349.618 90.3021 349.918 90.862 350.191 91.4219C350.478 91.9818 350.732 92.5156 350.953 93.0234C351.188 93.5182 351.389 93.9479 351.559 94.3125C352.704 96.7734 353.844 99.2409 354.977 101.715C356.109 104.176 357.327 106.604 358.629 109C358.863 109.43 359.111 109.853 359.371 110.27C359.645 110.686 359.944 111.057 360.27 111.383C360.608 111.708 360.979 111.969 361.383 112.164C361.786 112.359 362.242 112.451 362.75 112.438C362.932 112.438 363.18 112.418 363.492 112.379C363.818 112.34 364.169 112.242 364.547 112.086L364.84 112.965ZM346.363 97.4375C346.025 97.9844 345.712 98.5508 345.426 99.1367C345.152 99.7227 344.898 100.322 344.664 100.934C344.43 101.533 344.215 102.132 344.02 102.73C343.824 103.329 343.629 103.902 343.434 104.449C343.238 105.048 343.023 105.634 342.789 106.207C342.568 106.767 342.314 107.314 342.027 107.848C343.004 107.275 344.15 106.676 345.465 106.051C346.78 105.426 348.186 104.892 349.684 104.449L346.363 97.4375Z" fill="#EAF2E3"/>
<path d="M45.3672 119.312H362.633V120.113H45.3672V119.312Z" fill="#EAF2E3"/>
<path d="M337.71 512.386C333.377 507.152 336.174 498.536 344.48 491.661C349.907 486.901 356.865 484.14 364.592 483.68C364.617 482.445 364.389 481.158 363.921 479.901C363.453 478.644 362.756 477.445 361.873 476.379C360.991 475.313 359.943 474.404 358.795 473.71C357.648 473.015 356.426 472.551 355.208 472.346C353.371 479.829 349.436 486.155 343.831 490.636C335.407 497.609 326.588 498.711 322.206 493.417C317.824 488.124 320.671 479.568 328.976 472.692C334.403 467.933 341.361 465.172 349.088 464.712C349.114 463.477 348.885 462.19 348.417 460.933C347.949 459.676 347.252 458.477 346.37 457.411C345.487 456.345 344.439 455.436 343.292 454.742C342.144 454.047 340.923 453.583 339.705 453.377C337.81 460.882 333.799 467.203 328.11 471.646C319.686 478.619 310.867 479.721 306.485 474.427C302.103 469.134 304.95 460.578 313.255 453.702C318.682 448.951 325.628 446.18 333.342 445.692C333.365 444.454 333.145 443.166 332.696 441.903C332.246 440.641 331.575 439.428 330.721 438.335C327.33 434.238 320.266 432.98 313.115 435.422L310.89 436.105L304.032 427.821C303.375 427.028 302.995 426.061 302.974 425.133C302.954 424.205 303.295 423.391 303.922 422.872C304.55 422.352 305.412 422.169 306.321 422.363C307.229 422.556 308.108 423.11 308.764 423.903L311.958 427.761C321.378 425.507 330.3 427.999 335.697 434.519C338.568 438.102 340.248 442.403 340.397 446.555C344.439 447.457 348.347 449.902 351.319 453.389C354.184 457.007 355.832 461.342 355.924 465.503C357.934 465.917 359.936 466.735 361.813 467.911C363.69 469.087 365.406 470.596 366.859 472.352C368.313 474.108 369.476 476.075 370.28 478.139C371.085 480.202 371.515 482.322 371.546 484.373C375.597 485.295 379.509 487.748 382.493 491.238C387.89 497.757 388.673 506.988 384.7 515.821L387.894 519.679C388.55 520.472 388.931 521.439 388.951 522.367C388.972 523.295 388.631 524.109 388.003 524.628C387.376 525.148 386.513 525.331 385.605 525.138C384.697 524.944 383.818 524.39 383.161 523.597L376.427 515.462L377.514 513.403C381.219 506.607 381.301 499.432 377.761 495.156C376.847 494.113 375.781 493.228 374.624 492.55C373.468 491.872 372.244 491.416 371.023 491.208C369.103 498.694 365.085 505.001 359.403 509.446C350.979 516.42 342.067 517.649 337.71 512.386ZM347.832 472.203C342.569 473.17 337.829 475.376 333.928 478.673C327.917 483.649 326.688 487.993 326.939 489.5C328.37 489.928 332.916 489.591 338.879 484.655C342.847 481.437 345.899 477.193 347.832 472.203ZM363.454 491.073C358.191 492.041 353.451 494.247 349.55 497.544C343.539 502.519 342.31 506.863 342.561 508.37C343.992 508.798 348.538 508.461 354.501 503.525C358.469 500.308 361.521 496.063 363.454 491.073ZM332.21 453.332C326.947 454.3 322.207 456.506 318.306 459.803C312.295 464.779 311.066 469.123 311.317 470.629C312.748 471.057 317.294 470.721 323.257 465.784C327.225 462.567 330.277 458.322 332.21 453.332Z" fill="#FFF87F"/>
<path d="M360.553 213.052L353.298 242.338L352.948 243.749L354.182 244.517L379.793 260.468L349.697 262.617L348.248 262.721L347.899 264.131L340.643 293.417L329.299 265.459L328.752 264.113L327.303 264.216L297.208 266.366L320.292 246.937L321.404 246.002L320.857 244.655L309.513 216.697L335.124 232.648L336.358 233.416L337.469 232.48L360.553 213.052Z" stroke="#FFF87F" stroke-width="4"/>
<path d="M101.603 229.542L109.052 194.153L138.355 215.347L101.603 229.542Z" stroke="#FFF87F" stroke-width="4"/>
<line x1="191.967" y1="168.597" x2="256.959" y2="234.604" stroke="#FFF87F" stroke-width="4"/>
<path d="M35.3847 306.639C36.6975 307.557 38.5055 307.236 39.4229 305.923C40.3403 304.61 40.0198 302.802 38.707 301.885C37.3941 300.968 35.5861 301.288 34.6687 302.601C33.7513 303.914 34.0718 305.722 35.3847 306.639Z" fill="#FFF87F"/>
<path d="M27.8809 317.377C29.1937 318.295 31.0017 317.974 31.9191 316.661C32.8366 315.348 32.516 313.54 31.2032 312.623C29.8903 311.706 28.0824 312.026 27.1649 313.339C26.2475 314.652 26.5681 316.46 27.8809 317.377Z" fill="#FFF87F"/>
<path d="M20.3771 328.115C21.6899 329.032 23.4979 328.712 24.4154 327.399C25.3328 326.086 25.0122 324.278 23.6994 323.361C22.3866 322.443 20.5786 322.764 19.6612 324.077C18.7437 325.39 19.0643 327.198 20.3771 328.115Z" fill="#FFF87F"/>
<path d="M129.238 554.734C123.801 558.908 115.622 556.293 109.566 548.404C105.349 543.251 103.199 536.622 103.351 529.244C102.15 529.227 100.878 529.454 99.6166 529.909C98.3553 530.364 97.1321 531.039 96.0248 531.889C94.9174 532.739 93.95 533.746 93.1842 534.847C92.4183 535.947 91.8706 537.117 91.576 538.282C98.7265 539.988 104.585 543.706 108.517 549.031C114.659 557.032 115.047 565.449 109.548 569.671C104.049 573.892 95.9313 571.229 89.8757 563.34C85.6588 558.187 83.5084 551.558 83.6605 544.18C82.459 544.163 81.1872 544.39 79.926 544.845C78.6647 545.301 77.4416 545.975 76.3342 546.825C75.2268 547.675 74.2595 548.682 73.4936 549.783C72.7277 550.884 72.1801 552.054 71.8854 553.219C79.0522 554.979 84.9004 558.769 88.7883 564.175C94.9302 572.176 95.3183 580.593 89.8191 584.815C84.32 589.036 76.2027 586.373 70.1471 578.484C65.9377 573.331 63.7777 566.713 63.9008 559.348C62.696 559.334 61.424 559.552 60.1584 559.99C58.8929 560.428 57.6589 561.077 56.5279 561.9C52.2715 565.167 50.4959 571.924 52.3202 578.738L52.8133 580.86L44.2073 587.466C43.3833 588.099 42.4113 588.469 41.5051 588.494C40.5989 588.52 39.8327 588.2 39.3752 587.604C38.9176 587.008 38.8061 586.185 39.0652 585.316C39.3243 584.447 39.9328 583.604 40.7568 582.971L44.7646 579.895C43.2998 570.911 46.4218 562.371 53.1948 557.172C56.91 554.406 61.2326 552.772 65.2898 552.602C66.483 548.735 69.1699 544.986 72.7991 542.123C76.5479 539.362 80.9008 537.759 84.9631 537.644C85.5222 535.721 86.4754 533.803 87.7671 532.002C89.0589 530.201 90.6635 528.552 92.4876 527.152C94.3118 525.752 96.3191 524.628 98.3929 523.846C100.467 523.063 102.566 522.638 104.567 522.595C105.781 518.72 108.475 514.966 112.108 512.092C118.881 506.893 127.938 506.084 136.238 509.821L140.245 506.745C141.069 506.112 142.041 505.743 142.948 505.717C143.854 505.691 144.62 506.011 145.078 506.608C145.535 507.204 145.647 508.027 145.388 508.895C145.128 509.764 144.52 510.607 143.696 511.24L135.245 517.727L133.323 516.702C126.987 513.208 120.001 513.177 115.558 516.587C114.471 517.467 113.526 518.491 112.775 519.601C112.025 520.71 111.485 521.882 111.187 523.05C118.335 524.835 124.169 528.632 128.059 534.03C134.201 542.031 134.706 550.537 129.238 554.734ZM90.8634 545.33C91.3978 550.352 93.1793 554.865 96.0895 558.57C100.472 564.279 104.61 565.425 106.097 565.176C106.626 563.806 106.651 559.464 102.303 553.801C99.4761 550.032 95.5764 547.144 90.8634 545.33ZM110.468 530.281C111.002 535.303 112.784 539.817 115.694 543.522C120.076 549.231 124.214 550.376 125.702 550.127C126.23 548.757 126.255 544.416 121.907 538.752C119.08 534.983 115.181 532.096 110.468 530.281ZM71.2591 560.379C71.7935 565.4 73.575 569.914 76.4851 573.619C80.8672 579.328 85.0053 580.473 86.4929 580.224C87.0213 578.854 87.0465 574.513 82.6989 568.849C79.8718 565.08 75.972 562.193 71.2591 560.379Z" fill="#FFF87F"/>
<path d="M215.966 552.771L242.702 566.753L243.99 567.427L245.028 566.41L266.588 545.303L261.552 575.051L261.31 576.484L262.598 577.157L289.334 591.139L259.485 595.543L258.048 595.755L257.805 597.188L252.77 626.936L239.358 599.909L238.712 598.608L237.274 598.82L207.426 603.224L228.985 582.116L230.024 581.1L229.378 579.798L215.966 552.771Z" stroke="#FFF87F" stroke-width="4"/>
<defs>
<linearGradient id="paint0_linear_16_8" x1="212" y1="2.00003" x2="212" y2="702" gradientUnits="userSpaceOnUse">
<stop offset="0.942708" stop-color="#C2334B"/>
<stop offset="0.9999" stop-color="#FF637D"/>
<stop offset="1" stop-color="#FF637D" stop-opacity="0"/>
</linearGradient>
</defs>
</svg>
