<svg width="389" height="488" viewBox="0 0 389 488" fill="none" xmlns="http://www.w3.org/2000/svg">
<path d="M319.71 345.386C315.377 340.152 318.175 331.536 326.48 324.661C331.907 319.901 338.865 317.14 346.592 316.68C346.617 315.445 346.389 314.158 345.921 312.901C345.453 311.644 344.756 310.445 343.873 309.379C342.991 308.313 341.943 307.404 340.795 306.71C339.648 306.015 338.427 305.551 337.209 305.346C335.371 312.829 331.436 319.155 325.831 323.636C317.407 330.609 308.588 331.711 304.206 326.417C299.824 321.124 302.671 312.568 310.976 305.692C316.403 300.933 323.362 298.172 331.088 297.712C331.114 296.477 330.885 295.19 330.417 293.933C329.949 292.676 329.252 291.477 328.37 290.411C327.487 289.345 326.439 288.436 325.292 287.742C324.144 287.047 322.923 286.583 321.705 286.377C319.811 293.882 315.799 300.203 310.11 304.646C301.686 311.619 292.867 312.721 288.485 307.427C284.103 302.134 286.95 293.578 295.255 286.702C300.682 281.951 307.628 279.18 315.342 278.692C315.365 277.454 315.146 276.166 314.696 274.903C314.246 273.641 313.575 272.428 312.722 271.335C309.33 267.238 302.266 265.98 295.115 268.422L292.89 269.105L286.032 260.821C285.375 260.028 284.995 259.061 284.974 258.133C284.954 257.205 285.295 256.391 285.922 255.872C286.55 255.352 287.413 255.169 288.321 255.363C289.229 255.556 290.108 256.11 290.764 256.903L293.958 260.761C303.378 258.507 312.3 260.999 317.697 267.519C320.568 271.102 322.248 275.403 322.397 279.555C326.439 280.457 330.347 282.902 333.319 286.389C336.184 290.007 337.832 294.342 337.925 298.503C339.934 298.917 341.936 299.735 343.813 300.911C345.691 302.087 347.406 303.596 348.859 305.352C350.313 307.108 351.476 309.075 352.281 311.139C353.085 313.202 353.516 315.322 353.547 317.373C357.597 318.295 361.509 320.748 364.493 324.238C369.89 330.757 370.673 339.988 366.7 348.821L369.894 352.679C370.55 353.472 370.931 354.439 370.951 355.367C370.972 356.295 370.631 357.109 370.003 357.628C369.376 358.148 368.513 358.331 367.605 358.138C366.697 357.944 365.818 357.39 365.161 356.597L358.427 348.462L359.514 346.403C363.219 339.607 363.301 332.432 359.761 328.156C358.847 327.113 357.781 326.228 356.624 325.55C355.468 324.872 354.244 324.416 353.023 324.208C351.103 331.694 347.085 338.001 341.403 342.446C332.98 349.42 324.067 350.649 319.71 345.386ZM329.832 305.203C324.569 306.17 319.829 308.376 315.928 311.673C309.918 316.649 308.688 320.993 308.939 322.5C310.37 322.928 314.916 322.591 320.879 317.655C324.847 314.437 327.899 310.193 329.832 305.203ZM345.454 324.073C340.191 325.041 335.451 327.247 331.55 330.544C325.54 335.519 324.31 339.863 324.561 341.37C325.992 341.798 330.538 341.461 336.501 336.525C340.469 333.308 343.521 329.063 345.454 324.073ZM314.21 286.332C308.947 287.3 304.207 289.506 300.306 292.803C294.296 297.779 293.066 302.123 293.317 303.629C294.748 304.057 299.294 303.721 305.257 298.784C309.225 295.567 312.277 291.322 314.21 286.332Z" fill="#FFF87F"/>
<path d="M342.553 46.0521L335.298 75.3384L334.948 76.7489L336.182 77.5171L361.792 93.4676L331.697 95.617L330.248 95.7205L329.898 97.131L322.643 126.417L311.299 98.4593L310.752 97.1129L309.303 97.2164L279.208 99.3657L302.292 79.9374L303.404 79.0017L302.857 77.6553L291.513 49.6973L317.124 65.6479L318.358 66.4161L319.469 65.4804L342.553 46.0521Z" stroke="#FFF87F" stroke-width="4"/>
<path d="M83.6029 62.5419L91.0515 27.1531L120.354 48.3471L83.6029 62.5419Z" stroke="#FFF87F" stroke-width="4"/>
<line x1="173.967" y1="1.59679" x2="238.959" y2="67.6045" stroke="#FFF87F" stroke-width="4"/>
<path d="M17.3846 139.639C18.6975 140.557 20.5055 140.236 21.4229 138.923C22.3403 137.61 22.0198 135.802 20.7069 134.885C19.3941 133.968 17.5861 134.288 16.6687 135.601C15.7513 136.914 16.0718 138.722 17.3846 139.639Z" fill="#FFF87F"/>
<path d="M9.88086 150.377C11.1937 151.295 13.0017 150.974 13.9191 149.661C14.8365 148.348 14.516 146.54 13.2031 145.623C11.8903 144.706 10.0823 145.026 9.16491 146.339C8.24748 147.652 8.56803 149.46 9.88086 150.377Z" fill="#FFF87F"/>
<path d="M2.37708 161.115C3.68991 162.032 5.4979 161.712 6.41532 160.399C7.33275 159.086 7.0122 157.278 5.69936 156.361C4.38653 155.443 2.57855 155.764 1.66112 157.077C0.743698 158.39 1.06424 160.198 2.37708 161.115Z" fill="#FFF87F"/>
<path d="M111.238 387.734C105.801 391.908 97.6218 389.293 91.5662 381.404C87.3493 376.251 85.1989 369.622 85.351 362.244C84.1495 362.227 82.8778 362.454 81.6165 362.909C80.3553 363.364 79.1321 364.039 78.0247 364.889C76.9173 365.739 75.95 366.746 75.1841 367.847C74.4182 368.947 73.8706 370.117 73.576 371.282C80.7264 372.988 86.5853 376.706 90.5169 382.031C96.6587 390.032 97.0468 398.449 91.5477 402.671C86.0485 406.892 77.9312 404.229 71.8757 396.34C67.6587 391.187 65.5083 384.558 65.6604 377.18C64.4589 377.163 63.1872 377.39 61.9259 377.845C60.6647 378.301 59.4415 378.975 58.3341 379.825C57.2268 380.675 56.2594 381.682 55.4935 382.783C54.7276 383.884 54.18 385.054 53.8854 386.219C61.0521 387.979 66.9003 391.769 70.7883 397.175C76.9301 405.176 77.3182 413.593 71.8191 417.815C66.3199 422.036 58.2026 419.373 52.1471 411.484C47.9376 406.331 45.7777 399.713 45.9007 392.348C44.696 392.334 43.424 392.552 42.1584 392.99C40.8928 393.428 39.6588 394.077 38.5278 394.9C34.2714 398.167 32.4958 404.924 34.3201 411.738L34.8132 413.86L26.2072 420.466C25.3832 421.099 24.4112 421.469 23.505 421.494C22.5988 421.52 21.8327 421.2 21.3751 420.604C20.9175 420.008 20.8061 419.185 21.0652 418.316C21.3243 417.447 21.9327 416.604 22.7567 415.971L26.7646 412.895C25.2997 403.911 28.4218 395.371 35.1947 390.172C38.9099 387.406 43.2325 385.772 47.2897 385.602C48.4829 381.735 51.1698 377.986 54.7991 375.123C58.5478 372.362 62.9007 370.759 66.9631 370.644C67.5222 368.721 68.4753 366.803 69.7671 365.002C71.0588 363.201 72.6634 361.552 74.4876 360.152C76.3117 358.752 78.319 357.628 80.3928 356.846C82.4666 356.063 84.5654 355.638 86.5674 355.595C87.7805 351.72 90.4753 347.966 94.1078 345.092C100.881 339.893 109.938 339.084 118.238 342.821L122.245 339.745C123.069 339.112 124.041 338.743 124.948 338.717C125.854 338.691 126.62 339.011 127.078 339.608C127.535 340.204 127.647 341.027 127.387 341.895C127.128 342.764 126.52 343.607 125.696 344.24L117.245 350.727L115.323 349.702C108.987 346.208 102.001 346.177 97.5582 349.587C96.4714 350.467 95.5255 351.491 94.7752 352.601C94.0249 353.71 93.4852 354.882 93.1872 356.05C100.334 357.835 106.169 361.632 110.059 367.03C116.201 375.031 116.706 383.537 111.238 387.734ZM72.8634 378.33C73.3977 383.352 75.1792 387.865 78.0894 391.57C82.4715 397.279 86.6096 398.425 88.0972 398.176C88.6256 396.806 88.6507 392.464 84.3031 386.801C81.4761 383.032 77.5763 380.144 72.8634 378.33ZM92.4677 363.281C93.002 368.303 94.7835 372.817 97.6937 376.522C102.076 382.231 106.214 383.376 107.702 383.127C108.23 381.757 108.255 377.416 103.907 371.752C101.08 367.983 97.1806 365.096 92.4677 363.281ZM53.2591 393.379C53.7934 398.4 55.5749 402.914 58.4851 406.619C62.8672 412.328 67.0052 413.473 68.4929 413.224C69.0213 411.854 69.0464 407.513 64.6988 401.849C61.8717 398.08 57.972 395.193 53.2591 393.379Z" fill="#FFF87F"/>
<path d="M197.966 385.771L224.702 399.753L225.99 400.427L227.028 399.41L248.588 378.303L243.552 408.051L243.31 409.484L244.598 410.157L271.334 424.139L241.485 428.543L240.048 428.755L239.805 430.188L234.77 459.936L221.358 432.909L220.712 431.608L219.274 431.82L189.426 436.224L210.985 415.116L212.024 414.1L211.378 412.798L197.966 385.771Z" stroke="#FFF87F" stroke-width="4"/>
</svg>
