<svg width="389" height="488" viewBox="0 0 389 488" fill="none" xmlns="http://www.w3.org/2000/svg">
<path d="M319.71 345.386C315.377 340.152 318.174 331.536 326.48 324.661C331.907 319.901 338.865 317.14 346.592 316.68C346.617 315.445 346.389 314.158 345.921 312.901C345.453 311.644 344.756 310.445 343.873 309.379C342.991 308.313 341.943 307.404 340.795 306.71C339.648 306.015 338.426 305.551 337.208 305.346C335.371 312.829 331.436 319.155 325.831 323.636C317.407 330.609 308.588 331.711 304.206 326.417C299.824 321.124 302.671 312.568 310.976 305.692C316.403 300.933 323.361 298.172 331.088 297.712C331.114 296.477 330.885 295.19 330.417 293.933C329.949 292.676 329.252 291.477 328.37 290.411C327.487 289.345 326.439 288.436 325.292 287.742C324.144 287.047 322.923 286.583 321.705 286.377C319.81 293.882 315.799 300.203 310.11 304.646C301.686 311.619 292.867 312.721 288.485 307.427C284.103 302.134 286.95 293.578 295.255 286.702C300.682 281.951 307.628 279.18 315.342 278.692C315.365 277.454 315.145 276.166 314.696 274.903C314.246 273.641 313.575 272.428 312.721 271.335C309.33 267.238 302.266 265.98 295.115 268.422L292.89 269.105L286.032 260.821C285.375 260.028 284.995 259.061 284.974 258.133C284.954 257.205 285.295 256.391 285.922 255.872C286.55 255.352 287.412 255.169 288.321 255.363C289.229 255.556 290.108 256.11 290.764 256.903L293.958 260.761C303.378 258.507 312.3 260.999 317.697 267.519C320.568 271.102 322.248 275.403 322.397 279.555C326.439 280.457 330.347 282.902 333.319 286.389C336.184 290.007 337.832 294.342 337.924 298.503C339.934 298.917 341.936 299.735 343.813 300.911C345.69 302.087 347.406 303.596 348.859 305.352C350.313 307.108 351.476 309.075 352.28 311.139C353.085 313.202 353.515 315.322 353.546 317.373C357.597 318.295 361.509 320.748 364.493 324.238C369.89 330.757 370.673 339.988 366.7 348.821L369.894 352.679C370.55 353.472 370.931 354.439 370.951 355.367C370.972 356.295 370.631 357.109 370.003 357.628C369.376 358.148 368.513 358.331 367.605 358.138C366.697 357.944 365.818 357.39 365.161 356.597L358.427 348.462L359.514 346.403C363.219 339.607 363.301 332.432 359.761 328.156C358.847 327.113 357.781 326.228 356.624 325.55C355.468 324.872 354.244 324.416 353.023 324.208C351.103 331.694 347.085 338.001 341.403 342.446C332.979 349.42 324.067 350.649 319.71 345.386ZM329.832 305.203C324.569 306.17 319.829 308.376 315.928 311.673C309.917 316.649 308.688 320.993 308.939 322.5C310.37 322.928 314.916 322.591 320.879 317.655C324.847 314.437 327.899 310.193 329.832 305.203V305.203ZM345.454 324.073C340.191 325.041 335.451 327.247 331.55 330.544C325.539 335.519 324.31 339.863 324.561 341.37C325.992 341.798 330.538 341.461 336.501 336.525C340.469 333.308 343.521 329.063 345.454 324.073V324.073ZM314.21 286.332C308.947 287.3 304.207 289.506 300.306 292.803C294.295 297.779 293.066 302.123 293.317 303.629C294.748 304.057 299.294 303.721 305.257 298.784C309.225 295.567 312.277 291.322 314.21 286.332V286.332Z" fill="#FFF87F"/>
<path d="M342.553 46.0521L335.298 75.3384L334.948 76.7489L336.182 77.5171L361.793 93.4676L331.697 95.617L330.248 95.7205L329.899 97.131L322.643 126.417L311.299 98.4593L310.752 97.1129L309.303 97.2164L279.208 99.3657L302.292 79.9374L303.404 79.0017L302.857 77.6553L291.513 49.6973L317.124 65.6479L318.358 66.4161L319.469 65.4804L342.553 46.0521Z" stroke="#FFF87F" stroke-width="4"/>
<path d="M83.6029 62.5419L91.0516 27.1531L120.355 48.3471L83.6029 62.5419Z" stroke="#FFF87F" stroke-width="4"/>
<line x1="173.967" y1="1.59679" x2="238.959" y2="67.6045" stroke="#FFF87F" stroke-width="4"/>
<path d="M17.3847 139.639C18.6975 140.557 20.5055 140.236 21.4229 138.923C22.3403 137.61 22.0198 135.802 20.707 134.885C19.3941 133.968 17.5861 134.288 16.6687 135.601C15.7513 136.914 16.0718 138.722 17.3847 139.639Z" fill="#FFF87F"/>
<path d="M9.88089 150.377C11.1937 151.295 13.0017 150.974 13.9191 149.661C14.8366 148.348 14.516 146.54 13.2032 145.623C11.8903 144.706 10.0824 145.026 9.16494 146.339C8.24751 147.652 8.56806 149.46 9.88089 150.377Z" fill="#FFF87F"/>
<path d="M2.37711 161.115C3.68994 162.032 5.49793 161.712 6.41535 160.399C7.33278 159.086 7.01223 157.278 5.6994 156.361C4.38656 155.443 2.57858 155.764 1.66115 157.077C0.743729 158.39 1.06427 160.198 2.37711 161.115Z" fill="#FFF87F"/>
<path d="M111.238 387.734C105.801 391.908 97.6219 389.293 91.5663 381.404C87.3494 376.251 85.199 369.622 85.351 362.244C84.1496 362.227 82.8778 362.454 81.6166 362.909C80.3553 363.364 79.1321 364.039 78.0248 364.889C76.9174 365.739 75.95 366.746 75.1842 367.847C74.4183 368.947 73.8706 370.117 73.576 371.282C80.7265 372.988 86.5854 376.706 90.5169 382.031C96.6587 390.032 97.0469 398.449 91.5477 402.671C86.0486 406.892 77.9313 404.229 71.8757 396.34C67.6588 391.187 65.5084 384.558 65.6605 377.18C64.459 377.163 63.1872 377.39 61.926 377.845C60.6647 378.301 59.4416 378.975 58.3342 379.825C57.2268 380.675 56.2595 381.682 55.4936 382.783C54.7277 383.884 54.1801 385.054 53.8854 386.219C61.0522 387.979 66.9004 391.769 70.7883 397.175C76.9302 405.176 77.3183 413.593 71.8191 417.815C66.32 422.036 58.2027 419.373 52.1471 411.484C47.9377 406.331 45.7777 399.713 45.9008 392.348C44.696 392.334 43.424 392.552 42.1585 392.99C40.8929 393.428 39.6589 394.077 38.5279 394.9C34.2715 398.167 32.4959 404.924 34.3202 411.738L34.8133 413.86L26.2073 420.466C25.3833 421.099 24.4113 421.469 23.5051 421.494C22.5989 421.52 21.8327 421.2 21.3752 420.604C20.9176 420.008 20.8061 419.185 21.0652 418.316C21.3243 417.447 21.9328 416.604 22.7568 415.971L26.7646 412.895C25.2998 403.911 28.4218 395.371 35.1948 390.172C38.91 387.406 43.2326 385.772 47.2898 385.602C48.483 381.735 51.1699 377.986 54.7991 375.123C58.5479 372.362 62.9008 370.759 66.9631 370.644C67.5222 368.721 68.4754 366.803 69.7671 365.002C71.0589 363.201 72.6635 361.552 74.4876 360.152C76.3118 358.752 78.3191 357.628 80.3929 356.846C82.4666 356.063 84.5655 355.638 86.5674 355.595C87.7805 351.72 90.4754 347.966 94.1078 345.092C100.881 339.893 109.938 339.084 118.238 342.821L122.245 339.745C123.069 339.112 124.041 338.743 124.948 338.717C125.854 338.691 126.62 339.011 127.078 339.608C127.535 340.204 127.647 341.027 127.388 341.895C127.128 342.764 126.52 343.607 125.696 344.24L117.245 350.727L115.323 349.702C108.987 346.208 102.001 346.177 97.5583 349.587C96.4715 350.467 95.5256 351.491 94.7753 352.601C94.025 353.71 93.4852 354.882 93.1873 356.05C100.335 357.835 106.169 361.632 110.059 367.03C116.201 375.031 116.706 383.537 111.238 387.734ZM72.8634 378.33C73.3978 383.352 75.1793 387.865 78.0895 391.57C82.4716 397.279 86.6096 398.425 88.0973 398.176C88.6256 396.806 88.6508 392.464 84.3032 386.801C81.4761 383.032 77.5764 380.144 72.8634 378.33V378.33ZM92.4677 363.281C93.0021 368.303 94.7836 372.817 97.6938 376.522C102.076 382.231 106.214 383.376 107.702 383.127C108.23 381.757 108.255 377.416 103.907 371.752C101.08 367.983 97.1807 365.096 92.4677 363.281V363.281ZM53.2591 393.379C53.7935 398.4 55.575 402.914 58.4851 406.619C62.8672 412.328 67.0053 413.473 68.4929 413.224C69.0213 411.854 69.0465 407.513 64.6989 401.849C61.8718 398.08 57.972 395.193 53.2591 393.379V393.379Z" fill="#FFF87F"/>
<path d="M197.966 385.771L224.702 399.753L225.99 400.427L227.028 399.41L248.588 378.303L243.552 408.051L243.31 409.484L244.598 410.157L271.334 424.139L241.485 428.543L240.048 428.755L239.805 430.188L234.77 459.936L221.358 432.909L220.712 431.608L219.274 431.82L189.426 436.224L210.985 415.116L212.024 414.1L211.378 412.798L197.966 385.771Z" stroke="#FFF87F" stroke-width="4"/>
</svg>
